<?xml version="1.0" encoding="UTF-8"?>
<svg width="85px" height="85px" viewBox="0 0 85 85" version="1.1" xmlns="http://www.w3.org/2000/svg" xmlns:xlink="http://www.w3.org/1999/xlink">
    <!-- Generator: Sketch 51.1 (57501) - http://www.bohemiancoding.com/sketch -->
    <title>subject-science</title>
    <desc>Created with Sketch.</desc>
    <defs></defs>
    <g id="subject-science" stroke="none" stroke-width="1" fill="none" fill-rule="evenodd">
        <g id="Group" transform="translate(42.500000, 42.500000) rotate(-315.000000) translate(-42.500000, -42.500000) translate(-10.000000, -10.000000)" fill="#FFFFFF" fill-rule="nonzero">
            <path d="M52,44 C47.6226415,44 44,47.6226415 44,52 C44,56.3773585 47.6226415,60 52,60 C56.3773585,60 60,56.3773585 60,52 C60,47.4716981 56.3773585,44 52,44 Z M52,56.8301887 C49.2830189,56.8301887 47.0188679,54.5660377 47.0188679,51.8490566 C47.0188679,49.1320755 49.2830189,46.8679245 52,46.8679245 C54.7169811,46.8679245 56.9811321,49.1320755 56.9811321,51.8490566 C56.9811321,54.5660377 54.7169811,56.8301887 52,56.8301887 Z" id="Shape" transform="translate(52.000000, 52.000000) rotate(45.000000) translate(-52.000000, -52.000000) "></path>
            <path d="M80.9395833,60.3160083 C80.4833333,60.3160083 80.0270833,60.3160083 79.5708333,60.4677755 C78.2020833,58.039501 76.68125,55.4594595 74.85625,52.8794179 C83.98125,40.2827443 87.175,28.4449064 82.15625,23.2848233 C80.6354167,21.7671518 78.50625,20.8565489 75.76875,20.8565489 C74.5520833,17.972973 71.6625,16 68.3166667,16 C63.90625,16 60.25625,19.6424116 60.25625,24.043659 C60.25625,24.4989605 60.25625,24.954262 60.4083333,25.4095634 C57.8229167,26.7754678 55.0854167,28.4449064 52.5,30.4178794 C43.9833333,24.1954262 35.61875,20.4012474 29.5354167,20.4012474 C26.6458333,20.4012474 24.2125,21.3118503 22.6916667,22.8295218 C20.4104167,25.1060291 19.65,28.2931393 20.2583333,32.3908524 C17.825,33.7567568 16,36.4885655 16,39.5239085 C16,43.9251559 19.65,47.5675676 24.0604167,47.5675676 C24.8208333,47.5675676 25.58125,47.4158004 26.3416667,47.2640333 C27.5583333,49.2370062 28.775,51.0582121 30.14375,53.031185 C21.01875,65.6278586 17.825,77.3139293 22.9958333,82.4740125 C24.66875,84.1434511 26.95,84.9022869 29.8395833,84.9022869 C30.6,84.9022869 31.5125,84.7505198 32.425,84.7505198 C33.79375,87.3305613 36.3791667,89 39.4208333,89 C43.83125,89 47.48125,85.3575884 47.48125,80.956341 C47.48125,80.1975052 47.3291667,79.4386694 47.1770833,78.6798337 C49.0020833,77.6174636 50.8270833,76.4033264 52.6520833,75.037422 C60.8645833,80.956341 68.925,84.4469854 74.85625,84.4469854 C77.7458333,84.4469854 80.1791667,83.5363825 81.7,82.018711 C83.2208333,80.5010395 84.1333333,78.3762994 84.1333333,75.6444906 C87.0229167,74.4303534 89,71.5467775 89,68.3596674 C89,63.8066528 85.35,60.3160083 80.9395833,60.3160083 Z M68.3166667,19.035343 C70.5979167,19.035343 72.575,20.7047817 73.03125,22.8295218 C73.03125,22.8295218 73.03125,22.8295218 73.03125,22.8295218 C73.03125,22.981289 73.03125,23.1330561 73.1833333,23.2848233 C73.7916667,29.0519751 68.0125,29.2037422 67.4041667,28.9002079 C67.2520833,28.9002079 67.2520833,28.9002079 67.1,28.9002079 C66.9479167,28.9002079 63.45,27.989605 63.2979167,24.043659 C63.45,21.3118503 65.5791667,19.035343 68.3166667,19.035343 Z M61.625,28.2931393 C61.625,28.2931393 61.625,28.2931393 61.625,28.2931393 C61.7770833,28.4449064 61.7770833,28.5966736 61.9291667,28.5966736 C64.3625,31.9355509 67.8604167,31.9355509 68.46875,31.9355509 C69.5333333,31.9355509 75.9208333,31.4802495 76.5291667,23.8918919 C76.5291667,23.8918919 76.5291667,23.8918919 76.5291667,23.8918919 C76.5291667,23.8918919 76.5291667,23.8918919 76.5291667,23.8918919 C78.05,24.043659 79.2666667,24.6507277 80.0270833,25.4095634 C83.525,28.9002079 81.24375,38.7650728 73.03125,50.2993763 C70.4458333,46.960499 67.55625,43.6216216 64.3625,40.4345114 C61.4729167,37.5509356 58.2791667,34.8191268 55.2375,32.3908524 C57.3666667,30.8731809 59.4958333,29.3555094 61.625,28.2931393 Z M26.7979167,43.6216216 C26.6458333,43.9251559 20.10625,46.6569647 19.0416667,39.5239085 C19.0416667,39.5239085 19.0416667,35.2744283 22.6916667,34.8191268 C22.84375,34.8191268 23.9083333,34.6673597 23.9083333,34.6673597 C26.6458333,34.6673597 28.9270833,36.9438669 28.9270833,39.6756757 C28.9270833,39.5239085 29.0791667,41.8004158 26.7979167,43.6216216 Z M28.9270833,45.7463617 C32.2729167,42.7110187 31.96875,39.5239085 31.96875,39.5239085 C31.05625,30.7214137 23.4520833,31.6320166 23.1479167,31.6320166 C22.9958333,29.2037422 23.1479167,26.6237006 24.66875,25.1060291 C25.7333333,24.043659 27.40625,23.4365904 29.3833333,23.4365904 C34.70625,23.4365904 42.1583333,26.7754678 49.9145833,32.2390852 C41.55,38.7650728 34.4020833,46.960499 31.96875,50.1476091 C30.9041667,48.7817048 29.8395833,47.2640333 28.9270833,45.7463617 Z M39.5729167,85.8128898 C37.2916667,85.8128898 35.3145833,84.2952183 34.8583333,82.1704782 C34.8583333,82.018711 33.6416667,76.7068607 39.5729167,75.9480249 C39.5729167,75.9480249 39.725,75.9480249 39.725,75.9480249 C40.0291667,75.9480249 44.1354167,75.9480249 44.5916667,80.8045738 C44.4395833,83.5363825 42.3104167,85.8128898 39.5729167,85.8128898 Z M45.8083333,75.9480249 C43.0708333,72.7609148 40.0291667,72.9126819 39.5729167,72.9126819 C39.5729167,72.9126819 39.5729167,72.9126819 39.4208333,72.9126819 C35.0104167,72.9126819 31.3604167,76.5550936 31.3604167,80.956341 C31.3604167,80.956341 31.3604167,80.956341 31.3604167,81.1081081 C31.3604167,81.2598753 31.3604167,81.5634096 31.3604167,81.7151767 C28.4708333,82.018711 26.1895833,81.5634096 24.8208333,80.1975052 C21.3229167,76.7068607 23.6041667,66.8419958 31.6645833,55.4594595 C34.0979167,58.4948025 36.8354167,61.5301455 39.725,64.5654886 C42.91875,67.7525988 46.2645833,70.7879418 49.6104167,73.2162162 C48.5458333,74.1268191 47.1770833,75.037422 45.8083333,75.9480249 Z M52.5,71.2432432 C49.0020833,68.6632017 45.5041667,65.6278586 42.1583333,62.2889813 C39.1166667,59.2536383 36.2270833,56.0665281 33.79375,52.8794179 C38.35625,46.3534304 49.0020833,36.7920998 52.5,34.2120582 C55.69375,36.6403326 58.8875,39.5239085 61.9291667,42.5592516 C65.275,45.8981289 68.3166667,49.3887734 70.9020833,52.8794179 C68.6208333,56.0665281 60.1041667,65.7796258 52.5,71.2432432 Z M79.5708333,79.7422037 C78.50625,80.8045738 76.8333333,81.4116424 74.85625,81.4116424 C69.8375,81.4116424 62.6895833,78.3762994 55.2375,73.2162162 C62.5375,67.7525988 70.4458333,58.4948025 72.8791667,55.4594595 C74.2479167,57.5841996 75.6166667,59.5571726 76.68125,61.5301455 C76.68125,61.5301455 76.68125,61.5301455 76.5291667,61.5301455 C76.3770833,61.5301455 76.3770833,61.6819127 76.225,61.6819127 C71.20625,65.3243243 73.4875,71.0914761 73.4875,71.2432432 C74.7041667,74.1268191 77.59375,76.0997921 80.7875,76.0997921 C80.7875,76.0997921 80.7875,76.0997921 80.7875,76.0997921 C80.7875,76.0997921 80.7875,76.0997921 80.7875,76.0997921 C80.9395833,77.7692308 80.33125,78.983368 79.5708333,79.7422037 Z M82.15625,73.0644491 C82.15625,73.0644491 82.15625,73.0644491 82.15625,73.0644491 C81.8520833,73.2162162 81.3958333,73.2162162 80.9395833,73.2162162 C78.50625,73.2162162 76.5291667,71.5467775 76.0729167,69.2702703 C76.0729167,68.966736 75.3125,63.8066528 80.9395833,63.3513514 C83.6770833,63.3513514 85.9583333,65.6278586 85.9583333,68.3596674 C85.9583333,70.6361746 84.2854167,72.4573805 82.15625,73.0644491 Z" id="Shape" transform="translate(52.500000, 52.500000) rotate(45.000000) translate(-52.500000, -52.500000) "></path>
        </g>
    </g>
</svg>