<?xml version="1.0" encoding="UTF-8"?>
<svg width="85px" height="85px" viewBox="0 0 85 85" version="1.1" xmlns="http://www.w3.org/2000/svg" xmlns:xlink="http://www.w3.org/1999/xlink">
    <!-- Generator: Sketch 51.1 (57501) - http://www.bohemiancoding.com/sketch -->
    <title>subject-psychology</title>
    <desc>Created with Sketch.</desc>
    <defs></defs>
    <g id="subject-psychology" stroke="none" stroke-width="1" fill="none" fill-rule="evenodd">
        <path d="M73.4655536,28.54375 C71.87581,15.8708333 61.5424767,5.60416667 48.9835023,4.16041667 C47.8706818,4 46.9168357,4 45.8040152,4 C30.3835023,4 17.9835023,16.6729167 17.9835023,32.2333333 C17.9835023,33.8375 17.6655536,35.1208333 17.1886305,36.4041667 C15.9168357,38.9708333 14.4860664,41.3770833 12.8963228,43.6229167 C11.9424767,44.7458333 11.7835023,46.35 12.2604254,47.79375 C12.7373485,49.2375 13.850169,50.2 15.2809382,50.5208333 L17.1886305,51.0020833 C17.824528,51.1625 18.3014511,51.64375 18.3014511,52.2854167 L19.4142716,62.3916667 C19.7322203,65.4395833 22.27581,67.6854167 25.2963228,67.6854167 L29.5886305,67.6854167 C30.7014511,67.6854167 31.6552972,68.4875 31.9732459,69.45 L34.5168357,79.7166667 C34.67581,80.3583333 35.3117075,81 36.1065793,81 L65.198887,81 C66.1527331,81 66.7886305,80.1979167 66.7886305,79.075 C66.6296562,78.4333333 66.6296562,77.63125 66.4706818,76.8291667 C64.7219639,65.9208333 66.4706818,54.53125 71.398887,44.1041667 C73.3065793,39.2916667 74.1014511,33.8375 73.4655536,28.54375 Z M68.2193998,42.8208333 C62.9732459,53.8895833 61.224528,65.9208333 62.9732459,77.4708333 C62.9732459,77.63125 62.9732459,77.63125 62.9732459,77.7916667 L36.9014511,77.7916667 L34.67581,68.6479167 C34.0399126,66.08125 31.8142716,64.3166667 29.2706818,64.3166667 L24.9783741,64.3166667 C23.5476049,64.3166667 22.4347844,63.3541667 22.27581,61.9104167 L21.1629895,51.8041667 C21.0040152,49.8791667 19.5732459,48.275 17.6655536,47.79375 L15.9168357,47.3125 C15.4399126,47.1520833 15.2809382,46.83125 15.1219639,46.6708333 C15.1219639,46.5104167 14.9629895,46.0291667 15.2809382,45.5479167 C17.0296562,43.3020833 18.6193998,40.575 19.8911946,37.8479167 C20.6860664,36.24375 21.0040152,34.31875 21.0040152,32.39375 C21.1629895,18.4375 32.1322203,7.20833333 45.8040152,7.20833333 C46.7578613,7.20833333 47.7117075,7.20833333 48.6655536,7.36875 C59.7937587,8.65208333 68.8552972,17.6354167 70.2860664,28.8645833 C70.9219639,33.6770833 70.1270921,38.4895833 68.2193998,42.8208333 Z" id="Shape" fill="#FFFFFF" fill-rule="nonzero"></path>
        <path d="M64.4615385,28.0625 C64.4615385,24.5333333 62.5538462,21.4854167 59.8512821,20.2020833 C58.4205128,17.3145833 55.7179487,15.7104167 52.6974359,16.03125 C50.4717949,14.2666667 47.4512821,13.9458333 45.0666667,15.2291667 C42.2051282,13.9458333 38.8666667,15.06875 36.8,17.6354167 C33.7794872,17.95625 31.3948718,20.2020833 30.4410256,23.25 C27.7384615,24.8541667 26.1487179,28.3833333 26.625641,31.9125 C27.1025641,35.4416667 29.6461538,38.4895833 32.825641,38.9708333 C34.4153846,39.2916667 36.0051282,38.9708333 37.2769231,38.16875 C39.1846154,39.2916667 41.5692308,39.2916667 43.4769231,38.3291667 C43.7948718,38.4895833 44.1128205,38.8104167 44.4307692,38.9708333 C46.4974359,40.2541667 47.7692308,42.98125 47.6102564,45.86875 L46.8153846,52.125 C46.8153846,52.60625 46.974359,53.0875 47.2923077,53.4083333 C47.6102564,53.7291667 48.0871795,53.8895833 48.4051282,53.8895833 L54.9230769,53.8895833 C55.7179487,53.8895833 56.5128205,53.2479167 56.5128205,52.4458333 C56.5128205,52.4458333 56.6717949,50.68125 57.625641,48.275 C58.1025641,46.9916667 59.0564103,45.86875 60.3282051,44.90625 C62.0769231,43.6229167 63.3487179,41.5375 63.6666667,39.13125 C64.6205128,37.6875 65.2564103,35.9229167 65.2564103,33.9979167 C65.2564103,32.5541667 64.9384615,31.1104167 64.3025641,29.8270833 C64.3025641,29.025 64.4615385,28.54375 64.4615385,28.0625 Z M60.9641026,37.3666667 C60.8051282,37.6875 60.6461538,37.8479167 60.6461538,38.16875 C60.4871795,39.7729167 59.6923077,41.2166667 58.5794872,42.1791667 C56.8307692,43.4625 55.5589744,45.0666667 54.7641026,46.83125 C54.1282051,48.275 53.8102564,49.5583333 53.6512821,50.5208333 L50.1538462,50.5208333 L50.4717949,46.1895833 C50.7897436,42.1791667 49.0410256,38.3291667 45.8615385,36.4041667 C45.0666667,35.9229167 44.7487179,35.6020833 44.4307692,35.28125 C43.7948718,34.8 43,34.8 42.3641026,35.1208333 C40.9333333,36.0833333 39.1846154,36.0833333 37.9128205,35.1208333 C37.2769231,34.6395833 36.4820513,34.6395833 36.0051282,35.1208333 C35.2102564,35.7625 34.0974359,36.0833333 32.9846154,35.9229167 C31.2358974,35.6020833 29.6461538,33.8375 29.3282051,31.5916667 C29.0102564,29.025 30.1230769,26.7791667 32.0307692,25.8166667 C32.5076923,25.65625 32.825641,25.175 32.9846154,24.69375 C33.4615385,22.4479167 35.2102564,20.84375 37.1179487,20.6833333 C37.1179487,20.6833333 37.2769231,20.6833333 37.2769231,20.6833333 C37.9128205,20.6833333 38.3897436,20.3625 38.7076923,19.88125 C39.9794872,17.95625 42.0461538,17.1541667 43.9538462,18.2770833 C44.4307692,18.5979167 45.225641,18.5979167 45.7025641,18.1166667 C46.3384615,17.6354167 47.1333333,17.3145833 47.9282051,17.3145833 C49.2,17.3145833 50.1538462,17.95625 50.6307692,18.5979167 C50.9487179,19.0791667 51.5846154,19.2395833 52.2205128,19.0791667 C54.1282051,18.5979167 56.0358974,19.7208333 56.8307692,21.80625 C56.9897436,22.2875 57.3076923,22.6083333 57.7846154,22.76875 C59.6923077,23.4104167 60.9641026,25.4958333 60.9641026,27.7416667 C60.9641026,28.2229167 60.9641026,28.7041667 60.8051282,29.1854167 C60.6461538,29.6666667 60.8051282,29.9875 60.9641026,30.46875 C61.6,31.43125 61.7589744,32.39375 61.7589744,33.5166667 C62.0769231,35.1208333 61.6,36.4041667 60.9641026,37.3666667 Z" id="Shape" fill="#FFFFFF" fill-rule="nonzero"></path>
    </g>
</svg>