<?xml version="1.0" encoding="UTF-8"?>
<svg width="85px" height="85px" viewBox="0 0 85 85" version="1.1" xmlns="http://www.w3.org/2000/svg" xmlns:xlink="http://www.w3.org/1999/xlink">
    <!-- Generator: Sketch 51.1 (57501) - http://www.bohemiancoding.com/sketch -->
    <title>subject-art</title>
    <desc>Created with Sketch.</desc>
    <defs></defs>
    <g id="subject-art" stroke="none" stroke-width="1" fill="none" fill-rule="evenodd">
        <path d="M42.98125,19.2395833 C42.98125,15.2291667 39.7729167,11.8604167 35.6020833,11.8604167 C31.5916667,11.8604167 28.2229167,15.06875 28.2229167,19.2395833 C28.2229167,23.25 31.43125,26.61875 35.6020833,26.61875 C39.7729167,26.61875 42.98125,23.25 42.98125,19.2395833 Z M35.6020833,23.4104167 C33.35625,23.4104167 31.43125,21.6458333 31.43125,19.2395833 C31.43125,16.99375 33.1958333,15.06875 35.6020833,15.06875 C37.8479167,15.06875 39.7729167,16.8333333 39.7729167,19.2395833 C39.7729167,21.4854167 38.0083333,23.4104167 35.6020833,23.4104167 Z" id="Shape" fill="#FFFFFF" fill-rule="nonzero"></path>
        <path d="M28.7041667,38.4895833 C28.7041667,34.4791667 25.4958333,31.1104167 21.325,31.1104167 C17.1541667,31.1104167 13.9458333,34.31875 13.9458333,38.4895833 C13.9458333,42.5 17.1541667,45.86875 21.325,45.86875 C25.4958333,45.86875 28.7041667,42.5 28.7041667,38.4895833 Z M17.3145833,38.4895833 C17.3145833,36.24375 19.0791667,34.31875 21.4854167,34.31875 C23.73125,34.31875 25.65625,36.0833333 25.65625,38.4895833 C25.65625,40.7354167 23.8916667,42.6604167 21.4854167,42.6604167 C19.0791667,42.6604167 17.3145833,40.7354167 17.3145833,38.4895833 Z" id="Shape" fill="#FFFFFF" fill-rule="nonzero"></path>
        <path d="M26.61875,49.8791667 C22.6083333,49.8791667 19.2395833,53.0875 19.2395833,57.2583333 C19.2395833,61.26875 22.4479167,64.6375 26.61875,64.6375 C30.6291667,64.6375 33.9979167,61.4291667 33.9979167,57.2583333 C33.8375,53.2479167 30.6291667,49.8791667 26.61875,49.8791667 Z M26.61875,61.4291667 C24.3729167,61.4291667 22.4479167,59.6645833 22.4479167,57.2583333 C22.4479167,55.0125 24.2125,53.0875 26.61875,53.0875 C28.8645833,53.0875 30.7895833,54.8520833 30.7895833,57.2583333 C30.6291667,59.5041667 28.8645833,61.4291667 26.61875,61.4291667 Z" id="Shape" fill="#FFFFFF" fill-rule="nonzero"></path>
        <path d="M47.1520833,58.8625 C43.1416667,58.8625 39.7729167,62.0708333 39.7729167,66.2416667 C39.7729167,70.2520833 42.98125,73.6208333 47.1520833,73.6208333 C51.3229167,73.6208333 54.53125,70.4125 54.53125,66.2416667 C54.3708333,62.23125 51.1625,58.8625 47.1520833,58.8625 Z M47.1520833,70.2520833 C44.90625,70.2520833 42.98125,68.4875 42.98125,66.08125 C42.98125,63.8354167 44.7458333,61.9104167 47.1520833,61.9104167 C49.3979167,61.9104167 51.3229167,63.675 51.3229167,66.08125 C51.1625,68.4875 49.3979167,70.2520833 47.1520833,70.2520833 Z" id="Shape" fill="#FFFFFF" fill-rule="nonzero"></path>
        <path d="M81,19.5604167 C81,16.8333333 76.9895833,6.8875 76.1875,4.9625 C75.8666667,4.32083333 75.225,4 74.5833333,4 C73.9416667,4 73.3,4.32083333 73.1395833,4.9625 C72.3375,6.8875 68.3270833,16.8333333 68.3270833,19.5604167 C68.3270833,21.0041667 68.96875,25.8166667 70.0916667,28.2229167 C69.6104167,32.39375 69.2895833,36.5645833 69.1291667,40.8958333 C68.1666667,40.2541667 67.2041667,39.6125 66.08125,39.13125 C64.4770833,38.3291667 62.8729167,38.3291667 61.75,38.3291667 C61.1083333,38.3291667 60.4666667,38.3291667 59.825,38.3291667 C57.5791667,38.4895833 55.1729167,38.8104167 52.4458333,36.725 C50.0395833,34.9604167 50.5208333,31.43125 51.4833333,25.9770833 C52.9270833,18.7583333 54.53125,9.775 44.2645833,5.12291667 C42.5,4.48125 40.4145833,4 38.16875,4 C27.58125,4 16.03125,13.625 11.0583333,20.3625 C-1.13333333,37.5270833 2.87708333,61.4291667 20.0416667,73.78125 C26.61875,78.4333333 34.8,81 42.98125,81 C54.05,81 64.15625,76.3479167 70.7333333,68.3270833 C71.375,72.4979167 72.1770833,76.3479167 73.1395833,79.7166667 C73.3,80.3583333 73.9416667,80.8395833 74.74375,80.8395833 C75.5458333,80.8395833 76.0270833,80.3583333 76.3479167,79.7166667 C80.1979167,66.08125 81.48125,45.86875 79.3958333,28.0625 C80.3583333,25.8166667 81,21.1645833 81,19.5604167 Z M42.8208333,77.7916667 C35.28125,77.7916667 27.9020833,75.3854167 21.80625,71.0541667 C6.24583333,59.825 2.55625,38.0083333 13.625,22.2875 C18.1166667,16.1916667 28.8645833,7.20833333 38.16875,7.20833333 C39.9333333,7.20833333 41.5375,7.52916667 43.1416667,8.17083333 C51.1625,11.7 49.8791667,18.4375 48.4354167,25.3354167 C47.4729167,30.7895833 46.35,36.24375 50.68125,39.4520833 C53.4083333,41.3770833 56.1354167,41.6979167 58.0604167,41.6979167 C61.26875,41.3770833 63.675,41.3770833 64.9583333,42.01875 C66.5625,42.8208333 68.00625,43.7833333 69.2895833,44.90625 C69.2895833,51.3229167 69.6104167,57.7395833 70.2520833,63.675 C70.2520833,63.675 70.2520833,63.675 70.2520833,63.675 C64.15625,72.6583333 54.05,77.7916667 42.8208333,77.7916667 Z M74.5833333,72.4979167 C72.0166667,58.0604167 71.5354167,43.6229167 73.1395833,29.3458333 L76.0270833,29.3458333 C77.63125,43.94375 77.15,59.9854167 74.5833333,72.4979167 Z M76.5083333,26.1375 L72.6583333,26.1375 C72.0166667,24.2125 71.5354167,20.84375 71.5354167,19.7208333 C71.5354167,18.4375 73.1395833,14.10625 74.74375,9.93541667 C76.3479167,13.9458333 77.9520833,18.4375 77.9520833,19.7208333 C77.7916667,20.84375 77.3104167,24.2125 76.5083333,26.1375 Z" id="Shape" fill="#FFFFFF" fill-rule="nonzero"></path>
    </g>
</svg>