<?xml version="1.0" encoding="UTF-8"?>
<svg width="85px" height="85px" viewBox="0 0 85 85" version="1.1" xmlns="http://www.w3.org/2000/svg" xmlns:xlink="http://www.w3.org/1999/xlink">
    <!-- Generator: Sketch 51.1 (57501) - http://www.bohemiancoding.com/sketch -->
    <title>subject-politics</title>
    <desc>Created with Sketch.</desc>
    <defs></defs>
    <g id="subject-politics" stroke="none" stroke-width="1" fill="none" fill-rule="evenodd">
        <path d="M66.12,48.9166667 C70.44,43.94375 73,37.6875 73,30.95 C73,23.73125 70.12,16.99375 65.16,11.8604167 C59.88,6.8875 53.16,4 45.96,4 C39.24,4 33,6.40625 28.04,10.8979167 L24.2,7.04791667 C23.88,6.72708333 23.56,6.56666667 23.08,6.56666667 C22.6,6.56666667 22.28,6.72708333 21.96,7.04791667 C8.68,20.3625 8.68,42.01875 21.96,55.1729167 C26.12,59.34375 31.24,62.23125 36.52,63.8354167 L36.52,72.1770833 L30.92,72.1770833 C29.96,72.1770833 29.32,72.81875 29.32,73.78125 L29.32,79.3958333 C29.32,80.3583333 29.96,81 30.92,81 L53.8,81 C54.76,81 55.4,80.3583333 55.4,79.3958333 L55.4,73.6208333 C55.4,72.6583333 54.76,72.0166667 53.8,72.0166667 L48.2,72.0166667 L48.2,64.9583333 C56.04,64.4770833 63.88,61.1083333 69.8,55.1729167 C70.44,54.53125 70.44,53.56875 69.8,52.9270833 L66.12,48.9166667 Z M67.08,41.8583333 C66.6,38.9708333 65.48,35.6020833 63.56,32.2333333 C65.48,31.7520833 67.56,31.43125 69.64,31.43125 C69.64,35.1208333 68.68,38.65 67.08,41.8583333 Z M48.2,45.5479167 C49.32,42.8208333 51.08,40.4145833 53,38.3291667 C55.08,36.24375 57.64,34.4791667 60.36,33.35625 C64.2,39.9333333 64.84,45.5479167 62.6,47.79375 C61.64,48.75625 60.36,49.0770833 58.6,49.0770833 C55.88,49.2375 52.04,47.79375 48.2,45.5479167 Z M56.68,52.2854167 C53.48,53.8895833 49.8,54.8520833 46.12,54.8520833 C46.12,52.7666667 46.44,50.68125 47.08,48.5958333 C50.44,50.5208333 53.8,51.8041667 56.68,52.2854167 Z M49,7.36875 C54.28,8.01041667 59.08,10.4166667 62.76,14.10625 C66.6,17.95625 68.84,22.76875 69.48,28.0625 C66.92,28.0625 64.2,28.54375 61.8,29.3458333 C60.04,26.7791667 57.8,24.2125 55.24,21.6458333 C52.68,19.0791667 50.12,16.99375 47.56,15.2291667 C48.36,12.6625 48.84,10.0958333 49,7.36875 Z M46.44,18.2770833 C48.68,19.88125 50.92,21.80625 53.16,23.8916667 C55.4,26.1375 57.32,28.3833333 58.76,30.6291667 C55.88,31.9125 53.16,33.8375 50.92,36.0833333 C48.68,38.3291667 46.92,40.8958333 45.64,43.7833333 C43.4,42.1791667 41.16,40.2541667 38.92,38.16875 C36.68,35.9229167 34.76,33.6770833 33.32,31.43125 C36.2,30.1479167 38.92,28.2229167 41.16,25.9770833 C43.24,23.73125 45.16,21.0041667 46.44,18.2770833 Z M30.12,32.5541667 C31.88,35.1208333 34.12,37.8479167 36.52,40.4145833 C39.08,42.98125 41.64,45.0666667 44.2,46.83125 C43.4,49.3979167 42.92,51.9645833 42.92,54.53125 C37.64,53.8895833 32.84,51.4833333 29.16,47.79375 C25.32,43.94375 23.08,38.9708333 22.44,33.8375 C25,33.8375 27.56,33.35625 30.12,32.5541667 Z M22.28,30.6291667 C22.28,27.1 23.24,23.4104167 24.84,20.2020833 C25.32,23.0895833 26.44,26.4583333 28.36,29.8270833 C26.44,30.3083333 24.36,30.6291667 22.28,30.6291667 Z M45.8,7.20833333 C45.8,9.29375 45.48,11.3791667 44.84,13.4645833 C41.48,11.5395833 38.12,10.25625 35.24,9.775 C38.44,8.17083333 41.96,7.20833333 45.8,7.20833333 Z M29.16,14.10625 C30.12,13.14375 31.4,12.8229167 33.16,12.8229167 C36.2,12.8229167 39.88,14.10625 43.72,16.5125 C42.6,19.2395833 40.84,21.6458333 38.92,23.73125 C36.84,25.8166667 34.28,27.58125 31.56,28.7041667 C27.56,22.1270833 26.92,16.5125 29.16,14.10625 Z M52.2,75.225 L52.2,77.7916667 L32.52,77.7916667 L32.52,75.225 L52.2,75.225 Z M39.72,72.0166667 L39.72,64.4770833 C41.48,64.7979167 43.24,64.9583333 45.16,64.9583333 L45.16,72.0166667 L39.72,72.0166667 Z M24.2,52.7666667 C12.52,41.2166667 12.2,22.4479167 23.08,10.4166667 L25.8,13.14375 C16.52,23.73125 16.84,39.9333333 26.92,50.0395833 C32.04,55.1729167 38.76,57.9 45.96,57.9 C52.68,57.9 58.92,55.49375 63.88,51.0020833 L66.6,53.7291667 C54.44,64.7979167 35.88,64.4770833 24.2,52.7666667 Z" id="Shape" fill="#FFFFFF" fill-rule="nonzero"></path>
    </g>
</svg>