<?xml version="1.0" encoding="UTF-8"?>
<svg width="85px" height="85px" viewBox="0 0 85 85" version="1.1" xmlns="http://www.w3.org/2000/svg" xmlns:xlink="http://www.w3.org/1999/xlink">
    <!-- Generator: Sketch 51.1 (57501) - http://www.bohemiancoding.com/sketch -->
    <title>subject-law</title>
    <desc>Created with Sketch.</desc>
    <defs></defs>
    <g id="subject-law" stroke="none" stroke-width="1" fill="none" fill-rule="evenodd">
        <path d="M84.7428139,47.780303 L74.9697428,18.030303 L80.8850227,18.030303 C83.0711044,18.030303 85,16.2272727 85,14.0378788 C85,11.8484848 83.1996974,10.0454545 80.8850227,10.0454545 L46.5506808,10.0454545 L46.5506808,7.59848485 C46.5506808,7.46969697 46.5506808,7.21212121 46.4220877,7.08333333 L43.5930408,0.772727273 C43.3358548,0.257575758 42.9500756,0 42.4357035,0 C42.4357035,0 42.4357035,0 42.4357035,0 C41.9213313,0 41.4069592,0.257575758 41.2783661,0.772727273 L38.4493192,7.08333333 C38.3207262,7.21212121 38.3207262,7.46969697 38.3207262,7.59848485 L38.3207262,9.91666667 L4.11497731,9.91666667 C1.80030257,10.0454545 0,11.8484848 0,14.0378788 C0,16.2272727 1.80030257,18.030303 4.11497731,18.030303 L10.0302572,18.030303 L0.128593041,47.780303 C0,47.9090909 0,48.1666667 0,48.1666667 C0.128593041,54.4772727 5.27231467,59.3712121 11.7019667,59.3712121 C18.1316188,59.3712121 23.2753404,54.4772727 23.4039334,48.1666667 C23.4039334,48.0378788 23.4039334,47.9090909 23.2753404,47.780303 L13.5022693,18.030303 L38.3207262,18.030303 L38.3207262,19.4469697 C35.8774584,20.8636364 34.2057489,23.4393939 34.2057489,26.4015152 C34.2057489,29.3636364 35.8774584,31.9393939 38.3207262,33.3560606 L38.3207262,64.1363636 L27.5189107,64.1363636 C26.7473525,64.1363636 26.2329803,64.6515152 26.2329803,65.4242424 L26.2329803,73.4090909 L14.5310136,73.4090909 C13.7594554,73.4090909 13.2450832,73.9242424 13.2450832,74.6969697 L13.2450832,83.7121212 C13.2450832,84.4848485 13.7594554,85 14.5310136,85 L70.3403933,85 C71.1119516,85 71.6263238,84.4848485 71.6263238,83.7121212 L71.6263238,74.6969697 C71.6263238,73.9242424 71.1119516,73.4090909 70.3403933,73.4090909 L58.6384266,73.4090909 L58.6384266,65.5530303 C58.6384266,64.780303 58.1240545,64.2651515 57.3524962,64.2651515 L46.5506808,64.2651515 L46.5506808,33.4848485 C48.9939486,32.0681818 50.5370651,29.4924242 50.5370651,26.530303 C50.5370651,23.5681818 48.8653555,20.9924242 46.5506808,19.5757576 L46.5506808,18.030303 L71.3691377,18.030303 L61.4674735,47.780303 C61.4674735,47.9090909 61.3388805,48.1666667 61.3388805,48.1666667 C61.4674735,54.4772727 66.6111952,59.3712121 73.0408472,59.3712121 C79.4704992,59.3712121 84.6142209,54.4772727 84.7428139,48.1666667 C84.871407,48.1666667 84.871407,47.9090909 84.7428139,47.780303 Z M11.7019667,56.9242424 C7.20121029,56.9242424 3.4720121,53.7045455 2.70045386,49.4545455 L20.7034796,49.4545455 C19.9319213,53.7045455 16.2027231,56.9242424 11.7019667,56.9242424 Z M3.08623298,46.8787879 L11.7019667,20.8636364 L20.3177005,46.8787879 L3.08623298,46.8787879 Z M4.11497731,15.4545455 C3.21482602,15.4545455 2.57186082,14.8106061 2.57186082,14.0378788 C2.57186082,13.2651515 3.21482602,12.6212121 4.11497731,12.6212121 L38.4493192,12.6212121 L38.4493192,15.4545455 L4.11497731,15.4545455 Z M69.0544629,82.4242424 L15.816944,82.4242424 L15.816944,75.9848485 C42.3071104,75.9848485 45.3933434,75.9848485 69.0544629,75.9848485 L69.0544629,82.4242424 Z M56.0665658,73.4090909 L28.8048411,73.4090909 L28.8048411,66.8409091 L56.0665658,66.8409091 L56.0665658,73.4090909 Z M43.97882,64.2651515 L40.892587,64.2651515 L40.892587,34.3863636 C41.9213313,34.5151515 42.8214826,34.6439394 43.97882,34.3863636 L43.97882,64.2651515 Z M42.4357035,31.9393939 C39.3494705,31.9393939 36.9062027,29.4924242 36.9062027,26.4015152 C36.9062027,23.4393939 39.3494705,20.8636364 42.4357035,20.8636364 C45.5219365,20.8636364 47.9652042,23.3106061 47.9652042,26.4015152 C47.9652042,29.4924242 45.5219365,31.9393939 42.4357035,31.9393939 Z M40.892587,18.5454545 C40.892587,14.6818182 40.892587,11.719697 40.892587,7.85606061 L42.4357035,4.50757576 L43.97882,7.98484848 C43.97882,11.8484848 43.97882,14.8106061 43.97882,18.6742424 C42.9500756,18.4166667 41.9213313,18.4166667 40.892587,18.5454545 Z M46.5506808,12.6212121 L80.8850227,12.6212121 C81.6565809,12.6212121 82.4281392,13.2651515 82.4281392,14.0378788 C82.4281392,14.8106061 81.6565809,15.4545455 80.7564297,15.4545455 L46.5506808,15.4545455 L46.5506808,12.6212121 Z M73.1694402,20.8636364 L81.785174,46.8787879 L64.5537065,46.8787879 L73.1694402,20.8636364 Z M73.1694402,56.9242424 C68.6686838,56.9242424 64.9394856,53.7045455 64.1679274,49.4545455 L82.1709531,49.4545455 C81.3993949,53.7045455 77.6701967,56.9242424 73.1694402,56.9242424 Z" id="Shape" fill="#FFFFFF" fill-rule="nonzero"></path>
    </g>
</svg>