<?xml version="1.0" encoding="UTF-8"?>
<svg width="85px" height="85px" viewBox="0 0 85 85" version="1.1" xmlns="http://www.w3.org/2000/svg" xmlns:xlink="http://www.w3.org/1999/xlink">
    <!-- Generator: Sketch 51.1 (57501) - http://www.bohemiancoding.com/sketch -->
    <title>subject-socialsciences</title>
    <desc>Created with Sketch.</desc>
    <defs></defs>
    <g id="subject-socialsciences" stroke="none" stroke-width="1" fill="none" fill-rule="evenodd">
        <path d="M42.5,22.4479167 C47.6333333,22.4479167 51.8041667,18.2770833 51.8041667,13.14375 C51.8041667,8.01041667 47.6333333,4 42.5,4 C37.3666667,4 33.1958333,8.17083333 33.1958333,13.3041667 C33.1958333,18.4375 37.3666667,22.4479167 42.5,22.4479167 Z M42.5,7.20833333 C45.86875,7.20833333 48.5958333,9.93541667 48.5958333,13.3041667 C48.5958333,16.6729167 45.86875,19.2395833 42.5,19.2395833 C39.13125,19.2395833 36.4041667,16.5125 36.4041667,13.14375 C36.4041667,9.775 39.13125,7.20833333 42.5,7.20833333 Z" id="Shape" fill="#FFFFFF" fill-rule="nonzero"></path>
        <path d="M66.2416667,25.8166667 C71.0541667,25.8166667 75.0645833,21.80625 75.0645833,16.99375 C75.0645833,12.18125 71.0541667,8.17083333 66.2416667,8.17083333 C61.4291667,8.17083333 57.41875,12.18125 57.41875,16.99375 C57.41875,21.80625 61.26875,25.8166667 66.2416667,25.8166667 Z M66.2416667,11.3791667 C69.2895833,11.3791667 71.85625,13.9458333 71.85625,16.99375 C71.85625,20.0416667 69.2895833,22.6083333 66.2416667,22.6083333 C63.19375,22.6083333 60.6270833,20.0416667 60.6270833,16.99375 C60.6270833,13.9458333 63.0333333,11.3791667 66.2416667,11.3791667 Z" id="Shape" fill="#FFFFFF" fill-rule="nonzero"></path>
        <path d="M71.2145833,29.8270833 L55.0125,29.8270833 C53.2479167,28.0625 50.68125,26.9395833 47.9541667,26.9395833 L37.20625,26.9395833 C34.4791667,26.9395833 31.9125,28.0625 30.1479167,29.8270833 L13.7854167,29.8270833 C8.49166667,29.8270833 4,34.1583333 4,39.6125 L4,59.0229167 C4,59.9854167 4.64166667,60.6270833 5.60416667,60.6270833 L9.93541667,60.6270833 L9.93541667,79.3958333 C9.93541667,80.3583333 10.5770833,81 11.5395833,81 L25.9770833,81 C26.9395833,81 27.58125,80.3583333 27.58125,79.3958333 L27.58125,61.26875 C27.58125,60.30625 26.9395833,59.6645833 25.9770833,59.6645833 C25.0145833,59.6645833 24.3729167,60.30625 24.3729167,61.26875 L24.3729167,77.7916667 L20.3625,77.7916667 L20.3625,62.23125 C20.3625,61.26875 19.7208333,60.6270833 18.7583333,60.6270833 C17.7958333,60.6270833 17.1541667,61.26875 17.1541667,62.23125 L17.1541667,77.7916667 L13.14375,77.7916667 L13.14375,48.1145833 C13.14375,47.1520833 12.5020833,46.5104167 11.5395833,46.5104167 C10.5770833,46.5104167 9.93541667,47.1520833 9.93541667,48.1145833 L9.93541667,57.2583333 L7.20833333,57.2583333 L7.20833333,39.4520833 C7.20833333,35.9229167 10.0958333,32.875 13.7854167,32.875 L27.9020833,32.875 C27.2604167,34.1583333 26.9395833,35.6020833 26.9395833,37.0458333 L26.9395833,57.7395833 C26.9395833,58.7020833 27.58125,59.34375 28.54375,59.34375 L33.35625,59.34375 L33.35625,79.3958333 C33.35625,80.3583333 33.9979167,81 34.9604167,81 L50.2,81 C51.1625,81 51.8041667,80.3583333 51.8041667,79.3958333 L51.8041667,59.34375 L56.6166667,59.34375 C57.5791667,59.34375 58.2208333,58.7020833 58.2208333,57.7395833 L58.2208333,37.0458333 C58.2208333,35.6020833 57.9,34.1583333 57.2583333,32.875 L71.375,32.875 C74.9041667,32.875 77.9520833,35.7625 77.9520833,39.4520833 L77.9520833,57.2583333 L75.225,57.2583333 L75.225,48.1145833 C75.225,47.1520833 74.5833333,46.5104167 73.6208333,46.5104167 C72.6583333,46.5104167 72.0166667,47.1520833 72.0166667,48.1145833 L72.0166667,77.7916667 L68.00625,77.7916667 L68.00625,62.23125 C68.00625,61.26875 67.3645833,60.6270833 66.4020833,60.6270833 C65.4395833,60.6270833 64.7979167,61.26875 64.7979167,62.23125 L64.7979167,77.7916667 L60.7875,77.7916667 L60.7875,61.26875 C60.7875,60.30625 60.1458333,59.6645833 59.1833333,59.6645833 C58.2208333,59.6645833 57.5791667,60.30625 57.5791667,61.26875 L57.5791667,79.3958333 C57.5791667,80.3583333 58.2208333,81 59.1833333,81 L73.6208333,81 C74.5833333,81 75.225,80.3583333 75.225,79.3958333 L75.225,60.6270833 L79.3958333,60.6270833 C80.3583333,60.6270833 81,59.9854167 81,59.0229167 L81,39.4520833 C81,34.1583333 76.66875,29.8270833 71.2145833,29.8270833 Z M54.8520833,56.1354167 L51.64375,56.1354167 L51.64375,46.35 C51.64375,45.3875 51.0020833,44.7458333 50.0395833,44.7458333 C49.0770833,44.7458333 48.4354167,45.3875 48.4354167,46.35 L48.4354167,77.7916667 L44.1041667,77.7916667 L44.1041667,61.26875 C44.1041667,60.30625 43.4625,59.6645833 42.5,59.6645833 C41.5375,59.6645833 40.8958333,60.30625 40.8958333,61.26875 L40.8958333,77.7916667 L36.4041667,77.7916667 L36.4041667,46.35 C36.4041667,45.3875 35.7625,44.7458333 34.8,44.7458333 C33.8375,44.7458333 33.1958333,45.3875 33.1958333,46.35 L33.1958333,56.1354167 L29.9875,56.1354167 L29.9875,37.0458333 C29.9875,33.1958333 33.1958333,29.9875 37.0458333,29.9875 L47.79375,29.9875 C51.64375,29.9875 54.8520833,33.1958333 54.8520833,37.0458333 L54.8520833,56.1354167 Z" id="Shape" fill="#FFFFFF" fill-rule="nonzero"></path>
        <path d="M18.7583333,25.8166667 C23.5708333,25.8166667 27.58125,21.80625 27.58125,16.99375 C27.58125,12.18125 23.5708333,8.17083333 18.7583333,8.17083333 C13.9458333,8.17083333 9.93541667,12.18125 9.93541667,16.99375 C9.93541667,21.80625 13.9458333,25.8166667 18.7583333,25.8166667 Z M18.7583333,11.3791667 C21.80625,11.3791667 24.3729167,13.9458333 24.3729167,16.99375 C24.3729167,20.0416667 21.80625,22.6083333 18.7583333,22.6083333 C15.7104167,22.6083333 13.14375,20.0416667 13.14375,16.99375 C13.14375,13.9458333 15.7104167,11.3791667 18.7583333,11.3791667 Z" id="Shape" fill="#FFFFFF" fill-rule="nonzero"></path>
    </g>
</svg>