<?xml version="1.0" encoding="UTF-8"?>
<svg width="85px" height="85px" viewBox="0 0 85 85" version="1.1" xmlns="http://www.w3.org/2000/svg" xmlns:xlink="http://www.w3.org/1999/xlink">
    <!-- Generator: Sketch 51.1 (57501) - http://www.bohemiancoding.com/sketch -->
    <title>subject-tech</title>
    <desc>Created with Sketch.</desc>
    <defs></defs>
    <g id="subject-tech" stroke="none" stroke-width="1" fill="none" fill-rule="evenodd">
        <g id="Group" transform="translate(42.000000, 42.500000) scale(-1, 1) translate(-42.000000, -42.500000) translate(3.000000, 4.000000)" fill="#FFFFFF" fill-rule="nonzero">
            <path d="M32.1649485,42.35 C34.4164948,44.5958333 37.4721649,46.0395833 40.0453608,46.0395833 C41.814433,46.0395833 43.4226804,45.3979167 44.3876289,44.275 C45.8350515,42.83125 46.4783505,40.5854167 45.9958763,38.1791667 C45.5134021,35.9333333 44.3876289,33.6875 42.457732,31.9229167 C40.2061856,29.6770833 37.1505155,28.2333333 34.5773196,28.2333333 C32.8082474,28.2333333 31.2,28.875 30.2350515,29.9979167 C27.3402062,33.0458333 28.1443299,38.3395833 32.1649485,42.35 Z M32.4865979,32.4041667 C33.1298969,31.7625 33.9340206,31.6020833 34.5773196,31.6020833 C36.3463918,31.6020833 38.4371134,32.5645833 40.2061856,34.3291667 C41.4927835,35.6125 42.457732,37.3770833 42.7793814,38.98125 C42.9402062,39.7833333 43.1010309,41.2270833 42.1360825,42.1895833 C41.4927835,42.83125 40.6886598,42.9916667 40.0453608,42.9916667 C38.2762887,42.9916667 36.185567,42.0291667 34.4164948,40.2645833 C31.843299,37.5375 30.8783505,34.0083333 32.4865979,32.4041667 Z" id="Shape"></path>
            <path d="M76.7134021,30.9604167 L64.6515464,18.9291667 C64.3298969,18.6083333 63.8474227,18.4479167 63.3649485,18.4479167 L60.6309278,18.6083333 L55.1628866,13.1541667 C52.9113402,10.9083333 49.0515464,10.9083333 46.8,13.1541667 C45.0309278,14.91875 44.7092784,17.4854167 45.6742268,19.73125 L41.9752577,20.0520833 L36.185567,14.2770833 C27.0185567,5.13333333 14.6350515,0 1.60824742,0 C0.643298969,0 0,0.802083333 0,1.60416667 C0,14.5979167 5.14639175,26.95 14.3134021,36.09375 L20.1030928,41.86875 L19.7814433,45.5583333 C17.6907216,44.5958333 14.956701,44.9166667 13.1876289,46.68125 C12.0618557,47.8041667 11.4185567,49.2479167 11.4185567,50.8520833 C11.4185567,52.45625 12.0618557,53.9 13.1876289,55.0229167 L18.6556701,60.4770833 L18.4948454,63.2041667 C18.4948454,63.6854167 18.6556701,64.1666667 18.9773196,64.4875 L31.0391753,76.51875 C32.4865979,77.6416667 33.4515464,76.51875 33.6123711,75.8770833 L39.0804124,60.7979167 L45.9958763,67.6958333 C46.3175258,68.0166667 46.8,68.1770833 47.1216495,68.1770833 C47.6041237,68.1770833 47.9257732,68.0166667 48.2474227,67.6958333 L50.9814433,64.96875 L52.5896907,66.5729167 C53.8762887,67.85625 55.4845361,68.4979167 57.0927835,68.4979167 C58.8618557,68.4979167 60.4701031,67.85625 61.5958763,66.5729167 L66.742268,61.4395833 C68.028866,60.15625 68.6721649,58.5520833 68.6721649,56.9479167 C68.6721649,55.1833333 68.028866,53.5791667 66.742268,52.45625 L65.1340206,50.8520833 L67.8680412,48.125 C68.5113402,47.4833333 68.5113402,46.5208333 67.8680412,45.8791667 L61.1134021,38.98125 L76.2309278,33.5270833 C76.7134021,33.3666667 77.1958763,32.8854167 77.1958763,32.4041667 C77.356701,31.9229167 77.0350515,31.28125 76.7134021,30.9604167 Z M18.9773196,56.4666667 L15.6,52.9375 C15.1175258,52.45625 14.1525773,50.53125 15.6,49.2479167 C16.5649485,48.2854167 18.3340206,48.2854167 19.2989691,49.2479167 C19.2989691,49.2479167 19.4597938,49.4083333 19.6206186,49.4083333 L18.9773196,56.4666667 Z M49.3731959,15.5604167 C50.3381443,14.5979167 52.1072165,14.5979167 53.0721649,15.5604167 L56.6103093,19.0895833 L49.5340206,19.73125 C49.5340206,19.5708333 49.3731959,19.5708333 49.3731959,19.4104167 C48.2474227,18.2875 48.2474227,16.5229167 49.3731959,15.5604167 Z M3.21649485,3.20833333 C10.7752577,3.52916667 18.0123711,5.61458333 24.2845361,9.30416667 C23.3195876,16.84375 16.7257732,23.4208333 9.16701031,24.3833333 C5.62886598,17.9666667 3.53814433,10.7479167 3.21649485,3.20833333 Z M31.5216495,72.5083333 L21.8721649,62.8833333 L23.1587629,44.9166667 L36.6680412,58.3916667 L31.5216495,72.5083333 Z M65.4556701,56.9479167 C65.4556701,57.75 65.1340206,58.5520833 64.4907216,59.19375 L59.3443299,64.3270833 C58.057732,65.6104167 55.9670103,65.6104167 54.8412371,64.3270833 L53.2329897,62.7229167 L62.8824742,53.0979167 L64.4907216,54.7020833 C65.1340206,55.34375 65.4556701,56.1458333 65.4556701,56.9479167 Z M64.4907216,47.0020833 L47.1216495,64.3270833 C47.1216495,64.3270833 13.6701031,31.7625 11.0969072,27.2708333 C18.9773196,25.6666667 25.7319588,18.9291667 27.3402062,11.06875 C29.7525773,12.6729167 31.843299,14.4375 33.9340206,16.5229167 L64.4907216,47.0020833 Z M58.5402062,36.575 L45.0309278,23.1 L62.8824742,21.65625 L72.5319588,31.28125 L58.5402062,36.575 Z" id="Shape"></path>
        </g>
    </g>
</svg>