<?xml version="1.0" encoding="UTF-8"?>
<svg width="85px" height="85px" viewBox="0 0 85 85" version="1.1" xmlns="http://www.w3.org/2000/svg" xmlns:xlink="http://www.w3.org/1999/xlink">
    <!-- Generator: Sketch 51.1 (57501) - http://www.bohemiancoding.com/sketch -->
    <title>subject-architecture</title>
    <desc>Created with Sketch.</desc>
    <defs></defs>
    <g id="subject-architecture" stroke="none" stroke-width="1" fill="none" fill-rule="evenodd">
        <path d="M75.70625,60.7875 L75.3854167,60.1458333 L56.9375,41.6979167 L80.51875,18.1166667 C81.1604167,17.475 81.1604167,16.5125 80.51875,15.8708333 L69.1291667,4.48125 C68.4875,3.83958333 67.525,3.83958333 66.8833333,4.48125 L43.3020833,28.0625 L22.4479167,7.20833333 C20.3625,5.12291667 17.7958333,4 14.9083333,4 C11.8604167,4 9.13333333,5.12291667 7.20833333,7.20833333 C5.12291667,9.13333333 4,11.8604167 4,14.7479167 C4,17.6354167 5.12291667,20.3625 7.20833333,22.2875 L28.0625,43.1416667 L4.48125,66.8833333 C3.83958333,67.525 3.83958333,68.4875 4.48125,69.1291667 L15.8708333,80.51875 C16.1916667,80.8395833 16.6729167,81 16.99375,81 C17.475,81 17.7958333,80.8395833 18.1166667,80.51875 L41.6979167,56.9375 L60.1458333,75.3854167 C60.30625,75.5458333 60.6270833,75.70625 60.7875,75.8666667 L79.3958333,81 C79.3958333,81 79.3958333,81 79.3958333,81 C80.3583333,81 81,80.3583333 81,79.3958333 L75.70625,60.7875 Z M71.0541667,60.4666667 C68.8083333,61.1083333 67.04375,62.23125 65.6,63.3541667 L50.5208333,48.275 L54.6916667,44.1041667 L71.0541667,60.4666667 Z M40.8958333,30.3083333 L36.725,34.4791667 L22.1270833,19.88125 L26.4583333,15.7104167 L40.8958333,30.3083333 Z M9.45416667,20.0416667 C6.56666667,17.3145833 6.40625,12.3416667 9.45416667,9.45416667 C12.3416667,6.56666667 17.475,6.56666667 20.0416667,9.45416667 L24.0520833,13.4645833 L13.4645833,24.0520833 L9.45416667,20.0416667 Z M15.7104167,26.4583333 L19.88125,22.2875 L34.4791667,36.8854167 L30.3083333,40.8958333 L15.7104167,26.4583333 Z M39.6125,54.6916667 L34.9604167,50.0395833 C34.31875,49.3979167 33.35625,49.3979167 32.7145833,50.0395833 C32.0729167,50.68125 32.0729167,51.64375 32.7145833,52.2854167 L37.3666667,56.9375 L33.8375,60.4666667 L30.7895833,57.41875 C30.1479167,56.7770833 29.1854167,56.7770833 28.54375,57.41875 C27.9020833,58.0604167 27.9020833,59.0229167 28.54375,59.6645833 L31.5916667,62.7125 L28.0625,66.2416667 L25.0145833,63.19375 C24.3729167,62.5520833 23.4104167,62.5520833 22.76875,63.19375 C22.1270833,63.8354167 22.1270833,64.7979167 22.76875,65.4395833 L25.8166667,68.4875 L22.2875,72.0166667 L17.6354167,67.3645833 C16.8333333,66.5625 15.8708333,66.5625 15.2291667,67.2041667 C14.5875,67.8458333 14.5875,68.8083333 15.2291667,69.45 L19.88125,74.1020833 L16.99375,76.9895833 L7.85,67.8458333 L68.00625,7.85 L77.15,16.99375 L74.2625,19.88125 L69.45,15.2291667 C68.8083333,14.5875 67.8458333,14.5875 67.2041667,15.2291667 C66.5625,15.8708333 66.5625,16.8333333 67.2041667,17.475 L71.85625,22.1270833 L68.3270833,25.65625 L65.2791667,22.6083333 C64.6375,21.9666667 63.675,21.9666667 63.0333333,22.6083333 C62.3916667,23.25 62.3916667,24.2125 63.0333333,24.8541667 L66.08125,27.9020833 L62.5520833,31.43125 L59.5041667,28.3833333 C58.8625,27.7416667 57.9,27.7416667 57.2583333,28.3833333 C56.6166667,29.025 56.6166667,29.9875 57.2583333,30.6291667 L60.30625,33.6770833 L56.9375,37.20625 L52.125,32.5541667 C51.4833333,31.9125 50.5208333,31.9125 49.8791667,32.5541667 C49.2375,33.1958333 49.2375,34.1583333 49.8791667,34.8 L54.53125,39.4520833 L51.0020833,42.98125 L47.9541667,39.9333333 C47.3125,39.2916667 46.35,39.2916667 45.7083333,39.9333333 C45.0666667,40.575 45.0666667,41.5375 45.7083333,42.1791667 L48.75625,45.2270833 L45.3875,48.9166667 L42.3395833,45.7083333 C41.6979167,45.0666667 40.7354167,45.0666667 40.09375,45.7083333 C39.4520833,46.35 39.4520833,47.3125 40.09375,47.9541667 L43.1416667,51.0020833 L39.6125,54.6916667 Z M60.6270833,71.2145833 L43.94375,54.6916667 L48.1145833,50.5208333 L63.3541667,65.7604167 C61.9104167,67.6854167 60.9479167,69.7708333 60.6270833,71.2145833 Z M63.3541667,73.1395833 C63.8354167,70.89375 65.6,64.9583333 72.9791667,63.19375 L76.9895833,77.15 L63.3541667,73.1395833 Z" id="Shape" fill="#FFFFFF" fill-rule="nonzero"></path>
    </g>
</svg>