<?xml version="1.0" encoding="UTF-8"?>
<svg width="85px" height="85px" viewBox="0 0 85 85" version="1.1" xmlns="http://www.w3.org/2000/svg" xmlns:xlink="http://www.w3.org/1999/xlink">
    <!-- Generator: Sketch 51.1 (57501) - http://www.bohemiancoding.com/sketch -->
    <title>subject-business</title>
    <desc>Created with Sketch.</desc>
    <defs></defs>
    <g id="subject-business" stroke="none" stroke-width="1" fill="none" fill-rule="evenodd">
        <g id="Group" transform="translate(4.000000, 17.000000)" fill="#FFFFFF" fill-rule="nonzero">
            <path d="M75.3958333,47.8125 L72.1875,47.8125 L72.1875,3.1875 L75.3958333,3.1875 C76.3583333,3.1875 77,2.55 77,1.59375 C77,0.6375 76.3583333,0 75.3958333,0 L1.60416667,0 C0.641666667,0 0,0.6375 0,1.59375 C0,2.55 0.641666667,3.1875 1.60416667,3.1875 L4.8125,3.1875 L4.8125,47.8125 L1.60416667,47.8125 C0.641666667,47.8125 0,48.45 0,49.40625 C0,50.3625 0.641666667,51 1.60416667,51 L75.3958333,51 C76.3583333,51 77,50.3625 77,49.40625 C77,48.45 76.3583333,47.8125 75.3958333,47.8125 Z M68.9791667,47.8125 L8.02083333,47.8125 L8.02083333,3.1875 L68.9791667,3.1875 L68.9791667,47.8125 Z" id="Shape"></path>
            <path d="M62.3784331,14 L49.0638498,16.23125 C48.2617664,16.390625 47.6200998,17.1875 47.7805164,18.14375 C47.9409331,18.940625 48.7430164,19.578125 49.7055164,19.41875 L57.7263498,17.984375 L43.7700998,31.053125 L27.8888498,17.825 C27.0867664,17.1875 26.2846831,17.346875 25.6430164,17.984375 L12.3284331,35.0375 C11.8471831,35.675 11.8471831,36.790625 12.6492664,37.26875 C13.4513498,37.746875 14.2534331,37.746875 14.8950998,36.95 L27.0867664,21.33125 L42.6471831,34.559375 C43.2888498,35.0375 44.2513498,35.0375 44.7325998,34.559375 L60.2930164,20.215625 L58.8492664,28.821875 C58.6888498,29.61875 59.3305164,30.575 60.1325998,30.734375 C60.2930164,30.734375 60.2930164,30.734375 60.4534331,30.734375 C61.2555164,30.734375 61.8971831,30.25625 62.0575998,29.459375 L64.3034331,16.23125 C64.3034331,14.478125 63.5013498,14 62.3784331,14 Z" id="Shape"></path>
        </g>
    </g>
</svg>