<?xml version="1.0" encoding="UTF-8"?>
<svg width="46px" height="46px" viewBox="0 0 46 46" version="1.1" xmlns="http://www.w3.org/2000/svg" xmlns:xlink="http://www.w3.org/1999/xlink">
    <!-- Generator: Sketch 50.2 (55047) - http://www.bohemiancoding.com/sketch -->
    <title>facebook-hover</title>
    <desc>Created with Sketch.</desc>
    <defs></defs>
    <g id="Onboarding" stroke="none" strokeWidth="1" fill="none" fillRule="evenodd">
        <g id="Socials_hover">
            <g id="facebook">
                <path d="M23,46 C10.2974508,46 0,35.7025492 0,23 C0,10.2974508 10.2974508,0 23,0 C35.7025492,0 46,10.2974508 46,23 C46,35.7025492 35.7025492,46 23,46 Z" id="Oval-2" fill="#373838" fillRule="nonzero"></path>
                <path d="M24.7759129,34.2553191 L24.7759129,23.4881011 L27.9608993,23.4881011 L28.3829787,19.7776581 L24.7759129,19.7776581 L24.7813242,17.9205456 C24.7813242,16.952805 24.8798545,16.4342674 26.369308,16.4342674 L28.3604318,16.4342674 L28.3604318,12.7234043 L25.1749944,12.7234043 C21.348772,12.7234043 20.0020408,14.5233683 20.0020408,17.5503417 L20.0020408,19.7780784 L17.6170213,19.7780784 L17.6170213,23.4885213 L20.0020408,23.4885213 L20.0020408,34.2553191 L24.7759129,34.2553191 Z" id="Oval-1-path" fill="#FFFFFF"></path>
            </g>
        </g>
    </g>
</svg>