<?xml version="1.0" encoding="UTF-8"?>
<svg width="46px" height="46px" viewBox="0 0 46 46" version="1.1" xmlns="http://www.w3.org/2000/svg" xmlns:xlink="http://www.w3.org/1999/xlink">
    <!-- Generator: Sketch 50.2 (55047) - http://www.bohemiancoding.com/sketch -->
    <title>instragram</title>
    <desc>Created with Sketch.</desc>
    <defs></defs>
    <g id="Onboarding" stroke="none" strokeWidth="1" fill="none" fillRule="evenodd">
        <g id="Socials" transform="translate(-104.000000, 0.000000)" fill="#373838">
            <g id="instagram" transform="translate(104.000000, 0.000000)">
                <g id="Group-17" transform="translate(13.702128, 13.702128)">
                    <path d="M18.6819683,17.8805667 C18.5325319,18.6846179 17.9077857,19.3514466 17.1432269,19.5210883 C17.0469887,19.5428873 16.9494139,19.5571406 16.8521064,19.5744681 L1.87129787,19.5744681 C1.83146596,19.5677607 1.79136672,19.5596559 1.75153481,19.5546254 C0.927896426,19.443953 0.23551617,18.7866265 0.0521290213,17.9386976 C0.0307427234,17.8397633 0.0171090213,17.7394316 0,17.6399383 L0,1.93536826 C0.00614851064,1.89875694 0.013366383,1.86242511 0.0181782979,1.82581379 C0.136337447,0.947142638 0.750123149,0.248733277 1.57964272,0.051144 C1.66893038,0.0299039149 1.76008928,0.017048 1.85071353,0 L16.8726907,0 C16.9074433,0.00642791489 16.9419287,0.014532766 16.977216,0.0192838298 C17.8270526,0.14085566 18.5191654,0.821658128 18.6830377,1.69893191 C18.6990774,1.7844514 18.7103052,1.87052987 18.7234043,1.95632894 L18.7234043,17.6181391 C18.7097706,17.7053356 18.6980081,17.7936498 18.6819683,17.8805667 Z M2.02581362,16.6799397 C2.02581362,17.0966378 2.37093438,17.4549254 2.76952085,17.4549254 C7.16332817,17.4552049 11.5568682,17.4552049 15.9506755,17.4549254 C16.3530045,17.4549254 16.696254,17.0971968 16.696254,16.6774244 C16.6965214,13.784014 16.696254,10.890883 16.696254,7.99775209 L16.696254,7.93766477 L14.9088973,7.93766477 C15.1612551,8.78084255 15.2387803,9.63855302 15.1398689,10.5127526 C15.0404228,11.3872316 14.7709559,12.2010644 14.3320029,12.9525742 C13.8927826,13.7049224 13.3233734,14.3281529 12.6261812,14.824222 C10.8190421,16.1109275 8.4398206,16.2241151 6.52227498,15.0989465 C5.55294272,14.5307727 4.79185915,13.7384595 4.26121251,12.7175352 C3.46965353,11.194114 3.34320723,9.5952343 3.80755643,7.9362674 C3.21462238,7.93682638 2.62409421,7.93682638 2.02554621,7.93682638 L2.02554621,7.98964723 C2.02554621,10.8864114 2.02527889,13.7831756 2.02581362,16.6799397 Z M9.27468681,13.7515948 C11.3945999,13.7991057 13.1092434,12.0283485 13.1538872,9.87470987 C13.1996003,7.65371762 11.4860262,5.81924009 9.36183583,5.82063745 C7.28522987,5.81924009 5.59705183,7.5659623 5.56791311,9.72714681 C5.53797234,11.9464622 7.23737804,13.7057609 9.27468681,13.7515948 Z M16.6959867,4.23964426 C16.696254,3.62172374 16.696254,3.00352383 16.6959867,2.3856034 C16.6959867,1.94235515 16.3604897,1.58965694 15.9370418,1.58937753 C15.347583,1.58909804 14.7581241,1.58881855 14.168398,1.58937753 C13.7460193,1.58993643 13.409453,1.94347302 13.4091857,2.38672128 C13.4089184,2.99933166 13.4073144,3.61194213 13.4113243,4.224832 C13.411859,4.31622051 13.4284334,4.41124221 13.4562355,4.49787966 C13.5620974,4.82402757 13.8478714,5.02413209 14.1978041,5.02580894 C14.4822414,5.02636791 14.7666786,5.02552945 15.0513832,5.02552945 C15.3593454,5.02189634 15.6683769,5.02804477 15.9766064,5.02021949 C16.3730541,5.00987889 16.6959867,4.65466545 16.6959867,4.23964426 Z" id="Combined-Shape"></path>
                </g>
                <path d="M23,46 C10.2974508,46 0,35.7025492 0,23 C0,10.2974508 10.2974508,0 23,0 C35.7025492,0 46,10.2974508 46,23 C46,35.7025492 35.7025492,46 23,46 Z M23,44.0425532 C34.6214812,44.0425532 44.0425532,34.6214812 44.0425532,23 C44.0425532,11.3785188 34.6214812,1.95744681 23,1.95744681 C11.3785188,1.95744681 1.95744681,11.3785188 1.95744681,23 C1.95744681,34.6214812 11.3785188,44.0425532 23,44.0425532 Z" id="Oval-2-Copy-2" fillRule="nonzero"></path>
            </g>
        </g>
    </g>
</svg>