<?xml version="1.0" encoding="UTF-8"?>
<svg width="46px" height="46px" viewBox="0 0 46 46" version="1.1" xmlns="http://www.w3.org/2000/svg" xmlns:xlink="http://www.w3.org/1999/xlink">
    <!-- Generator: Sketch 50.2 (55047) - http://www.bohemiancoding.com/sketch -->
    <title>linkedin</title>
    <desc>Created with Sketch.</desc>
    <defs></defs>
    <g id="Onboarding" stroke="none" strokeWidth="1" fill="none" fillRule="evenodd">
        <g id="Socials" transform="translate(-154.000000, 0.000000)" fill="#373838">
            <g id="linkedin" transform="translate(154.000000, 0.000000)">
                <path d="M23,46 C10.2974508,46 0,35.7025492 0,23 C0,10.2974508 10.2974508,0 23,0 C35.7025492,0 46,10.2974508 46,23 C46,35.7025492 35.7025492,46 23,46 Z M23,44.0425532 C34.6214812,44.0425532 44.0425532,34.6214812 44.0425532,23 C44.0425532,11.3785188 34.6214812,1.95744681 23,1.95744681 C11.3785188,1.95744681 1.95744681,11.3785188 1.95744681,23 C1.95744681,34.6214812 11.3785188,44.0425532 23,44.0425532 Z" id="Oval-2-Copy-3" fillRule="nonzero"></path>
                <g id="Group-20" transform="translate(12.723404, 10.765957)">
                    <g id="Group-19">
                        <polygon id="Oval-1-path" points="0 6.85106383 0 21.5319149 4.89361702 21.5319149 4.89361702 6.85106383"></polygon>
                        <path d="M2.46092475,0 C0.972851015,0 0,1.06275767 0,2.45807577 C0,3.82449197 0.94409721,4.91785158 2.40445962,4.91785158 L2.43225785,4.91785158 C3.94899857,4.91785158 4.89361702,3.82449197 4.89361702,2.45807577 C4.86538446,1.06275767 3.94899857,0 2.46092475,0 Z" id="Oval-1-path"></path>
                    </g>
                    <path d="M16.5953905,6.85106383 C14.1478526,6.85106383 13.0520485,8.23230877 12.4402101,9.20127704 L12.4402101,7.18560764 L7.82978723,7.18560764 C7.89054766,8.52094966 7.82978723,21.4163787 7.82978723,21.4163787 L12.4402101,21.4163787 L12.4402101,13.4687421 C12.4402101,13.0434312 12.47013,12.6191593 12.592019,12.3146507 C12.9251882,11.4649735 13.6837722,10.585261 14.9573463,10.585261 C16.6261389,10.585261 17.2932141,11.8901899 17.2932141,13.8025304 L17.2932141,21.4160009 L21.9029005,21.4160009 L21.9030846,13.2565117 C21.9030846,8.88543438 19.6288977,6.85106383 16.5953905,6.85106383 Z" id="Oval-1-path"></path>
                </g>
            </g>
        </g>
    </g>
</svg>