<?xml version="1.0" encoding="UTF-8"?>
<svg width="46px" height="46px" viewBox="0 0 46 46" version="1.1" xmlns="http://www.w3.org/2000/svg" xmlns:xlink="http://www.w3.org/1999/xlink">
    <!-- Generator: Sketch 50.2 (55047) - http://www.bohemiancoding.com/sketch -->
    <title>twitter</title>
    <desc>Created with Sketch.</desc>
    <defs></defs>
    <g id="Onboarding" stroke="none" strokeWidth="1" fill="none" fillRule="evenodd">
        <g id="Socials" transform="translate(-51.000000, 0.000000)" fill="#373838">
            <g id="twitter" transform="translate(51.000000, 0.000000)">
                <path d="M23.2066489,19.1779049 L23.2490798,19.9091035 L22.5418981,19.819569 C19.967757,19.4763533 17.7189194,18.3124046 15.8095289,16.3575677 L14.8760492,15.3876105 L14.6356074,16.1038865 C14.1264366,17.7005854 14.4517402,19.3868188 15.5125126,20.5209226 C16.0782579,21.1476643 15.9509652,21.2371988 14.9750546,20.8641383 C14.6356074,20.7447589 14.3385911,20.6552244 14.3103038,20.6999917 C14.2112985,20.8044486 14.5507456,22.1623887 14.8194746,22.6995959 C15.1872091,23.4457169 15.9368216,24.1769153 16.7571523,24.6096655 L17.4501903,24.9528811 L16.6298596,24.9678036 C15.8378162,24.9678036 15.8095289,24.982726 15.8943908,25.2960967 C16.1772634,26.2660541 17.2946104,27.295701 18.5392501,27.7433735 L19.4161552,28.0567444 L18.6523991,28.5342618 C17.5209085,29.2206931 16.191407,29.608676 14.8619056,29.6385209 C14.2254421,29.6534432 13.7021277,29.7131329 13.7021277,29.7579002 C13.7021277,29.9071243 15.4276508,30.7427799 16.4318488,31.0710731 C19.4444425,32.0410303 23.0227816,31.6232025 25.7100718,29.966814 C27.6194623,28.7879429 29.5288528,26.4451231 30.4199016,24.1769153 C30.9007851,22.9681994 31.3816686,20.7596814 31.3816686,19.7001895 C31.3816686,19.0137583 31.4240995,18.9242238 32.2161429,18.1034908 C32.6828828,17.6259733 33.1213354,17.1036887 33.2061972,16.9544644 C33.3476335,16.6709385 33.33349,16.6709385 32.6121647,16.9246196 C31.4099559,17.3722922 31.2402322,17.3126025 31.8342648,16.6410936 C32.2727174,16.1635762 32.7960319,15.2980759 32.7960319,15.0443948 C32.7960319,14.9996275 32.5838774,15.0742397 32.3434356,15.2085414 C32.0888502,15.3577656 31.5231049,15.5816019 31.0987959,15.7159036 L30.3350398,15.9695847 L29.6420017,15.4771449 C29.2601236,15.2085414 28.7226657,14.910093 28.439793,14.8205585 C27.7184677,14.6116446 26.6152644,14.6414895 25.9646572,14.8802482 C24.1967032,15.551757 23.0793561,17.2827577 23.2066489,19.1779049 C23.2066489,19.1779049 23.0793561,17.2827577 23.2066489,19.1779049 Z" id="Oval-1-path"></path>
                <path d="M23,46 C10.2974508,46 0,35.7025492 0,23 C0,10.2974508 10.2974508,0 23,0 C35.7025492,0 46,10.2974508 46,23 C46,35.7025492 35.7025492,46 23,46 Z M23,44.0425532 C34.6214812,44.0425532 44.0425532,34.6214812 44.0425532,23 C44.0425532,11.3785188 34.6214812,1.95744681 23,1.95744681 C11.3785188,1.95744681 1.95744681,11.3785188 1.95744681,23 C1.95744681,34.6214812 11.3785188,44.0425532 23,44.0425532 Z" id="Oval-2-Copy" fillRule="nonzero"></path>
            </g>
        </g>
    </g>
</svg>