<?xml version="1.0" encoding="UTF-8"?>
<svg width="167px" height="21px" viewBox="0 0 167 21" version="1.1" xmlns="http://www.w3.org/2000/svg" xmlns:xlink="http://www.w3.org/1999/xlink">
    <!-- Generator: Sketch 52.5 (67469) - http://www.bohemiancoding.com/sketch -->
    <title>Group 7</title>
    <desc>Created with Sketch.</desc>
    <g id="Design" stroke="none" stroke-width="1" fill="none" fill-rule="evenodd">
        <g id="component-nav-bar" transform="translate(-216.000000, -72.000000)">
            <g id="Group" transform="translate(180.000000, 51.000000)">
                <g id="Group-31-Copy-2">
                    <g id="Group-7" transform="translate(36.000000, 21.000000)">
                        <path d="M0.84,16 L0.84,15.96 C1.42,14.54 1.64,13.72 1.64,11.78 L1.64,5.58 C1.64,3.62 1.42,2.82 0.84,1.4 L0.84,1.36 L6.7,1.36 C11.22,1.36 12.6,3.08 12.6,5.38 C12.6,7.92 10.84,10 6.3,10 L5.22,10 L5.22,11.78 C5.22,13.7 5.42,14.54 6.04,15.96 L6.04,16 L0.84,16 Z M5.82,1.82 C5.66,1.82 5.46,1.82 5.22,1.84 L5.22,9.54 L5.8,9.54 C8.18,9.54 8.94,7.24 8.94,5.38 C8.94,3.26 7.98,1.82 5.82,1.82 Z M17.32,6.3 C16.28,6.3 15.76,7.96 15.76,9.78 L18.6,9.74 L18.6,8.98 C18.6,7.1 18.1,6.3 17.32,6.3 Z M21.7,13.14 C21.16,15.02 19.64,16.3 17.36,16.3 C14.34,16.3 12.5,14.1 12.5,11.3 C12.5,8.16 14.66,5.94 17.44,5.94 C20.24,5.94 21.76,8.16 21.72,10.2 L15.76,10.18 C15.86,13.12 17.26,14.04 19.02,14.04 C20.4,14.04 21.24,13.48 21.6,13.08 L21.7,13.14 Z M27.32,16 L23.14,16 L23.14,15.96 C23.46,14.98 23.62,14.18 23.62,12.48 L23.62,10.22 C23.62,8.74 23.34,7.88 22.62,7.04 L22.62,7 L26.76,5.84 L26.76,8.26 C27.6,7.4 28.58,5.82 30.3,5.94 L29.94,9.3 L29.84,9.3 C29.34,8.62 28.26,8.12 27.76,8.12 C27.46,8.12 27.12,8.36 26.84,8.7 L26.84,12.48 C26.84,14.14 27,14.98 27.32,15.96 L27.32,16 Z M31.34,16 L31.34,15.96 C31.62,15.16 31.82,14.46 31.82,12.86 L31.82,4.8 C31.82,3.3 31.54,2.46 30.82,1.62 L30.82,1.58 L35.04,0.42 L35.04,12.86 C35.04,14.42 35.24,15.16 35.52,15.96 L35.52,16 L31.34,16 Z M41.36,6.3 C40.32,6.3 39.8,7.96 39.8,9.78 L42.64,9.74 L42.64,8.98 C42.64,7.1 42.14,6.3 41.36,6.3 Z M45.74,13.14 C45.2,15.02 43.68,16.3 41.4,16.3 C38.38,16.3 36.54,14.1 36.54,11.3 C36.54,8.16 38.7,5.94 41.48,5.94 C44.28,5.94 45.8,8.16 45.76,10.2 L39.8,10.18 C39.9,13.12 41.3,14.04 43.06,14.04 C44.44,14.04 45.28,13.48 45.64,13.08 L45.74,13.14 Z M51.24,12.54 C52.12,12.54 52.48,11.38 52.48,9.44 C52.48,7.46 52.14,6.3 51.22,6.3 C50.28,6.3 50,7.46 50,9.44 C50,11.38 50.34,12.54 51.24,12.54 Z M56.88,17.22 C56.86,19.28 54.7,20.6 50.96,20.6 C48.08,20.6 46.3,19.84 46.3,18.6 C46.3,17.72 47.2,17.14 48.2,16.92 C47.2,16.56 46.7,15.9 46.7,14.94 C46.7,13.44 47.9,12.66 48.86,12.36 C47.66,11.76 46.9,10.68 46.9,9.44 C46.9,7.46 48.7,5.94 51.22,5.94 C52.36,5.94 53.36,6.26 54.12,6.8 L56.88,5.08 L56.92,5.12 L56.92,7.38 L56.84,7.38 L54.5,7.1 C55.16,7.7 55.56,8.52 55.56,9.44 C55.56,11.38 53.76,12.9 51.24,12.9 C50.46,12.9 49.74,12.74 49.12,12.48 C48.86,12.68 48.74,12.94 48.74,13.26 C48.74,13.92 49.22,14.2 50.56,14.26 L52.34,14.34 C55.2,14.5 56.9,15.44 56.88,17.22 Z M51.66,20.08 C53.76,20.08 54.88,19.48 54.88,18.56 C54.88,17.76 54.02,17.46 51.94,17.34 L49.96,17.24 C49.4,17.2 48.92,17.14 48.5,17.02 C48.34,17.26 48.18,17.6 48.18,18.08 C48.18,19.52 49.68,20.08 51.66,20.08 Z M62.4,16.3 C59.46,16.3 57.02,13.92 57.02,11.14 C57.02,8.36 59.46,5.94 62.4,5.94 C65.34,5.94 67.78,8.36 67.78,11.14 C67.78,13.92 65.34,16.3 62.4,16.3 Z M62.4,15.92 C63.82,15.92 64.46,13.98 64.46,11.14 C64.46,8.3 63.82,6.32 62.4,6.32 C60.96,6.32 60.34,8.3 60.34,11.14 C60.34,13.98 60.98,15.92 62.4,15.92 Z" id="Perlego" fill="#373838"></path>
                        <path d="M72.84,16 L72.84,15.96 C73.42,14.54 73.64,13.72 73.64,11.78 L73.64,5.58 C73.64,3.62 73.42,2.82 72.84,1.4 L72.84,1.36 L78.7,1.36 C83.22,1.36 84.6,3.08 84.6,5.38 C84.6,7.92 82.84,10 78.3,10 L77.22,10 L77.22,11.78 C77.22,13.7 77.42,14.54 78.04,15.96 L78.04,16 L72.84,16 Z M77.82,1.82 C77.66,1.82 77.46,1.82 77.22,1.84 L77.22,9.54 L77.8,9.54 C80.18,9.54 80.94,7.24 80.94,5.38 C80.94,3.26 79.98,1.82 77.82,1.82 Z M92.08,14.08 C91.64,14.92 90.56,16.3 88.8,16.3 C87.08,16.3 86.1,15.04 86.1,13.12 L86.1,8.58 C86.1,7.38 85.8,6.88 85.34,6.32 L85.34,6.26 L89.3,6.26 L89.3,13.14 C89.3,13.96 89.68,14.64 90.58,14.64 C91.24,14.64 91.72,14.22 92.04,13.66 L92.04,8.56 C92.04,7.36 91.76,6.84 91.28,6.3 L91.28,6.26 L95.26,6.26 L95.26,11.84 C95.26,14.08 95.54,14.62 96.26,15.34 L96.26,15.38 L92.14,16.28 L92.14,14.1 L92.08,14.08 Z M102.44,16.3 C100.86,16.3 99.7,15.84 98.98,15.3 L97.78,16.06 L97.58,16.06 L97.58,4.8 C97.58,3.3 97.3,2.46 96.58,1.62 L96.58,1.58 L100.8,0.42 L100.8,7.52 L100.86,7.52 C101.44,6.74 102.48,5.94 103.98,5.94 C106.34,5.94 107.88,7.94 107.88,10.94 C107.88,13.96 106.14,16.3 102.44,16.3 Z M102.66,15.94 C104.02,15.94 104.54,14.16 104.54,11.56 C104.52,8.74 103.74,7.56 102.26,7.56 C101.64,7.56 101.14,7.76 100.8,8 L100.8,12.82 C100.8,15.1 101.76,15.94 102.66,15.94 Z M109,16 L109,15.96 C109.28,15.16 109.48,14.46 109.48,12.86 L109.48,4.8 C109.48,3.3 109.2,2.46 108.48,1.62 L108.48,1.58 L112.7,0.42 L112.7,12.86 C112.7,14.42 112.9,15.16 113.18,15.96 L113.18,16 L109,16 Z M118.16,2.9 C118.16,3.86 117.36,4.64 116.4,4.64 C115.44,4.64 114.68,3.86 114.68,2.9 C114.68,1.96 115.44,1.18 116.4,1.18 C117.36,1.18 118.16,1.96 118.16,2.9 Z M114.6,16 L114.6,15.96 C114.88,14.98 115.1,14.14 115.1,12.48 L115.1,10.24 C115.1,8.78 114.8,7.92 114.08,7.08 L114.08,7 L118.3,5.84 L118.3,12.48 C118.3,14.12 118.46,14.98 118.78,15.96 L118.78,16 L114.6,16 Z M126.8,6.3 L127.06,8.8 L126.88,8.84 C125.62,7.1 124.78,6.32 123.76,6.32 C122.94,6.32 122.3,6.82 122.3,7.6 C122.3,8.72 123.6,9.12 124.92,9.68 C126.32,10.3 127.74,11.12 127.74,13.16 C127.74,15.42 125.86,16.3 123.6,16.3 C122.4,16.3 121.22,16.06 120.34,15.68 L120.06,12.88 L120.24,12.84 C121.54,14.8 122.74,15.94 124.08,15.94 C125.12,15.94 125.5,15.3 125.5,14.64 C125.5,13.56 124.44,13.1 123.14,12.52 C121.76,11.9 120.22,11.12 120.22,9.02 C120.22,6.82 122.1,5.96 124.32,5.96 C125.24,5.96 126.14,6.1 126.8,6.3 Z M132.92,16 L128.74,16 L128.74,15.96 C129.04,14.98 129.22,14.18 129.22,12.48 L129.22,4.8 C129.22,3.3 128.94,2.46 128.22,1.62 L128.22,1.58 L132.44,0.42 L132.44,7.86 C132.96,7.02 134.02,5.94 135.8,5.94 C137.56,5.94 138.8,7.02 138.8,8.72 L138.8,12.48 C138.8,14.16 138.94,14.98 139.28,15.96 L139.28,16 L135.1,16 L135.1,15.96 C135.44,14.98 135.58,14.12 135.58,12.5 L135.58,8.92 C135.58,8.08 135.16,7.44 134.22,7.44 C133.48,7.44 132.84,7.9 132.44,8.42 L132.44,12.48 C132.44,14.14 132.6,14.98 132.92,15.96 L132.92,16 Z M145.36,6.3 C144.32,6.3 143.8,7.96 143.8,9.78 L146.64,9.74 L146.64,8.98 C146.64,7.1 146.14,6.3 145.36,6.3 Z M149.74,13.14 C149.2,15.02 147.68,16.3 145.4,16.3 C142.38,16.3 140.54,14.1 140.54,11.3 C140.54,8.16 142.7,5.94 145.48,5.94 C148.28,5.94 149.8,8.16 149.76,10.2 L143.8,10.18 C143.9,13.12 145.3,14.04 147.06,14.04 C148.44,14.04 149.28,13.48 149.64,13.08 L149.74,13.14 Z M155.36,16 L151.18,16 L151.18,15.96 C151.5,14.98 151.66,14.18 151.66,12.48 L151.66,10.22 C151.66,8.74 151.38,7.88 150.66,7.04 L150.66,7 L154.8,5.84 L154.8,8.26 C155.64,7.4 156.62,5.82 158.34,5.94 L157.98,9.3 L157.88,9.3 C157.38,8.62 156.3,8.12 155.8,8.12 C155.5,8.12 155.16,8.36 154.88,8.7 L154.88,12.48 C154.88,14.14 155.04,14.98 155.36,15.96 L155.36,16 Z M165.9,6.3 L166.16,8.8 L165.98,8.84 C164.72,7.1 163.88,6.32 162.86,6.32 C162.04,6.32 161.4,6.82 161.4,7.6 C161.4,8.72 162.7,9.12 164.02,9.68 C165.42,10.3 166.84,11.12 166.84,13.16 C166.84,15.42 164.96,16.3 162.7,16.3 C161.5,16.3 160.32,16.06 159.44,15.68 L159.16,12.88 L159.34,12.84 C160.64,14.8 161.84,15.94 163.18,15.94 C164.22,15.94 164.6,15.3 164.6,14.64 C164.6,13.56 163.54,13.1 162.24,12.52 C160.86,11.9 159.32,11.12 159.32,9.02 C159.32,6.82 161.2,5.96 163.42,5.96 C164.34,5.96 165.24,6.1 165.9,6.3 Z" id="Publishers" fill="#4D8FFF"></path>
                    </g>
                </g>
            </g>
        </g>
    </g>
</svg>