<?xml version="1.0" encoding="UTF-8"?>
<svg width="122px" height="122px" viewBox="0 0 122 122" version="1.1" xmlns="http://www.w3.org/2000/svg" xmlns:xlink="http://www.w3.org/1999/xlink">
    <!-- Generator: Sketch 51.3 (57544) - http://www.bohemiancoding.com/sketch -->
    <title>b2b-feature-2</title>
    <desc>Created with Sketch.</desc>
    <defs></defs>
    <g id="b2b-feature-2" stroke="none" stroke-width="1" fill="none" fill-rule="evenodd">
        <g id="Group-56" fill-rule="nonzero">
            <path d="M61,122 C27.3106303,122 0,94.6893697 0,61 C0,27.3106303 27.3106303,0 61,0 C94.6893697,0 122,27.3106303 122,61 C122,94.6893697 94.6893697,122 61,122 Z M61,120 C93.5848002,120 120,93.5848002 120,61 C120,28.4151998 93.5848002,2 61,2 C28.4151998,2 2,28.4151998 2,61 C2,93.5848002 28.4151998,120 61,120 Z" id="Oval-4-Copy" fill="#C9CDCD"></path>
            <g id="noun_Reading_1172146_000000" transform="translate(43.000000, 35.000000)" fill="#808383">
                <g id="Group-36">
                    <path d="M17.1,16.2 C21.6,16.2 25.2,12.6 25.2,8.1 C25.2,3.6 21.6,0 17.1,0 C12.6,0 9,3.6 9,8.1 C9,12.5 12.6,16.2 17.1,16.2 Z M17.1,2 C20.5,2 23.2,4.7 23.2,8.1 C23.2,11.5 20.5,14.2 17.1,14.2 C13.7,14.2 11,11.5 11,8.1 C11,4.7 13.7,2 17.1,2 Z" id="Shape"></path>
                    <path d="M33.6,23.3 C33.4,23.1 33.1,23 32.8,23.1 C31,23.5 29.5,23.7 27.9,24 C27.4,24.1 26.9,24.2 26.5,24.2 C23.9,21.5 20.5,20 17,20 C13.5,20 10.2,21.5 7.5,24.2 C7,24.1 6.6,24 6.1,24 C4.6,23.8 3,23.5 1.2,23.1 C0.9,23 0.6,23.1 0.4,23.3 C0.2,23.5 0,23.8 0,24.1 L0,42.7 C0,43.2 0.3,43.6 0.8,43.7 C2.6,44.1 4.3,44.3 5.7,44.6 C10.1,45.3 13.3,45.8 16.3,48.1 C16.8,48.4 17.2,48.3 17.5,48.1 C20.6,45.8 23.7,45.3 28.1,44.6 C29.6,44.4 31.2,44.1 33,43.7 C33.5,43.6 33.8,43.2 33.8,42.7 L33.8,24.1 C34,23.8 33.8,23.5 33.6,23.3 Z M16,45.4 C13,43.7 9.9,43.2 6.1,42.6 C4.8,42.4 3.5,42.2 2,41.9 L2,25.3 C3.3,25.6 4.6,25.8 5.7,25.9 C9.8,26.4 13.4,27.3 15.7,29 C15.8,29.1 15.9,29.1 15.9,29.2 L15.9,45.4 L16,45.4 Z M17,27.4 C15,26 12.6,25.2 10,24.6 C12.1,22.9 14.5,21.9 17,21.9 C19.5,21.9 22,22.8 24,24.6 C21.6,25 19.3,26 17,27.4 Z M32,41.8 C30.6,42.1 29.2,42.3 27.9,42.5 C24.1,43.2 21,43.7 18,45.4 L18,29.1 C20.8,27.1 24.5,26.4 28.2,25.9 C29.3,25.7 30.6,25.5 31.9,25.3 L31.9,41.8 L32,41.8 Z" id="Shape"></path>
                </g>
            </g>
        </g>
    </g>
</svg>