<?xml version="1.0" encoding="UTF-8"?>
<svg width="122px" height="122px" viewBox="0 0 122 122" version="1.1" xmlns="http://www.w3.org/2000/svg" xmlns:xlink="http://www.w3.org/1999/xlink">
    <!-- Generator: Sketch 51.3 (57544) - http://www.bohemiancoding.com/sketch -->
    <title>b2b-feature-4</title>
    <desc>Created with Sketch.</desc>
    <defs></defs>
    <g id="b2b-feature-4" stroke="none" stroke-width="1" fill="none" fill-rule="evenodd">
        <path d="M61,122 C27.3106303,122 0,94.6893697 0,61 C0,27.3106303 27.3106303,0 61,0 C94.6893697,0 122,27.3106303 122,61 C122,94.6893697 94.6893697,122 61,122 Z M61,120 C93.5848002,120 120,93.5848002 120,61 C120,28.4151998 93.5848002,2 61,2 C28.4151998,2 2,28.4151998 2,61 C2,93.5848002 28.4151998,120 61,120 Z" id="Oval-4-Copy-3" fill="#C9CDCD" fill-rule="nonzero"></path>
        <g id="noun_stars_1004320_000000" transform="translate(36.000000, 34.000000)" fill="#808383" fill-rule="nonzero">
            <path d="M33.1,26.9 C33.3,26.9 33.5,26.8 33.7,26.7 C34,26.5 34.2,26.1 34.1,25.7 L32.6,17.2 L38.8,11.2 C39.1,10.9 39.2,10.5 39.1,10.2 C39,9.8 38.7,9.6 38.3,9.5 L29.8,8.3 L26,0.6 C25.7,-0.1 24.5,-0.1 24.2,0.6 L20.4,8.3 L11.9,9.5 C11.5,9.6 11.2,9.8 11.1,10.2 C11,10.6 11.1,11 11.4,11.2 L17.6,17.2 L16.1,25.7 C16,26.1 16.2,26.5 16.5,26.7 C16.8,26.9 17.2,27 17.6,26.8 L25.2,22.8 L32.8,26.8 C32.8,26.9 33,26.9 33.1,26.9 Z M25.5,20.8 C25.2,20.6 24.9,20.6 24.6,20.8 L18.3,24.1 L19.5,17.1 C19.6,16.8 19.4,16.4 19.2,16.2 L14.1,11.2 L21.2,10.2 C21.5,10.2 21.8,9.9 22,9.7 L25,3.2 L28.2,9.6 C28.3,9.9 28.6,10.1 29,10.1 L36.1,11.1 L31,16.1 C30.8,16.3 30.7,16.7 30.7,17 L31.9,24 L25.5,20.8 Z" id="Shape"></path>
            <path d="M20.4,35.3 L14.6,34.5 L12,29.2 C11.8,28.9 11.5,28.6 11.1,28.6 C10.7,28.6 10.4,28.8 10.2,29.2 L7.6,34.4 L1.8,35.2 C1.4,35.3 1.1,35.5 1,35.9 C0.9,36.3 1,36.7 1.3,36.9 L5.5,41 L4.5,46.8 C4.4,47.2 4.6,47.6 4.9,47.8 C5.1,47.9 5.3,48 5.5,48 C5.7,48 5.8,48 6,47.9 L11.2,45.2 L16.4,47.9 C16.7,48.1 17.1,48 17.5,47.8 C17.8,47.6 18,47.2 17.9,46.8 L16.9,41 L21,37 C21.3,36.7 21.4,36.3 21.3,36 C21.1,35.6 20.8,35.3 20.4,35.3 Z M15,40 C14.8,40.2 14.7,40.6 14.7,40.9 L15.4,45.2 L11.5,43.2 C11.2,43 10.9,43 10.6,43.2 L6.7,45.2 L7.4,40.9 C7.5,40.6 7.3,40.2 7.1,40 L4,37 L8.3,36.4 C8.6,36.4 8.9,36.1 9.1,35.9 L11,32 L12.9,35.9 C13,36.2 13.3,36.4 13.7,36.4 L18,37 L15,40 Z" id="Shape"></path>
            <path d="M49,35.9 C48.9,35.5 48.6,35.3 48.2,35.2 L42.4,34.4 L39.8,29.2 C39.5,28.5 38.3,28.5 38,29.2 L35.4,34.4 L29.6,35.2 C29.2,35.3 28.9,35.5 28.8,35.9 C28.7,36.3 28.8,36.7 29.1,36.9 L33.3,41 L32.3,46.8 C32.2,47.2 32.4,47.6 32.7,47.8 C33,48 33.4,48.1 33.8,47.9 L39,45.2 L44.2,47.9 C44.3,48 44.5,48 44.7,48 C44.9,48 45.1,47.9 45.3,47.8 C45.6,47.6 45.8,47.2 45.7,46.8 L44.7,41 L48.9,36.9 C49,36.7 49.1,36.3 49,35.9 Z M42.7,40 C42.5,40.2 42.4,40.6 42.4,40.9 L43.1,45.2 L39.2,43.2 C39.2,43 39,43 38.9,43 C38.7,43 38.6,43 38.4,43.1 L34.5,45.1 L35.2,40.8 C35.3,40.5 35.1,40.1 34.9,39.9 L31.8,36.9 L36.1,36.3 C36.4,36.3 36.7,36 36.9,35.8 L38.8,31.9 L40.7,35.8 C40.8,36.1 41.1,36.3 41.5,36.3 L45.8,36.9 L42.7,40 Z" id="Shape"></path>
        </g>
    </g>
</svg>