<?xml version="1.0" encoding="UTF-8"?>
<svg width="122px" height="122px" viewBox="0 0 122 122" version="1.1" xmlns="http://www.w3.org/2000/svg" xmlns:xlink="http://www.w3.org/1999/xlink">
    <!-- Generator: Sketch 51.3 (57544) - http://www.bohemiancoding.com/sketch -->
    <title>b2b-feature-5</title>
    <desc>Created with Sketch.</desc>
    <defs></defs>
    <g id="b2b-feature-5" stroke="none" stroke-width="1" fill="none" fill-rule="evenodd">
        <path d="M61,122 C27.3106303,122 0,94.6893697 0,61 C0,27.3106303 27.3106303,0 61,0 C94.6893697,0 122,27.3106303 122,61 C122,94.6893697 94.6893697,122 61,122 Z M61,120 C93.5848002,120 120,93.5848002 120,61 C120,28.4151998 93.5848002,2 61,2 C28.4151998,2 2,28.4151998 2,61 C2,93.5848002 28.4151998,120 61,120 Z" id="Oval-4-Copy-4" fill="#C9CDCD" fill-rule="nonzero"></path>
        <g id="noun_lifering_1068023_000000" transform="translate(37.000000, 37.000000)" fill="#808383" fill-rule="nonzero">
            <path d="M43.5,43.5 C45.2,41.8 45.2,39.1 43.6,37.4 C49,29.4 49,18.7 43.6,10.7 C45.2,9 45.1,6.2 43.5,4.6 C41.8,2.9 39.1,2.9 37.4,4.5 C29.4,-0.9 18.7,-0.9 10.7,4.5 C8.9,2.8 6.2,2.8 4.5,4.5 C2.8,6.2 2.8,8.9 4.4,10.6 C-1,18.6 -1,29.3 4.4,37.3 C2.8,39 2.9,41.8 4.5,43.4 C6.2,45.1 8.9,45.1 10.6,43.5 C18.6,48.9 29.3,48.9 37.3,43.5 C39.1,45.2 41.8,45.2 43.5,43.5 Z M42.2,35.9 L34.2,27.9 C35.1,25.4 35.1,22.7 34.2,20.2 L42.2,12.2 C46.9,19.3 46.9,28.7 42.2,35.9 Z M17.7,30.3 C14.2,26.8 14.2,21.2 17.7,17.7 C21.2,14.2 26.8,14.2 30.3,17.7 C33.8,21.2 33.8,26.8 30.3,30.3 C26.8,33.8 21.2,33.7 17.7,30.3 Z M42.1,5.9 C43.1,6.9 43.1,8.4 42.1,9.4 L33.3,18.2 C32.9,17.5 32.4,16.9 31.8,16.3 C31.2,15.7 30.5,15.2 29.9,14.8 L38.7,6 C39.5,5 41.1,5 42.1,5.9 Z M35.9,5.8 L27.9,13.8 C25.4,12.9 22.7,12.9 20.2,13.8 L12.2,5.8 C19.3,1.1 28.7,1.1 35.9,5.8 Z M5.9,5.9 C6.9,4.9 8.4,4.9 9.4,5.9 L18.2,14.7 C17.5,15.1 16.9,15.6 16.3,16.2 C15.7,16.8 15.2,17.5 14.8,18.1 L5.9,9.4 C5,8.5 5,6.9 5.9,5.9 Z M5.8,12.1 L13.8,20.1 C12.9,22.6 12.9,25.3 13.8,27.8 L5.8,35.8 C1.1,28.7 1.1,19.3 5.8,12.1 Z M5.9,42.1 C4.9,41.1 4.9,39.6 5.9,38.6 L14.7,29.8 C15.1,30.5 15.6,31.1 16.2,31.7 C16.8,32.3 17.5,32.8 18.1,33.2 L9.3,42 C8.5,43 6.9,43 5.9,42.1 Z M12.1,42.2 L20.1,34.2 C22.6,35.1 25.3,35.1 27.8,34.2 L35.8,42.2 C28.7,46.9 19.3,46.9 12.1,42.2 Z M38.6,42.1 L29.8,33.3 C30.5,32.9 31.1,32.4 31.7,31.8 C32.3,31.2 32.8,30.5 33.2,29.9 L42,38.7 C43,39.7 43,41.2 42,42.2 C41.1,43 39.5,43 38.6,42.1 Z" id="Shape"></path>
        </g>
    </g>
</svg>