<?xml version="1.0" encoding="UTF-8"?>
<svg width="122px" height="122px" viewBox="0 0 122 122" version="1.1" xmlns="http://www.w3.org/2000/svg" xmlns:xlink="http://www.w3.org/1999/xlink">
    <!-- Generator: Sketch 51.3 (57544) - http://www.bohemiancoding.com/sketch -->
    <title>b2b-feature-3</title>
    <desc>Created with Sketch.</desc>
    <defs></defs>
    <g id="b2b-feature-3" stroke="none" stroke-width="1" fill="none" fill-rule="evenodd">
        <path d="M61,122 C27.3106303,122 0,94.6893697 0,61 C0,27.3106303 27.3106303,0 61,0 C94.6893697,0 122,27.3106303 122,61 C122,94.6893697 94.6893697,122 61,122 Z M61,120 C93.5848002,120 120,93.5848002 120,61 C120,28.4151998 93.5848002,2 61,2 C28.4151998,2 2,28.4151998 2,61 C2,93.5848002 28.4151998,120 61,120 Z" id="Oval-4-Copy-2" fill="#C9CDCD" fill-rule="nonzero"></path>
        <g id="noun_Hot-Air-Balloon_1069138_000000" transform="translate(44.000000, 37.000000)" fill="#808383" fill-rule="nonzero">
            <path d="M33.3,16.3 C33.3,7.3 26,0 17,0 C8,0 0.7,7.3 0.7,16.3 C0.7,24.4 7.4,32.6 11.6,38.6 C11.8,38.9 12.1,39 12.4,39 L21.5,39 C21.8,39 22.1,38.8 22.3,38.6 C27.1,31.8 33.3,24.1 33.3,16.3 Z M31.3,16.3 C31.3,21.1 28,27.4 24.6,31.8 L22.7,31.8 C24.4,27.3 26,21.1 26,16.3 C26,10.8 24.5,5.9 22.2,3 C27.6,5.2 31.3,10.3 31.3,16.3 Z M13.3,31.8 C11.6,27.5 9.9,21.2 9.9,16.3 C9.9,9.2 12.6,3.1 16,2.1 L16,31.8 L13.3,31.8 Z M18,2.2 C21.4,3.2 24.1,9.3 24.1,16.4 C24.1,21.2 22.4,27.5 20.6,31.9 L18,31.9 L18,2.2 Z M11.6,3.1 C9.3,6 7.8,10.8 7.8,16.4 C7.8,21.2 9.4,27.4 11.1,31.9 L9.2,31.9 C5.3,26.9 2.6,20.6 2.6,16.4 C2.7,10.3 6.4,5.2 11.6,3.1 Z M20.9,37.1 L12.9,37.1 L10.6,33.8 L12.6,33.8 C18.5,33.8 17,33.8 23.2,33.8 L20.9,37.1 Z" id="Shape"></path>
            <path d="M20.6,40.8 L13.3,40.8 C12.7,40.8 12.3,41.2 12.3,41.8 L12.3,45.6 C12.3,47 13.4,48.1 14.8,48.1 L19.1,48.1 C20.5,48.1 21.6,47 21.6,45.6 L21.6,41.8 C21.6,41.2 21.1,40.8 20.6,40.8 Z M19.6,45.5 C19.6,45.8 19.4,46 19.1,46 L14.8,46 C14.5,46 14.3,45.8 14.3,45.5 L14.3,42.7 L19.6,42.7 L19.6,45.5 Z" id="Shape"></path>
        </g>
    </g>
</svg>