<?xml version="1.0" encoding="UTF-8"?>
<svg width="122px" height="122px" viewBox="0 0 122 122" version="1.1" xmlns="http://www.w3.org/2000/svg" xmlns:xlink="http://www.w3.org/1999/xlink">
    <!-- Generator: Sketch 51.3 (57544) - http://www.bohemiancoding.com/sketch -->
    <title>b2b-feature-6</title>
    <desc>Created with Sketch.</desc>
    <defs></defs>
    <g id="b2b-feature-6" stroke="none" stroke-width="1" fill="none" fill-rule="evenodd">
        <g id="Group-34" transform="translate(40.000000, 37.000000)" fill="#808383" fill-rule="nonzero">
            <g id="noun_bulb_1003896_000000">
                <path d="M34.3,20.6 C34.3,13.1 28,7 20.4,7.4 C13.6,7.7 8,13.3 7.7,20 C7.6,23.4 8.7,26.7 10.9,29.2 C13,31.6 14.1,34.9 14.1,38.4 L14.1,39 C14.1,39.6 14.5,40 15.1,40 L26.8,40 C27.4,40 27.8,39.6 27.8,39 L27.8,38.3 C27.8,35 29,31.8 31.3,28.9 C33.2,26.6 34.3,23.7 34.3,20.6 Z M25.9,38 L16.2,38 C16.1,34.2 14.8,30.6 12.5,27.9 C10.6,25.7 9.7,22.9 9.8,20.1 C10.1,14.3 14.8,9.6 20.5,9.3 C27,9 32.3,14.2 32.3,20.6 C32.3,23.2 31.4,25.6 29.8,27.7 C27.3,30.8 25.9,34.4 25.9,38 Z" id="Shape"></path>
                <path d="M26.8,42.3 L15.5,42.3 C14.9,42.3 14.5,42.7 14.5,43.3 C14.5,43.9 14.9,44.3 15.5,44.3 L26.8,44.3 C27.4,44.3 27.8,43.9 27.8,43.3 C27.8,42.7 27.4,42.3 26.8,42.3 Z" id="Shape"></path>
                <path d="M24.8,46 L17.5,46 C16.9,46 16.5,46.4 16.5,47 C16.5,47.6 16.9,48 17.5,48 L24.8,48 C25.4,48 25.8,47.6 25.8,47 C25.8,46.4 25.4,46 24.8,46 Z" id="Shape"></path>
                <path d="M21,5.8 C21.6,5.8 22,5.4 22,4.8 L22,1 C22,0.4 21.6,0 21,0 C20.4,0 20,0.4 20,1 L20,4.8 C20,5.4 20.4,5.8 21,5.8 Z" id="Shape"></path>
                <path d="M32,10.5 C32.3,10.5 32.5,10.4 32.7,10.2 L35.3,7.5 C35.7,7.1 35.7,6.5 35.3,6.1 C34.9,5.7 34.3,5.7 33.9,6.1 L31.3,8.8 C30.9,9.2 30.9,9.8 31.3,10.2 C31.5,10.4 31.8,10.5 32,10.5 Z" id="Shape"></path>
                <path d="M9.3,31.5 L6.7,34.2 C6.3,34.6 6.3,35.2 6.7,35.6 C6.9,35.8 7.1,35.9 7.4,35.9 C7.7,35.9 7.9,35.8 8.1,35.6 L10.7,32.9 C11.1,32.5 11.1,31.9 10.7,31.5 C10.3,31 9.7,31.1 9.3,31.5 Z" id="Shape"></path>
                <path d="M40.3,19.8 L36.6,19.8 C36,19.8 35.6,20.2 35.6,20.8 C35.6,21.4 36,21.8 36.6,21.8 L40.3,21.8 C40.9,21.8 41.3,21.4 41.3,20.8 C41.3,20.2 40.8,19.8 40.3,19.8 Z" id="Shape"></path>
                <path d="M5.4,19.8 L1.7,19.8 C1.1,19.8 0.7,20.2 0.7,20.8 C0.7,21.4 1.1,21.8 1.7,21.8 L5.4,21.8 C6,21.8 6.4,21.4 6.4,20.8 C6.4,20.2 6,19.8 5.4,19.8 Z" id="Shape"></path>
                <path d="M32.7,31.5 C32.3,31.1 31.7,31.1 31.3,31.5 C30.9,31.9 30.9,32.5 31.3,32.9 L33.9,35.6 C34.1,35.8 34.4,35.9 34.6,35.9 C34.9,35.9 35.1,35.8 35.3,35.6 C35.7,35.2 35.7,34.6 35.3,34.2 L32.7,31.5 Z" id="Shape"></path>
                <path d="M9.3,10.2 C9.5,10.4 9.8,10.5 10,10.5 C10.3,10.5 10.5,10.4 10.7,10.2 C11.1,9.8 11.1,9.2 10.7,8.8 L8.1,6.1 C7.7,5.7 7.1,5.7 6.7,6.1 C6.3,6.5 6.3,7.1 6.7,7.5 L9.3,10.2 Z" id="Shape"></path>
            </g>
            <path d="M17.6,23.2 L22.2,23.2 L18,27.9 C17.6,28.3 17.7,28.9 18.1,29.3 C18.7,29.8 19.3,29.4 19.5,29.2 L25.2,22.9 C25.8,22.3 25.3,21.2 24.5,21.2 L19.6,21.2 L23.3,15.9 C23.6,15.4 23.5,14.8 23.1,14.5 C22.6,14.2 22,14.3 21.7,14.7 L16.9,21.6 C16.3,22.3 16.8,23.2 17.6,23.2 Z" id="Shape"></path>
        </g>
        <path d="M61,122 C27.3106303,122 0,94.6893697 0,61 C0,27.3106303 27.3106303,0 61,0 C94.6893697,0 122,27.3106303 122,61 C122,94.6893697 94.6893697,122 61,122 Z M61,120 C93.5848002,120 120,93.5848002 120,61 C120,28.4151998 93.5848002,2 61,2 C28.4151998,2 2,28.4151998 2,61 C2,93.5848002 28.4151998,120 61,120 Z" id="Oval-4-Copy-5" fill="#C9CDCD" fill-rule="nonzero"></path>
        <g id="noun_bulb_1065603_000000" transform="translate(56.000000, 51.000000)"></g>
    </g>
</svg>