<?xml version="1.0" encoding="UTF-8"?>
<svg width="122px" height="122px" viewBox="0 0 122 122" version="1.1" xmlns="http://www.w3.org/2000/svg" xmlns:xlink="http://www.w3.org/1999/xlink">
    <!-- Generator: Sketch 51.3 (57544) - http://www.bohemiancoding.com/sketch -->
    <title>b2b-feature-1</title>
    <desc>Created with Sketch.</desc>
    <defs></defs>
    <g id="b2b-feature-1" stroke="none" stroke-width="1" fill="none" fill-rule="evenodd">
        <g id="Group" fill-rule="nonzero">
            <path d="M61,122 C27.3106303,122 0,94.6893697 0,61 C0,27.3106303 27.3106303,0 61,0 C94.6893697,0 122,27.3106303 122,61 C122,94.6893697 94.6893697,122 61,122 Z M61,120 C93.5848002,120 120,93.5848002 120,61 C120,28.4151998 93.5848002,2 61,2 C28.4151998,2 2,28.4151998 2,61 C2,93.5848002 28.4151998,120 61,120 Z" id="Oval-4" fill="#C9CDCD"></path>
            <g id="noun_Book_1218642_000000" transform="translate(37.000000, 42.000000)" fill="#808383">
                <path d="M9.2,10.1 C12.6,9.2 16.3,9.2 19.7,10.1 C19.8,10.1 19.9,10.1 19.9,10.1 C20.3,10.1 20.8,9.8 20.9,9.3 C21,8.8 20.7,8.2 20.2,8.1 C16.4,7.2 12.5,7.2 8.7,8.1 C8.2,8.2 7.8,8.8 8,9.3 C8.2,9.9 8.7,10.2 9.2,10.1 Z" id="Shape"></path>
                <path d="M9.2,16.1 C12.6,15.2 16.3,15.2 19.7,16.1 C19.8,16.1 19.9,16.1 19.9,16.1 C20.3,16.1 20.8,15.8 20.9,15.3 C21,14.8 20.7,14.2 20.2,14.1 C16.4,13.2 12.5,13.2 8.7,14.1 C8.2,14.2 7.8,14.8 8,15.3 C8.2,16 8.7,16.3 9.2,16.1 Z" id="Shape"></path>
                <path d="M9.2,22.2 C12.6,21.3 16.3,21.3 19.7,22.2 C19.8,22.2 19.9,22.2 19.9,22.2 C20.3,22.2 20.8,21.9 20.9,21.4 C21,20.9 20.7,20.3 20.2,20.2 C16.4,19.3 12.5,19.3 8.7,20.2 C8.2,20.3 7.8,20.9 8,21.4 C8.2,22 8.7,22.3 9.2,22.2 Z" id="Shape"></path>
                <path d="M20,28.3 C20.4,28.3 20.9,28 21,27.5 C21.1,27 20.8,26.4 20.3,26.3 C16.5,25.4 12.6,25.4 8.8,26.3 C8.2,26.5 7.9,27 8,27.5 C8.1,28 8.7,28.4 9.2,28.2 C12.6,27.3 16.3,27.3 19.7,28.2 C19.8,28.3 19.9,28.3 20,28.3 Z" id="Shape"></path>
                <path d="M28.2,10.1 C31.6,9.2 35.3,9.2 38.7,10.1 C38.8,10.1 38.9,10.1 38.9,10.1 C39.3,10.1 39.8,9.8 39.9,9.3 C40,8.8 39.7,8.2 39.2,8.1 C35.4,7.2 31.5,7.2 27.7,8.1 C27.2,8.2 26.8,8.8 27,9.3 C27.2,9.9 27.7,10.2 28.2,10.1 Z" id="Shape"></path>
                <path d="M28.2,16.1 C31.6,15.2 35.3,15.2 38.7,16.1 C38.8,16.1 38.9,16.1 38.9,16.1 C39.3,16.1 39.8,15.8 39.9,15.3 C40,14.8 39.7,14.2 39.2,14.1 C35.4,13.2 31.5,13.2 27.7,14.1 C27.2,14.2 26.8,14.8 27,15.3 C27.2,16 27.7,16.3 28.2,16.1 Z" id="Shape"></path>
                <path d="M28.2,22.2 C31.6,21.3 35.3,21.3 38.7,22.2 C38.8,22.2 38.9,22.2 38.9,22.2 C39.3,22.2 39.8,21.9 39.9,21.4 C40,20.9 39.7,20.3 39.2,20.2 C35.4,19.3 31.5,19.3 27.7,20.2 C27.2,20.3 26.8,20.9 27,21.4 C27.2,22 27.7,22.3 28.2,22.2 Z" id="Shape"></path>
                <path d="M28.2,28.3 C31.6,27.4 35.3,27.4 38.7,28.3 C38.8,28.3 38.9,28.3 38.9,28.3 C39.3,28.3 39.8,28 39.9,27.5 C40,27 39.7,26.4 39.2,26.3 C35.4,25.4 31.5,25.4 27.7,26.3 C27.2,26.4 26.8,27 27,27.5 C27.2,28.1 27.7,28.4 28.2,28.3 Z" id="Shape"></path>
                <path d="M47,7.7 L44,7.7 L44,3.7 C44,3.3 43.7,2.9 43.4,2.8 C37.1,0.4 30.2,0.4 24,2.7 C17.8,0.4 10.9,0.4 4.6,2.8 C4.3,2.9 4,3.3 4,3.7 L4,7.7 L1,7.7 C0.4,7.7 0,8.1 0,8.7 L0,38 C0,38.6 0.4,39 1,39 L47,39 C47.6,39 48,38.6 48,38 L48,8.7 C48,8.2 47.6,7.7 47,7.7 Z M25,4.4 C30.5,2.5 36.5,2.5 42,4.4 L42,32.3 C36.5,30.5 30.5,30.5 25,32.3 L25,4.4 Z M6,4.4 C11.5,2.5 17.5,2.5 23,4.4 L23,32.3 C20.2,31.4 17.4,31 14.5,31 C11.6,31 8.8,31.4 6,32.3 L6,4.4 Z M46,37 L2,37 L2,9.7 L4,9.7 L4,33.7 C4.1,34.5 4.5,34.8 5.4,34.6 C11.3,32.4 17.8,32.4 23.7,34.6 C23.7,34.6 23.7,34.6 23.7,34.6 C23.9,34.7 24.1,34.7 24.4,34.6 C24.4,34.6 24.4,34.6 24.4,34.6 C30.3,32.4 36.8,32.4 42.7,34.6 C43,34.7 43.4,34.7 43.6,34.5 C43.9,34.3 44,34 44,33.7 L44,9.7 L46,9.7 L46,37 Z" id="Shape"></path>
            </g>
        </g>
    </g>
</svg>