<?xml version="1.0" encoding="UTF-8"?>
<svg width="36px" height="36px" viewBox="0 0 36 36" version="1.1" xmlns="http://www.w3.org/2000/svg" xmlns:xlink="http://www.w3.org/1999/xlink">
    <!-- Generator: Sketch 52.5 (67469) - http://www.bohemiancoding.com/sketch -->
    <title>dashboard-solid-blue</title>
    <desc>Created with Sketch.</desc>
    <g id="dashboard-solid-blue" stroke="none" stroke-width="1" fill="none" fill-rule="evenodd">
        <g id="Group-44">
            <rect id="Rectangle" x="0" y="0" width="36" height="36"></rect>
            <path d="M18.5909091,5 C25.2681818,5.29545455 30.7045455,10.6727273 31,17.4090909 L18.5909091,17.4090909 L18.5909091,5 Z M18,31 C10.85,31 5,25.15 5,18 C5,11.0272727 10.4954545,5.29545455 17.4090909,5 L17.4090909,18 C17.4090909,18 17.4090909,18.0590909 17.4090909,18.0590909 C17.4090909,18.0590909 17.4090909,18.1181818 17.4090909,18.1181818 C17.4090909,18.1181818 17.4090909,18.1772727 17.4090909,18.1772727 C17.4090909,18.1772727 17.4090909,18.2363636 17.4090909,18.2363636 C17.4090909,18.2363636 17.4090909,18.2363636 17.4090909,18.2954545 L23.9090909,29.5818182 C22.0772727,30.5272727 20.0681818,31 18,31 Z M24.9136364,28.9909091 L19.3,19.1227273 L19.0045455,18.5909091 L31,18.5909091 C30.7636364,22.8454545 28.5181818,26.7454545 24.9136364,28.9909091 Z" id="Combined-Shape" fill="#4D8FFF" fill-rule="nonzero"></path>
        </g>
    </g>
</svg>