<?xml version="1.0" encoding="UTF-8"?>
<svg width="36px" height="36px" viewBox="0 0 36 36" version="1.1" xmlns="http://www.w3.org/2000/svg" xmlns:xlink="http://www.w3.org/1999/xlink">
    <!-- Generator: Sketch 52.5 (67469) - http://www.bohemiancoding.com/sketch -->
    <title>download-solid-blue</title>
    <desc>Created with Sketch.</desc>
    <g id="download-solid-blue" stroke="none" stroke-width="1" fill="none" fill-rule="evenodd">
        <g id="Group-39">
            <rect id="Rectangle-Copy-10" x="0" y="0" width="36" height="36"></rect>
            <g id="Group-35" transform="translate(5.000000, 5.000000)" fill="#4D8FFF" fill-rule="nonzero">
                <g id="noun_memo_1003823_000000-copy-4">
                    <path d="M12.6087963,16.3296196 C12.703373,16.429009 12.8452381,16.4787037 12.9398148,16.4787037 C13.0816799,16.4787037 13.1762566,16.429009 13.2708333,16.3296196 L16.1081349,13.3479374 C16.2972884,13.1491586 16.2972884,12.8509904 16.1081349,12.6522116 C15.9189815,12.4534328 15.6352513,12.4534328 15.4460979,12.6522116 L13.4126984,14.7890838 L13.4126984,6.2747248 C13.4126984,5.97655659 13.223545,5.77777778 12.9398148,5.77777778 C12.6560847,5.77777778 12.4669312,5.97655659 12.4669312,6.2747248 L12.4669312,14.7890838 L10.4335317,12.6522116 C10.2443783,12.4534328 9.96064815,12.4534328 9.77149471,12.6522116 C9.58234127,12.8509904 9.58234127,13.1491586 9.77149471,13.3479374 L12.6087963,16.3296196 Z M7.35353535,20.2222222 L19.6094276,20.2222222 C19.9771044,20.2222222 20.2222222,20.0296296 20.2222222,19.7407407 C20.2222222,19.4518519 19.9771044,19.2592593 19.6094276,19.2592593 L7.35353535,19.2592593 C6.98585859,19.2592593 6.74074074,19.4518519 6.74074074,19.7407407 C6.74074074,20.0296296 6.98585859,20.2222222 7.35353535,20.2222222 Z M23.8333333,-4.26325641e-14 C25.025,-4.26325641e-14 26,0.975 26,2.16666667 L26,23.8333333 C26,25.025 25.025,26 23.8333333,26 L2.16666667,26 C0.975,26 0,25.025 0,23.8333333 L0,2.16666667 C0,0.975 0.975,-4.26325641e-14 2.16666667,-4.26325641e-14 L23.8333333,-4.26325641e-14 Z" id="Combined-Shape"></path>
                </g>
            </g>
        </g>
    </g>
</svg>