<?xml version="1.0" encoding="UTF-8"?>
<svg width="36px" height="36px" viewBox="0 0 36 36" version="1.1" xmlns="http://www.w3.org/2000/svg" xmlns:xlink="http://www.w3.org/1999/xlink">
    <!-- Generator: Sketch 52.5 (67469) - http://www.bohemiancoding.com/sketch -->
    <title>help-solid-blue</title>
    <desc>Created with Sketch.</desc>
    <g id="help-solid-blue" stroke="none" stroke-width="1" fill="none" fill-rule="evenodd">
        <g id="Group-37">
            <rect id="Rectangle-Copy-11" x="0" y="0" width="36" height="36"></rect>
            <g id="noun_help_677616_000000-copy" transform="translate(4.000000, 4.000000)" fill="#4D8FFF" fill-rule="nonzero">
                <path d="M14,-6.03961325e-14 C21.7184544,-6.03961325e-14 28,6.27904403 28,13.9992956 C28,21.7195472 21.7184544,28 14,28 C6.28154558,28 -6.75015599e-14,21.720956 -6.75015599e-14,14.0007044 C-6.75015599e-14,6.28045283 6.28154558,-6.03961325e-14 14,-6.03961325e-14 Z M13.0793651,18.4871795 L13.0793651,20.1623932 L14.9206349,20.1623932 L14.9206349,18.4871795 L13.0793651,18.4871795 Z M13.9992219,7.5982906 C11.8315576,7.5982906 10.3174603,9.07450153 10.3174603,11.1879258 L11.7895425,11.1879258 C11.7895425,9.85888083 12.6360676,9.03353782 13.9992219,9.03353782 C15.3203613,9.03353782 16.2089014,9.89984454 16.2089014,11.1879258 C16.2089014,11.9131353 15.6004615,12.8188886 15.012251,13.2785925 C13.6553211,14.334546 13.264737,15.1492688 13.264737,16.9091914 L13.264737,17.6495726 L14.7368192,17.6495726 L14.7368192,16.9091914 C14.7368192,15.5816636 14.9266649,15.1826467 15.9319134,14.4013017 C16.7753262,13.7443651 17.6825397,12.4593182 17.6825397,11.189443 C17.6809836,9.10787937 16.1326519,7.5982906 13.9992219,7.5982906 Z" id="Combined-Shape"></path>
            </g>
        </g>
    </g>
</svg>