<?xml version="1.0" encoding="UTF-8"?>
<svg width="36px" height="36px" viewBox="0 0 36 36" version="1.1" xmlns="http://www.w3.org/2000/svg" xmlns:xlink="http://www.w3.org/1999/xlink">
    <!-- Generator: Sketch 52.5 (67469) - http://www.bohemiancoding.com/sketch -->
    <title>editorial-outline-black</title>
    <desc>Created with Sketch.</desc>
    <g id="editorial-outline-black" stroke="none" stroke-width="1" fill="none" fill-rule="evenodd">
        <g id="Group-41">
            <g id="noun_Book_1003901_000000" transform="translate(5.000000, 7.000000)" fill="#373838">
                <path d="M25.6208333,1.1326148 C21.5583333,-0.367385196 17.1166667,-0.367385196 13,1.0726148 C8.88333333,-0.367385196 4.44166667,-0.367385196 0.379166667,1.1326148 C0.1625,1.1926148 0,1.4326148 0,1.6726148 L0,20.6326148 C0,20.8126148 0.108333333,20.9926148 0.216666667,21.1126148 C0.379166667,21.2326148 0.541666667,21.2326148 0.704166667,21.1726148 C4.60416667,19.7326148 8.88333333,19.7326148 12.8375,21.1726148 C12.8375,21.1726148 12.8916667,21.1726148 12.8916667,21.1726148 C12.8916667,21.1726148 12.9458333,21.1726148 12.9458333,21.1726148 C12.9458333,21.1726148 13,21.1726148 13,21.1726148 C13.0541667,21.1726148 13.1083333,21.1726148 13.1625,21.1726148 C13.1625,21.1726148 13.1625,21.1726148 13.1625,21.1726148 C17.0625,19.7326148 21.3416667,19.7326148 25.2958333,21.1726148 C25.35,21.1726148 25.4041667,21.1726148 25.4583333,21.1726148 C25.5666667,21.1726148 25.675,21.1126148 25.7833333,21.0526148 C25.9458333,20.9326148 26,20.7526148 26,20.5726148 L26,1.6726148 C26,1.4326148 25.8375,1.1926148 25.6208333,1.1326148 Z M6.77083333,18.9526148 C4.82083333,18.9526148 2.925,19.2526148 1.08333333,19.8526148 L1.08333333,2.1526148 C4.76666667,0.892614804 8.775,0.892614804 12.4583333,2.1526148 L12.4583333,19.8526148 C10.6166667,19.2526148 8.72083333,18.9526148 6.77083333,18.9526148 Z M24.9166667,19.7926148 C23.075,19.1926148 21.1791667,18.8926148 19.2291667,18.8926148 C17.2791667,18.8926148 15.3833333,19.1926148 13.5416667,19.7926148 L13.5416667,2.1526148 C17.225,0.892614804 21.2333333,0.892614804 24.9166667,2.1526148 L24.9166667,19.7926148 Z" id="Shape" fill-rule="nonzero"></path>
                <g id="Group-6" transform="translate(1.925926, 4.000000)">
                    <path d="M8.78537843,0.54 C6.02287843,-0.18 3.15204509,-0.18 0.389545092,0.54 C0.118711759,0.6 -0.0437882408,0.96 0.0103784258,1.26 C0.0645450925,1.56 0.389545092,1.8 0.660378426,1.68 C3.26037843,1.02 5.96871176,1.02 8.51454509,1.68 C8.56871176,1.68 8.62287843,1.68 8.62287843,1.68 C8.89371176,1.68 9.11037843,1.5 9.16454509,1.2 C9.27287843,0.96 9.11037843,0.6 8.78537843,0.54 Z" id="Path"></path>
                    <path d="M8.78537843,3.78 C6.02287843,3.06 3.15204509,3.06 0.389545092,3.78 C0.118711759,3.84 -0.0437882408,4.2 0.0103784258,4.5 C0.0645450925,4.8 0.389545092,5.04 0.660378426,4.92 C3.26037843,4.26 5.96871176,4.26 8.51454509,4.92 C8.56871176,4.92 8.62287843,4.92 8.62287843,4.92 C8.89371176,4.92 9.11037843,4.74 9.16454509,4.44 C9.27287843,4.2 9.11037843,3.84 8.78537843,3.78 Z" id="Path-Copy-2"></path>
                    <path d="M8.78537843,7.02 C6.02287843,6.3 3.15204509,6.3 0.389545092,7.02 C0.118711759,7.08 -0.0437882408,7.44 0.0103784258,7.74 C0.0645450925,8.04 0.389545092,8.28 0.660378426,8.16 C3.26037843,7.5 5.96871176,7.5 8.51454509,8.16 C8.56871176,8.16 8.62287843,8.16 8.62287843,8.16 C8.89371176,8.16 9.11037843,7.98 9.16454509,7.68 C9.27287843,7.44 9.11037843,7.08 8.78537843,7.02 Z" id="Path-Copy-5"></path>
                    <path d="M8.78537843,10.26 C6.02287843,9.54 3.15204509,9.54 0.389545092,10.26 C0.118711759,10.32 -0.0437882408,10.68 0.0103784258,10.98 C0.0645450925,11.28 0.389545092,11.52 0.660378426,11.4 C3.26037843,10.74 5.96871176,10.74 8.51454509,11.4 C8.56871176,11.4 8.62287843,11.4 8.62287843,11.4 C8.89371176,11.4 9.11037843,11.22 9.16454509,10.92 C9.27287843,10.68 9.11037843,10.32 8.78537843,10.26 Z" id="Path-Copy-7"></path>
                </g>
                <g id="Group-6-Copy" transform="translate(14.444444, 4.000000)">
                    <path d="M8.78537843,0.54 C6.02287843,-0.18 3.15204509,-0.18 0.389545092,0.54 C0.118711759,0.6 -0.0437882408,0.96 0.0103784258,1.26 C0.0645450925,1.56 0.389545092,1.8 0.660378426,1.68 C3.26037843,1.02 5.96871176,1.02 8.51454509,1.68 C8.56871176,1.68 8.62287843,1.68 8.62287843,1.68 C8.89371176,1.68 9.11037843,1.5 9.16454509,1.2 C9.27287843,0.96 9.11037843,0.6 8.78537843,0.54 Z" id="Path"></path>
                    <path d="M8.78537843,3.78 C6.02287843,3.06 3.15204509,3.06 0.389545092,3.78 C0.118711759,3.84 -0.0437882408,4.2 0.0103784258,4.5 C0.0645450925,4.8 0.389545092,5.04 0.660378426,4.92 C3.26037843,4.26 5.96871176,4.26 8.51454509,4.92 C8.56871176,4.92 8.62287843,4.92 8.62287843,4.92 C8.89371176,4.92 9.11037843,4.74 9.16454509,4.44 C9.27287843,4.2 9.11037843,3.84 8.78537843,3.78 Z" id="Path-Copy-2"></path>
                    <path d="M8.78537843,7.02 C6.02287843,6.3 3.15204509,6.3 0.389545092,7.02 C0.118711759,7.08 -0.0437882408,7.44 0.0103784258,7.74 C0.0645450925,8.04 0.389545092,8.28 0.660378426,8.16 C3.26037843,7.5 5.96871176,7.5 8.51454509,8.16 C8.56871176,8.16 8.62287843,8.16 8.62287843,8.16 C8.89371176,8.16 9.11037843,7.98 9.16454509,7.68 C9.27287843,7.44 9.11037843,7.08 8.78537843,7.02 Z" id="Path-Copy-5"></path>
                    <path d="M8.78537843,10.26 C6.02287843,9.54 3.15204509,9.54 0.389545092,10.26 C0.118711759,10.32 -0.0437882408,10.68 0.0103784258,10.98 C0.0645450925,11.28 0.389545092,11.52 0.660378426,11.4 C3.26037843,10.74 5.96871176,10.74 8.51454509,11.4 C8.56871176,11.4 8.62287843,11.4 8.62287843,11.4 C8.89371176,11.4 9.11037843,11.22 9.16454509,10.92 C9.27287843,10.68 9.11037843,10.32 8.78537843,10.26 Z" id="Path-Copy-7"></path>
                </g>
            </g>
            <rect id="Rectangle-Copy-12" x="0" y="0" width="36" height="36"></rect>
        </g>
    </g>
</svg>