<?xml version="1.0" encoding="UTF-8"?>
<svg width="36px" height="36px" viewBox="0 0 36 36" version="1.1" xmlns="http://www.w3.org/2000/svg" xmlns:xlink="http://www.w3.org/1999/xlink">
    <!-- Generator: Sketch 52.5 (67469) - http://www.bohemiancoding.com/sketch -->
    <title>readers-outline-black</title>
    <desc>Created with Sketch.</desc>
    <g id="readers-outline-black" stroke="none" stroke-width="1" fill="none" fill-rule="evenodd">
        <g id="Group-40">
            <rect id="Rectangle-Copy-9" x="0" y="0" width="36" height="36"></rect>
            <g id="noun_team_314878_000000-copy" transform="translate(5.000000, 8.000000)" fill="#373838" fill-rule="nonzero">
                <path d="M12.8916667,7.68421053 C10.725,7.68421053 8.99166667,6 8.99166667,3.89473684 C8.99166667,1.78947368 10.725,0.105263158 12.8916667,0.105263158 C15.0583333,0.105263158 16.7916667,1.78947368 16.7916667,3.89473684 C16.7916667,6 15.0583333,7.68421053 12.8916667,7.68421053 Z M12.8916667,1.10526316 C11.3208333,1.10526316 10.075,2.31578947 10.075,3.84210526 C10.075,5.36842105 11.3208333,6.57894737 12.8916667,6.57894737 C14.4625,6.57894737 15.7083333,5.36842105 15.7083333,3.84210526 C15.7083333,2.31578947 14.4625,1.10526316 12.8916667,1.10526316 Z" id="Shape"></path>
                <path d="M5.2,9.15789474 C3.68333333,9.15789474 2.4375,7.94736842 2.4375,6.47368421 C2.4375,5 3.68333333,3.78947368 5.2,3.78947368 C6.71666667,3.78947368 7.9625,5 7.9625,6.47368421 C7.9625,7.94736842 6.71666667,9.15789474 5.2,9.15789474 Z M5.2,4.84210526 C4.27916667,4.84210526 3.52083333,5.57894737 3.52083333,6.47368421 C3.52083333,7.36842105 4.27916667,8.10526316 5.2,8.10526316 C6.12083333,8.10526316 6.87916667,7.36842105 6.87916667,6.47368421 C6.87916667,5.57894737 6.12083333,4.84210526 5.2,4.84210526 Z" id="Shape"></path>
                <path d="M20.8,9.15789474 C19.2833333,9.15789474 18.0375,7.94736842 18.0375,6.47368421 C18.0375,5 19.2833333,3.78947368 20.8,3.78947368 C22.3166667,3.78947368 23.5625,5 23.5625,6.47368421 C23.5625,7.94736842 22.3708333,9.15789474 20.8,9.15789474 Z M20.8,4.84210526 C19.8791667,4.84210526 19.1208333,5.57894737 19.1208333,6.47368421 C19.1208333,7.36842105 19.8791667,8.10526316 20.8,8.10526316 C21.7208333,8.10526316 22.4791667,7.36842105 22.4791667,6.47368421 C22.4791667,5.57894737 21.775,4.84210526 20.8,4.84210526 Z" id="Shape"></path>
                <path d="M19.5541667,19.9473684 L6.28333333,19.9473684 C5.95833333,19.9473684 5.74166667,19.7368421 5.74166667,19.4210526 L5.74166667,12.8947368 C5.74166667,10.4210526 7.8,8.42105263 10.3458333,8.42105263 L15.4916667,8.42105263 C18.0375,8.42105263 20.0958333,10.4210526 20.0958333,12.8947368 L20.0958333,19.3684211 C20.0958333,19.6842105 19.825,19.9473684 19.5541667,19.9473684 Z M6.825,18.8947368 L18.9583333,18.8947368 L18.9583333,12.8947368 C18.9583333,11 17.3875,9.47368421 15.4375,9.47368421 L10.2916667,9.47368421 C8.34166667,9.47368421 6.77083333,11 6.77083333,12.8947368 L6.77083333,18.8947368 L6.825,18.8947368 Z" id="Shape"></path>
                <path d="M25.1875,17.7368421 L19.5541667,17.7368421 C19.2291667,17.7368421 19.0125,17.5263158 19.0125,17.2105263 L19.0125,12.9473684 C19.0125,12.1578947 18.7416667,11.3684211 18.2,10.7368421 C18.0916667,10.5789474 18.0375,10.4210526 18.0916667,10.2105263 C18.1458333,10.0526316 18.3083333,9.89473684 18.4708333,9.84210526 C18.6875,9.78947368 18.9041667,9.78947368 19.1208333,9.78947368 L22.4791667,9.78947368 C24.2666667,9.78947368 25.675,11.2105263 25.675,12.8947368 L25.675,17.1578947 C25.7291667,17.4736842 25.5125,17.7368421 25.1875,17.7368421 Z M20.0958333,16.6842105 L24.6458333,16.6842105 L24.6458333,12.9473684 C24.6458333,11.7894737 23.6708333,10.8947368 22.5333333,10.8947368 L19.5541667,10.8947368 C19.8791667,11.5263158 20.0958333,12.2631579 20.0958333,12.9473684 L20.0958333,16.6842105 Z" id="Shape"></path>
                <path d="M6.28333333,17.7368421 L0.8125,17.7368421 C0.4875,17.7368421 0.270833333,17.5263158 0.270833333,17.2105263 L0.270833333,12.9473684 C0.270833333,11.2105263 1.73333333,9.84210526 3.46666667,9.84210526 L6.825,9.84210526 C6.9875,9.84210526 7.15,9.84210526 7.3125,9.89473684 C7.52916667,9.94736842 7.69166667,10.0526316 7.74583333,10.2105263 C7.8,10.3684211 7.8,10.5789474 7.6375,10.7368421 C7.09583333,11.3684211 6.77083333,12.1578947 6.77083333,12.9473684 L6.77083333,17.2105263 C6.825,17.4736842 6.60833333,17.7368421 6.28333333,17.7368421 Z M1.35416667,16.6842105 L5.74166667,16.6842105 L5.74166667,12.9473684 C5.74166667,12.2105263 5.90416667,11.5263158 6.28333333,10.8947368 L3.46666667,10.8947368 C2.275,10.8947368 1.35416667,11.8421053 1.35416667,12.9473684 L1.35416667,16.6842105 Z" id="Shape"></path>
            </g>
        </g>
    </g>
</svg>