<?xml version="1.0" encoding="UTF-8"?>
<svg width="27px" height="26px" viewBox="0 0 27 26" version="1.1" xmlns="http://www.w3.org/2000/svg" xmlns:xlink="http://www.w3.org/1999/xlink">
    <!-- Generator: Sketch 52.4 (67378) - http://www.bohemiancoding.com/sketch -->
    <title>Shape</title>
    <desc>Created with Sketch.</desc>
    <g id="Design" stroke="none" stroke-width="1" fill="none" fill-rule="evenodd">
        <g id="component-nav-bar" transform="translate(-865.000000, -137.000000)" fill="#373838" fill-rule="nonzero">
            <g id="Group-25-Copy-2" transform="translate(865.000000, 137.000000)">
                <g id="noun_Pie-Chart_823810_000000-Copy">
                    <path d="M13.5,0 C13.5,0 13.5,0 13.5,0 C6.075,0 0,5.85 0,13 C0,20.15 6.075,26 13.5,26 C15.80625,26 18.1125,25.4041667 20.1375,24.3208333 C24.35625,21.9916667 27,17.6583333 27,13 C27,5.85 20.925,0 13.5,0 Z M14.0625,1.08333333 C20.41875,1.35416667 25.59375,6.28333333 25.875,12.4583333 L14.0625,12.4583333 L14.0625,1.08333333 Z M13.5,24.9166667 C6.69375,24.9166667 1.125,19.5541667 1.125,13 C1.125,6.60833333 6.35625,1.35416667 12.9375,1.08333333 L12.9375,13 C12.9375,13 12.9375,13.0541667 12.9375,13.0541667 C12.9375,13.0541667 12.9375,13.1083333 12.9375,13.1083333 C12.9375,13.1083333 12.9375,13.1625 12.9375,13.1625 C12.9375,13.1625 12.9375,13.2166667 12.9375,13.2166667 C12.9375,13.2166667 12.9375,13.2166667 12.9375,13.2708333 L19.125,23.6166667 C17.38125,24.4833333 15.46875,24.9166667 13.5,24.9166667 Z M20.08125,23.075 L14.7375,14.0291667 L14.45625,13.5416667 L25.875,13.5416667 C25.65,17.4416667 23.5125,21.0166667 20.08125,23.075 Z" id="Shape"></path>
                </g>
            </g>
        </g>
    </g>
</svg>