<?xml version="1.0" encoding="UTF-8"?>
<svg width="27px" height="22px" viewBox="0 0 27 22" version="1.1" xmlns="http://www.w3.org/2000/svg" xmlns:xlink="http://www.w3.org/1999/xlink">
    <!-- Generator: Sketch 52.4 (67378) - http://www.bohemiancoding.com/sketch -->
    <title>noun_Book_1003901_000000</title>
    <desc>Created with Sketch.</desc>
    <g id="Design" stroke="none" stroke-width="1" fill="none" fill-rule="evenodd">
        <g id="component-nav-bar" transform="translate(-866.000000, -373.000000)" fill="#373838">
            <g id="noun_Book_1003901_000000" transform="translate(866.000000, 373.000000)">
                <path d="M26.60625,1.1326148 C22.3875,-0.367385196 17.775,-0.367385196 13.5,1.0726148 C9.225,-0.367385196 4.6125,-0.367385196 0.39375,1.1326148 C0.16875,1.1926148 0,1.4326148 0,1.6726148 L0,20.6326148 C0,20.8126148 0.1125,20.9926148 0.225,21.1126148 C0.39375,21.2326148 0.5625,21.2326148 0.73125,21.1726148 C4.78125,19.7326148 9.225,19.7326148 13.33125,21.1726148 C13.33125,21.1726148 13.3875,21.1726148 13.3875,21.1726148 C13.3875,21.1726148 13.44375,21.1726148 13.44375,21.1726148 C13.44375,21.1726148 13.5,21.1726148 13.5,21.1726148 C13.55625,21.1726148 13.6125,21.1726148 13.66875,21.1726148 C13.66875,21.1726148 13.66875,21.1726148 13.66875,21.1726148 C17.71875,19.7326148 22.1625,19.7326148 26.26875,21.1726148 C26.325,21.1726148 26.38125,21.1726148 26.4375,21.1726148 C26.55,21.1726148 26.6625,21.1126148 26.775,21.0526148 C26.94375,20.9326148 27,20.7526148 27,20.5726148 L27,1.6726148 C27,1.4326148 26.83125,1.1926148 26.60625,1.1326148 Z M7.03125,18.9526148 C5.00625,18.9526148 3.0375,19.2526148 1.125,19.8526148 L1.125,2.1526148 C4.95,0.892614804 9.1125,0.892614804 12.9375,2.1526148 L12.9375,19.8526148 C11.025,19.2526148 9.05625,18.9526148 7.03125,18.9526148 Z M25.875,19.7926148 C23.9625,19.1926148 21.99375,18.8926148 19.96875,18.8926148 C17.94375,18.8926148 15.975,19.1926148 14.0625,19.7926148 L14.0625,2.1526148 C17.8875,0.892614804 22.05,0.892614804 25.875,2.1526148 L25.875,19.7926148 Z" id="Shape" fill-rule="nonzero"></path>
                <g id="Group-6" transform="translate(2.000000, 4.000000)">
                    <path d="M9.1232776,0.54 C6.2545276,-0.18 3.2732776,-0.18 0.404527596,0.54 C0.123277596,0.6 -0.045472404,0.96 0.010777596,1.26 C0.067027596,1.56 0.404527596,1.8 0.685777596,1.68 C3.3857776,1.02 6.1982776,1.02 8.8420276,1.68 C8.8982776,1.68 8.9545276,1.68 8.9545276,1.68 C9.2357776,1.68 9.4607776,1.5 9.5170276,1.2 C9.6295276,0.96 9.4607776,0.6 9.1232776,0.54 Z" id="Path"></path>
                    <path d="M9.1232776,3.78 C6.2545276,3.06 3.2732776,3.06 0.404527596,3.78 C0.123277596,3.84 -0.045472404,4.2 0.010777596,4.5 C0.067027596,4.8 0.404527596,5.04 0.685777596,4.92 C3.3857776,4.26 6.1982776,4.26 8.8420276,4.92 C8.8982776,4.92 8.9545276,4.92 8.9545276,4.92 C9.2357776,4.92 9.4607776,4.74 9.5170276,4.44 C9.6295276,4.2 9.4607776,3.84 9.1232776,3.78 Z" id="Path-Copy-2"></path>
                    <path d="M9.1232776,7.02 C6.2545276,6.3 3.2732776,6.3 0.404527596,7.02 C0.123277596,7.08 -0.045472404,7.44 0.010777596,7.74 C0.067027596,8.04 0.404527596,8.28 0.685777596,8.16 C3.3857776,7.5 6.1982776,7.5 8.8420276,8.16 C8.8982776,8.16 8.9545276,8.16 8.9545276,8.16 C9.2357776,8.16 9.4607776,7.98 9.5170276,7.68 C9.6295276,7.44 9.4607776,7.08 9.1232776,7.02 Z" id="Path-Copy-5"></path>
                    <path d="M9.1232776,10.26 C6.2545276,9.54 3.2732776,9.54 0.404527596,10.26 C0.123277596,10.32 -0.045472404,10.68 0.010777596,10.98 C0.067027596,11.28 0.404527596,11.52 0.685777596,11.4 C3.3857776,10.74 6.1982776,10.74 8.8420276,11.4 C8.8982776,11.4 8.9545276,11.4 8.9545276,11.4 C9.2357776,11.4 9.4607776,11.22 9.5170276,10.92 C9.6295276,10.68 9.4607776,10.32 9.1232776,10.26 Z" id="Path-Copy-7"></path>
                </g>
                <g id="Group-6-Copy" transform="translate(15.000000, 4.000000)">
                    <path d="M9.1232776,0.54 C6.2545276,-0.18 3.2732776,-0.18 0.404527596,0.54 C0.123277596,0.6 -0.045472404,0.96 0.010777596,1.26 C0.067027596,1.56 0.404527596,1.8 0.685777596,1.68 C3.3857776,1.02 6.1982776,1.02 8.8420276,1.68 C8.8982776,1.68 8.9545276,1.68 8.9545276,1.68 C9.2357776,1.68 9.4607776,1.5 9.5170276,1.2 C9.6295276,0.96 9.4607776,0.6 9.1232776,0.54 Z" id="Path"></path>
                    <path d="M9.1232776,3.78 C6.2545276,3.06 3.2732776,3.06 0.404527596,3.78 C0.123277596,3.84 -0.045472404,4.2 0.010777596,4.5 C0.067027596,4.8 0.404527596,5.04 0.685777596,4.92 C3.3857776,4.26 6.1982776,4.26 8.8420276,4.92 C8.8982776,4.92 8.9545276,4.92 8.9545276,4.92 C9.2357776,4.92 9.4607776,4.74 9.5170276,4.44 C9.6295276,4.2 9.4607776,3.84 9.1232776,3.78 Z" id="Path-Copy-2"></path>
                    <path d="M9.1232776,7.02 C6.2545276,6.3 3.2732776,6.3 0.404527596,7.02 C0.123277596,7.08 -0.045472404,7.44 0.010777596,7.74 C0.067027596,8.04 0.404527596,8.28 0.685777596,8.16 C3.3857776,7.5 6.1982776,7.5 8.8420276,8.16 C8.8982776,8.16 8.9545276,8.16 8.9545276,8.16 C9.2357776,8.16 9.4607776,7.98 9.5170276,7.68 C9.6295276,7.44 9.4607776,7.08 9.1232776,7.02 Z" id="Path-Copy-5"></path>
                    <path d="M9.1232776,10.26 C6.2545276,9.54 3.2732776,9.54 0.404527596,10.26 C0.123277596,10.32 -0.045472404,10.68 0.010777596,10.98 C0.067027596,11.28 0.404527596,11.52 0.685777596,11.4 C3.3857776,10.74 6.1982776,10.74 8.8420276,11.4 C8.8982776,11.4 8.9545276,11.4 8.9545276,11.4 C9.2357776,11.4 9.4607776,11.22 9.5170276,10.92 C9.6295276,10.68 9.4607776,10.32 9.1232776,10.26 Z" id="Path-Copy-7"></path>
                </g>
            </g>
        </g>
    </g>
</svg>