<?xml version="1.0" encoding="UTF-8"?>
<svg width="29px" height="28px" viewBox="0 0 29 28" version="1.1" xmlns="http://www.w3.org/2000/svg" xmlns:xlink="http://www.w3.org/1999/xlink">
    <!-- Generator: Sketch 52.4 (67378) - http://www.bohemiancoding.com/sketch -->
    <title>noun_help_677616_000000 copy</title>
    <desc>Created with Sketch.</desc>
    <g id="Design" stroke="none" stroke-width="1" fill="none" fill-rule="evenodd">
        <g id="component-nav-bar" transform="translate(-865.000000, -600.000000)" fill="#373838">
            <g id="Group-25-Copy-2" transform="translate(865.000000, 137.000000)">
                <g id="noun_help_677616_000000-copy" transform="translate(0.000000, 463.000000)">
                    <path d="M14.5,0 C6.5058865,0 0,6.28045283 0,14.0007044 C0,21.720956 6.5058865,28 14.5,28 C22.4941135,28 29,21.7195472 29,13.9992956 C29,6.27904403 22.4941135,0 14.5,0 Z M14.5,26.6658616 C7.26604951,26.6658616 1.38171664,20.9841509 1.38171664,13.9992956 C1.38171664,7.01444025 7.26604951,1.33272956 14.5,1.33272956 C21.7339505,1.33272956 27.6182834,7.01444025 27.6182834,13.9992956 C27.6182834,20.9841509 21.7339505,26.6658616 14.5,26.6658616 Z" id="Shape" fill-rule="nonzero"></path>
                    <rect id="Rectangle" x="13.6944444" y="18.6666667" width="1.61111111" height="1.55555556"></rect>
                    <path d="M14.4993192,8.55555556 C12.6026129,8.55555556 11.2777778,9.92632285 11.2777778,11.8887883 L12.5658497,11.8887883 C12.5658497,10.6546751 13.3065591,9.88828512 14.4993192,9.88828512 C15.6553161,9.88828512 16.4327887,10.6927128 16.4327887,11.8887883 C16.4327887,12.5621971 15.9004038,13.4032537 15.3857197,13.8301216 C14.198406,14.8106499 13.8566448,15.5671782 13.8566448,17.201392 L13.8566448,17.8888889 L15.1447168,17.8888889 L15.1447168,17.201392 C15.1447168,15.9686876 15.3108317,15.5981719 16.1904242,14.8726373 C16.9284105,14.2626247 17.7222222,13.0693669 17.7222222,11.8901971 C17.7208606,9.95731656 16.3660704,8.55555556 14.4993192,8.55555556 Z" id="Path"></path>
                </g>
            </g>
        </g>
    </g>
</svg>