<?xml version="1.0" encoding="UTF-8"?>
<svg width="27px" height="26px" viewBox="0 0 27 26" version="1.1" xmlns="http://www.w3.org/2000/svg" xmlns:xlink="http://www.w3.org/1999/xlink">
    <!-- Generator: Sketch 52.4 (67378) - http://www.bohemiancoding.com/sketch -->
    <title>noun_memo_1003823_000000 copy</title>
    <desc>Created with Sketch.</desc>
    <g id="Design" stroke="none" stroke-width="1" fill="none" fill-rule="evenodd">
        <g id="component-nav-bar" transform="translate(-865.000000, -214.000000)" fill="#373838">
            <g id="Group-25-Copy-2" transform="translate(865.000000, 137.000000)">
                <g id="noun_memo_1003823_000000-copy" transform="translate(0.000000, 77.000000)">
                    <path d="M24.75,0 L2.25,0 C1.0125,0 0,0.975 0,2.16666667 L0,23.8333333 C0,25.025 1.0125,26 2.25,26 L24.75,26 C25.9875,26 27,25.025 27,23.8333333 L27,2.16666667 C27,0.975 25.9875,0 24.75,0 Z M25.875,23.8333333 C25.875,24.4291667 25.36875,24.9166667 24.75,24.9166667 L2.25,24.9166667 C1.63125,24.9166667 1.125,24.4291667 1.125,23.8333333 L1.125,2.16666667 C1.125,1.57083333 1.63125,1.08333333 2.25,1.08333333 L24.75,1.08333333 C25.36875,1.08333333 25.875,1.57083333 25.875,2.16666667 L25.875,23.8333333 Z" id="Shape" fill-rule="nonzero"></path>
                    <path d="M5.4,4.60416667 L4.275,4.60416667 C3.9375,4.60416667 3.7125,4.82083333 3.7125,5.14583333 C3.7125,5.47083333 3.9375,5.6875 4.275,5.6875 L5.45625,5.6875 C5.79375,5.6875 6.01875,5.47083333 6.01875,5.14583333 C5.9625,4.875 5.7375,4.60416667 5.4,4.60416667 Z" id="Path"></path>
                    <path d="M22.725,4.60416667 L8.38125,4.60416667 C8.04375,4.60416667 7.81875,4.82083333 7.81875,5.14583333 C7.81875,5.47083333 8.04375,5.6875 8.38125,5.6875 L22.725,5.6875 C23.0625,5.6875 23.2875,5.47083333 23.2875,5.14583333 C23.2875,4.875 23.0625,4.60416667 22.725,4.60416667 Z" id="Path"></path>
                    <path d="M5.4,9.85833333 L4.275,9.85833333 C3.9375,9.85833333 3.7125,10.075 3.7125,10.4 C3.7125,10.725 3.9375,10.9416667 4.275,10.9416667 L5.45625,10.9416667 C5.79375,10.9416667 6.01875,10.725 6.01875,10.4 C5.9625,10.075 5.7375,9.85833333 5.4,9.85833333 Z" id="Path"></path>
                    <path d="M22.725,9.85833333 L8.38125,9.85833333 C8.04375,9.85833333 7.81875,10.075 7.81875,10.4 C7.81875,10.725 8.04375,10.9416667 8.38125,10.9416667 L22.725,10.9416667 C23.0625,10.9416667 23.2875,10.725 23.2875,10.4 C23.2875,10.075 23.0625,9.85833333 22.725,9.85833333 Z" id="Path"></path>
                    <path d="M5.4,15.0583333 L4.275,15.0583333 C3.9375,15.0583333 3.7125,15.275 3.7125,15.6 C3.7125,15.925 3.9375,16.1416667 4.275,16.1416667 L5.45625,16.1416667 C5.79375,16.1416667 6.01875,15.925 6.01875,15.6 C5.9625,15.3291667 5.7375,15.0583333 5.4,15.0583333 Z" id="Path"></path>
                    <path d="M22.725,15.0583333 L8.38125,15.0583333 C8.04375,15.0583333 7.81875,15.275 7.81875,15.6 C7.81875,15.925 8.04375,16.1416667 8.38125,16.1416667 L22.725,16.1416667 C23.0625,16.1416667 23.2875,15.925 23.2875,15.6 C23.2875,15.3291667 23.0625,15.0583333 22.725,15.0583333 Z" id="Path"></path>
                    <path d="M5.4,20.3125 L4.275,20.3125 C3.9375,20.3125 3.7125,20.5291667 3.7125,20.8541667 C3.7125,21.1791667 3.9375,21.3958333 4.275,21.3958333 L5.45625,21.3958333 C5.79375,21.3958333 6.01875,21.1791667 6.01875,20.8541667 C5.9625,20.5291667 5.7375,20.3125 5.4,20.3125 Z" id="Path"></path>
                    <path d="M22.725,20.3125 L8.38125,20.3125 C8.04375,20.3125 7.81875,20.5291667 7.81875,20.8541667 C7.81875,21.1791667 8.04375,21.3958333 8.38125,21.3958333 L22.725,21.3958333 C23.0625,21.3958333 23.2875,21.1791667 23.2875,20.8541667 C23.2875,20.5291667 23.0625,20.3125 22.725,20.3125 Z" id="Path"></path>
                </g>
            </g>
        </g>
    </g>
</svg>