<?xml version="1.0" encoding="UTF-8"?>
<svg width="27px" height="21px" viewBox="0 0 27 21" version="1.1" xmlns="http://www.w3.org/2000/svg" xmlns:xlink="http://www.w3.org/1999/xlink">
    <!-- Generator: Sketch 52.4 (67378) - http://www.bohemiancoding.com/sketch -->
    <title>noun_team_314878_000000 copy</title>
    <desc>Created with Sketch.</desc>
    <g id="Design" stroke="none" stroke-width="1" fill="none" fill-rule="evenodd">
        <g id="component-nav-bar" transform="translate(-865.000000, -446.000000)" fill="#373838" fill-rule="nonzero">
            <g id="Group-25-Copy-2" transform="translate(865.000000, 137.000000)">
                <g id="noun_team_314878_000000-copy" transform="translate(0.000000, 309.000000)">
                    <path d="M13.3875,8.06842105 C11.1375,8.06842105 9.3375,6.3 9.3375,4.08947368 C9.3375,1.87894737 11.1375,0.110526316 13.3875,0.110526316 C15.6375,0.110526316 17.4375,1.87894737 17.4375,4.08947368 C17.4375,6.3 15.6375,8.06842105 13.3875,8.06842105 Z M13.3875,1.16052632 C11.75625,1.16052632 10.4625,2.43157895 10.4625,4.03421053 C10.4625,5.63684211 11.75625,6.90789474 13.3875,6.90789474 C15.01875,6.90789474 16.3125,5.63684211 16.3125,4.03421053 C16.3125,2.43157895 15.01875,1.16052632 13.3875,1.16052632 Z" id="Shape"></path>
                    <path d="M5.4,9.61578947 C3.825,9.61578947 2.53125,8.34473684 2.53125,6.79736842 C2.53125,5.25 3.825,3.97894737 5.4,3.97894737 C6.975,3.97894737 8.26875,5.25 8.26875,6.79736842 C8.26875,8.34473684 6.975,9.61578947 5.4,9.61578947 Z M5.4,5.08421053 C4.44375,5.08421053 3.65625,5.85789474 3.65625,6.79736842 C3.65625,7.73684211 4.44375,8.51052632 5.4,8.51052632 C6.35625,8.51052632 7.14375,7.73684211 7.14375,6.79736842 C7.14375,5.85789474 6.35625,5.08421053 5.4,5.08421053 Z" id="Shape"></path>
                    <path d="M21.6,9.61578947 C20.025,9.61578947 18.73125,8.34473684 18.73125,6.79736842 C18.73125,5.25 20.025,3.97894737 21.6,3.97894737 C23.175,3.97894737 24.46875,5.25 24.46875,6.79736842 C24.46875,8.34473684 23.23125,9.61578947 21.6,9.61578947 Z M21.6,5.08421053 C20.64375,5.08421053 19.85625,5.85789474 19.85625,6.79736842 C19.85625,7.73684211 20.64375,8.51052632 21.6,8.51052632 C22.55625,8.51052632 23.34375,7.73684211 23.34375,6.79736842 C23.34375,5.85789474 22.6125,5.08421053 21.6,5.08421053 Z" id="Shape"></path>
                    <path d="M20.30625,20.9447368 L6.525,20.9447368 C6.1875,20.9447368 5.9625,20.7236842 5.9625,20.3921053 L5.9625,13.5394737 C5.9625,10.9421053 8.1,8.84210526 10.74375,8.84210526 L16.0875,8.84210526 C18.73125,8.84210526 20.86875,10.9421053 20.86875,13.5394737 L20.86875,20.3368421 C20.86875,20.6684211 20.5875,20.9447368 20.30625,20.9447368 Z M7.0875,19.8394737 L19.6875,19.8394737 L19.6875,13.5394737 C19.6875,11.55 18.05625,9.94736842 16.03125,9.94736842 L10.6875,9.94736842 C8.6625,9.94736842 7.03125,11.55 7.03125,13.5394737 L7.03125,19.8394737 L7.0875,19.8394737 Z" id="Shape"></path>
                    <path d="M26.15625,18.6236842 L20.30625,18.6236842 C19.96875,18.6236842 19.74375,18.4026316 19.74375,18.0710526 L19.74375,13.5947368 C19.74375,12.7657895 19.4625,11.9368421 18.9,11.2736842 C18.7875,11.1078947 18.73125,10.9421053 18.7875,10.7210526 C18.84375,10.5552632 19.0125,10.3894737 19.18125,10.3342105 C19.40625,10.2789474 19.63125,10.2789474 19.85625,10.2789474 L23.34375,10.2789474 C25.2,10.2789474 26.6625,11.7710526 26.6625,13.5394737 L26.6625,18.0157895 C26.71875,18.3473684 26.49375,18.6236842 26.15625,18.6236842 Z M20.86875,17.5184211 L25.59375,17.5184211 L25.59375,13.5947368 C25.59375,12.3789474 24.58125,11.4394737 23.4,11.4394737 L20.30625,11.4394737 C20.64375,12.1026316 20.86875,12.8763158 20.86875,13.5947368 L20.86875,17.5184211 Z" id="Shape"></path>
                    <path d="M6.525,18.6236842 L0.84375,18.6236842 C0.50625,18.6236842 0.28125,18.4026316 0.28125,18.0710526 L0.28125,13.5947368 C0.28125,11.7710526 1.8,10.3342105 3.6,10.3342105 L7.0875,10.3342105 C7.25625,10.3342105 7.425,10.3342105 7.59375,10.3894737 C7.81875,10.4447368 7.9875,10.5552632 8.04375,10.7210526 C8.1,10.8868421 8.1,11.1078947 7.93125,11.2736842 C7.36875,11.9368421 7.03125,12.7657895 7.03125,13.5947368 L7.03125,18.0710526 C7.0875,18.3473684 6.8625,18.6236842 6.525,18.6236842 Z M1.40625,17.5184211 L5.9625,17.5184211 L5.9625,13.5947368 C5.9625,12.8210526 6.13125,12.1026316 6.525,11.4394737 L3.6,11.4394737 C2.3625,11.4394737 1.40625,12.4342105 1.40625,13.5947368 L1.40625,17.5184211 Z" id="Shape"></path>
                </g>
            </g>
        </g>
    </g>
</svg>