<?xml version="1.0" encoding="UTF-8"?>
<svg width="36px" height="36px" viewBox="0 0 36 36" version="1.1" xmlns="http://www.w3.org/2000/svg" xmlns:xlink="http://www.w3.org/1999/xlink">
    <!-- Generator: Sketch 52.5 (67469) - http://www.bohemiancoding.com/sketch -->
    <title>editorial-solid-blue</title>
    <desc>Created with Sketch.</desc>
    <g id="editorial-solid-blue" stroke="none" stroke-width="1" fill="none" fill-rule="evenodd">
        <g id="Group-41">
            <rect id="Rectangle-Copy-12" x="0" y="0" width="36" height="36"></rect>
            <g id="noun_Book_1003901_000000" transform="translate(5.000000, 7.000000)">
                <path d="M25.6208333,1.1326148 C25.8375,1.1926148 26,1.4326148 26,1.6726148 L26,20.5726148 C26,20.7526148 25.9458333,20.9326148 25.7833333,21.0526148 C25.675,21.1126148 25.5666667,21.1726148 25.4583333,21.1726148 C25.4041667,21.1726148 25.35,21.1726148 25.2958333,21.1726148 C21.3416667,19.7326148 17.0625,19.7326148 13.1625,21.1726148 C13.1083333,21.1726148 13.0541667,21.1726148 13,21.1726148 C13,21.1726148 12.9458333,21.1726148 12.9458333,21.1726148 C12.9458333,21.1726148 12.8916667,21.1726148 12.8916667,21.1726148 C12.8916667,21.1726148 12.8375,21.1726148 12.8375,21.1726148 C8.88333333,19.7326148 4.60416667,19.7326148 0.704166667,21.1726148 C0.541666667,21.2326148 0.379166667,21.2326148 0.216666667,21.1126148 C0.108333333,20.9926148 -2.66453526e-14,20.8126148 -2.66453526e-14,20.6326148 L-2.66453526e-14,1.6726148 C-2.66453526e-14,1.4326148 0.1625,1.1926148 0.379166667,1.1326148 C4.44166667,-0.367385196 8.88333333,-0.367385196 13,1.0726148 C17.1166667,-0.367385196 21.5583333,-0.367385196 25.6208333,1.1326148 Z M10.7113044,4.54 C7.94880435,3.82 5.07797102,3.82 2.31547102,4.54 C2.04463769,4.6 1.88213769,4.96 1.93630435,5.26 C1.99047102,5.56 2.31547102,5.8 2.58630435,5.68 C5.18630435,5.02 7.89463769,5.02 10.440471,5.68 C10.4946377,5.68 10.5488044,5.68 10.5488044,5.68 C10.8196377,5.68 11.0363044,5.5 11.090471,5.2 C11.1988044,4.96 11.0363044,4.6 10.7113044,4.54 Z M10.7113044,7.78 C7.94880435,7.06 5.07797102,7.06 2.31547102,7.78 C2.04463769,7.84 1.88213769,8.2 1.93630435,8.5 C1.99047102,8.8 2.31547102,9.04 2.58630435,8.92 C5.18630435,8.26 7.89463769,8.26 10.440471,8.92 C10.4946377,8.92 10.5488044,8.92 10.5488044,8.92 C10.8196377,8.92 11.0363044,8.74 11.090471,8.44 C11.1988044,8.2 11.0363044,7.84 10.7113044,7.78 Z M10.7113044,11.02 C7.94880435,10.3 5.07797102,10.3 2.31547102,11.02 C2.04463769,11.08 1.88213769,11.44 1.93630435,11.74 C1.99047102,12.04 2.31547102,12.28 2.58630435,12.16 C5.18630435,11.5 7.89463769,11.5 10.440471,12.16 C10.4946377,12.16 10.5488044,12.16 10.5488044,12.16 C10.8196377,12.16 11.0363044,11.98 11.090471,11.68 C11.1988044,11.44 11.0363044,11.08 10.7113044,11.02 Z M10.7113044,14.26 C7.94880435,13.54 5.07797102,13.54 2.31547102,14.26 C2.04463769,14.32 1.88213769,14.68 1.93630435,14.98 C1.99047102,15.28 2.31547102,15.52 2.58630435,15.4 C5.18630435,14.74 7.89463769,14.74 10.440471,15.4 C10.4946377,15.4 10.5488044,15.4 10.5488044,15.4 C10.8196377,15.4 11.0363044,15.22 11.090471,14.92 C11.1988044,14.68 11.0363044,14.32 10.7113044,14.26 Z M23.2298229,4.54 C20.4673229,3.82 17.5964895,3.82 14.8339895,4.54 C14.5631562,4.6 14.4006562,4.96 14.4548229,5.26 C14.5089895,5.56 14.8339895,5.8 15.1048229,5.68 C17.7048229,5.02 20.4131562,5.02 22.9589895,5.68 C23.0131562,5.68 23.0673229,5.68 23.0673229,5.68 C23.3381562,5.68 23.5548229,5.5 23.6089895,5.2 C23.7173229,4.96 23.5548229,4.6 23.2298229,4.54 Z M23.2298229,7.78 C20.4673229,7.06 17.5964895,7.06 14.8339895,7.78 C14.5631562,7.84 14.4006562,8.2 14.4548229,8.5 C14.5089895,8.8 14.8339895,9.04 15.1048229,8.92 C17.7048229,8.26 20.4131562,8.26 22.9589895,8.92 C23.0131562,8.92 23.0673229,8.92 23.0673229,8.92 C23.3381562,8.92 23.5548229,8.74 23.6089895,8.44 C23.7173229,8.2 23.5548229,7.84 23.2298229,7.78 Z M23.2298229,11.02 C20.4673229,10.3 17.5964895,10.3 14.8339895,11.02 C14.5631562,11.08 14.4006562,11.44 14.4548229,11.74 C14.5089895,12.04 14.8339895,12.28 15.1048229,12.16 C17.7048229,11.5 20.4131562,11.5 22.9589895,12.16 C23.0131562,12.16 23.0673229,12.16 23.0673229,12.16 C23.3381562,12.16 23.5548229,11.98 23.6089895,11.68 C23.7173229,11.44 23.5548229,11.08 23.2298229,11.02 Z M23.2298229,14.26 C20.4673229,13.54 17.5964895,13.54 14.8339895,14.26 C14.5631562,14.32 14.4006562,14.68 14.4548229,14.98 C14.5089895,15.28 14.8339895,15.52 15.1048229,15.4 C17.7048229,14.74 20.4131562,14.74 22.9589895,15.4 C23.0131562,15.4 23.0673229,15.4 23.0673229,15.4 C23.3381562,15.4 23.5548229,15.22 23.6089895,14.92 C23.7173229,14.68 23.5548229,14.32 23.2298229,14.26 Z" id="Shape" fill="#4D8FFF" fill-rule="nonzero"></path>
                <g id="Group-6" transform="translate(1.925926, 4.000000)"></g>
                <g id="Group-6-Copy" transform="translate(14.444444, 4.000000)"></g>
            </g>
        </g>
    </g>
</svg>