<?xml version="1.0" encoding="UTF-8"?>
<svg width="36px" height="36px" viewBox="0 0 36 36" version="1.1" xmlns="http://www.w3.org/2000/svg" xmlns:xlink="http://www.w3.org/1999/xlink">
    <!-- Generator: Sketch 52.5 (67469) - http://www.bohemiancoding.com/sketch -->
    <title>help-outline-black</title>
    <desc>Created with Sketch.</desc>
    <g id="help-outline-black" stroke="none" stroke-width="1" fill="none" fill-rule="evenodd">
        <g id="Group-37">
            <rect id="Rectangle-Copy-11" x="0" y="0" width="36" height="36"></rect>
            <g id="noun_help_677616_000000-copy" transform="translate(4.000000, 4.000000)" fill="#373838">
                <path d="M14,0 C6.28154558,0 0,6.28045283 0,14.0007044 C0,21.720956 6.28154558,28 14,28 C21.7184544,28 28,21.7195472 28,13.9992956 C28,6.27904403 21.7184544,0 14,0 Z M14,26.6658616 C7.01549608,26.6658616 1.33407124,20.9841509 1.33407124,13.9992956 C1.33407124,7.01444025 7.01549608,1.33272956 14,1.33272956 C20.9845039,1.33272956 26.6659288,7.01444025 26.6659288,13.9992956 C26.6659288,20.9841509 20.9845039,26.6658616 14,26.6658616 Z" id="Shape" fill-rule="nonzero"></path>
                <g id="Group-32" transform="translate(10.000000, 7.000000)">
                    <rect id="Rectangle" x="3.07936508" y="11.4871795" width="1.84126984" height="1.67521368"></rect>
                    <path d="M3.99922194,0.598290598 C1.83155755,0.598290598 0.317460317,2.07450153 0.317460317,4.18792582 L1.78954252,4.18792582 C1.78954252,2.85888083 2.6360676,2.03353782 3.99922194,2.03353782 C5.32036126,2.03353782 6.20890136,2.89984454 6.20890136,4.18792582 C6.20890136,4.9131353 5.60046147,5.81888857 5.01225103,6.27859249 C3.65532113,7.33454604 3.26473695,8.14926883 3.26473695,9.90919142 L3.26473695,10.6495726 L4.73681916,10.6495726 L4.73681916,9.90919142 C4.73681916,8.5816636 4.92666486,8.18264667 5.93191338,7.40130173 C6.77532623,6.7443651 7.68253968,5.45931817 7.68253968,4.18944299 C7.68098357,2.10787937 6.13265186,0.598290598 3.99922194,0.598290598 Z" id="Path"></path>
                </g>
            </g>
        </g>
    </g>
</svg>