<?xml version="1.0" encoding="UTF-8"?>
<svg width="36px" height="36px" viewBox="0 0 36 36" version="1.1" xmlns="http://www.w3.org/2000/svg" xmlns:xlink="http://www.w3.org/1999/xlink">
    <!-- Generator: Sketch 52.5 (67469) - http://www.bohemiancoding.com/sketch -->
    <title>readers-solid-blue</title>
    <desc>Created with Sketch.</desc>
    <g id="readers-solid-blue" stroke="none" stroke-width="1" fill="none" fill-rule="evenodd">
        <g id="Group-40">
            <rect id="Rectangle-Copy-9" x="0" y="0" width="36" height="36"></rect>
            <g id="Group-36" transform="translate(5.000000, 8.000000)" fill="#4D8FFF" fill-rule="nonzero">
                <path d="M12.8916667,8.06842105 C10.725,8.06842105 8.99166667,6.3 8.99166667,4.08947368 C8.99166667,1.87894737 10.725,0.110526316 12.8916667,0.110526316 C15.0583333,0.110526316 16.7916667,1.87894737 16.7916667,4.08947368 C16.7916667,6.3 15.0583333,8.06842105 12.8916667,8.06842105 Z" id="Shape"></path>
                <path d="M5.2,9.61578947 C3.68333333,9.61578947 2.4375,8.34473684 2.4375,6.79736842 C2.4375,5.25 3.68333333,3.97894737 5.2,3.97894737 C6.71666667,3.97894737 7.9625,5.25 7.9625,6.79736842 C7.9625,8.34473684 6.71666667,9.61578947 5.2,9.61578947 Z" id="Shape"></path>
                <path d="M20.8,9.61578947 C19.2833333,9.61578947 18.0375,8.34473684 18.0375,6.79736842 C18.0375,5.25 19.2833333,3.97894737 20.8,3.97894737 C22.3166667,3.97894737 23.5625,5.25 23.5625,6.79736842 C23.5625,8.34473684 22.3708333,9.61578947 20.8,9.61578947 Z" id="Shape"></path>
                <path d="M6.93537869,19.8394737 L19.068712,19.8394737 L19.068712,13.5394737 C19.068712,11.55 17.4978787,9.94736842 15.5478787,9.94736842 L10.4020454,9.94736842 C8.45204536,9.94736842 6.88121202,11.55 6.88121202,13.5394737 L6.88121202,19.8394737 L6.93537869,19.8394737 Z" id="Shape"></path>
                <path d="M5.47083333,18.2894737 L0.541666667,18.2894737 C0.216666667,18.2894737 -1.70530257e-13,18.0684211 -1.70530257e-13,17.7368421 L-1.70530257e-13,13.2605263 C-1.70530257e-13,11.4368421 1.4625,10 3.19583333,10 L6.69066479,10 L6.68256761,10.0567037 L6.0125,11.1052632 C5.63333333,11.7684211 5.47083333,12.4868421 5.47083333,13.2605263 L5.47083333,17.1842105 L5.47083333,18.2894737 Z" id="Combined-Shape"></path>
                <path d="M24.7300926,18.2894737 L19.8009259,18.2894737 C19.4759259,18.2894737 19.2592593,18.0684211 19.2592593,17.7368421 L19.2592593,13.2605263 C19.2592593,11.4368421 20.7217593,10 22.4550926,10 L25.949924,10 L25.9418269,10.0567037 L25.2717593,11.1052632 C24.8925926,11.7684211 24.7300926,12.4868421 24.7300926,13.2605263 L24.7300926,17.1842105 L24.7300926,18.2894737 Z" id="Combined-Shape-Copy" transform="translate(22.604592, 14.144737) scale(-1, 1) translate(-22.604592, -14.144737) "></path>
            </g>
        </g>
    </g>
</svg>