<?xml version="1.0" encoding="UTF-8"?>
<svg xmlns="http://www.w3.org/2000/svg" xmlns:xlink="http://www.w3.org/1999/xlink" width="711px" height="200px" version="1.1" viewBox="0 0 711 200">
    <title>
        logo-slice
    </title>
    <defs/>
    <g id="Onboarding" fill="none" fillRule="evenodd" stroke="none" strokeWidth="1">
        <g id="logo-slice">
            <rect id="Rectangle-2-Copy" width="690" height="100" x="20.3389831" y="94.9152542" fill="#FFF174"/>
            <path id="Perlego" fill="#373838" d="M0,154.410307 L0,154.013875 C5.77142192,139.940535 7.96058195,131.813677 7.96058195,112.58672 L7.96058195,51.1397423 C7.96058195,31.7145689 5.77142192,23.7859267 0,9.71258672 L0,9.31615461 L58.3112628,9.31615461 C103.288551,9.31615461 117.020555,26.3627354 117.020555,49.1575818 C117.020555,74.3310208 99.5072744,94.9454906 54.3309718,94.9454906 L43.5841862,94.9454906 L43.5841862,112.58672 C43.5841862,131.615461 45.5743317,139.940535 51.7437827,154.013875 L51.7437827,154.410307 L0,154.410307 Z M49.5546227,13.8751239 C47.9625063,13.8751239 45.9723608,13.8751239 43.5841862,14.0733399 L43.5841862,90.3865213 L49.3556081,90.3865213 C73.0383394,90.3865213 80.6008923,67.5916749 80.6008923,49.1575818 C80.6008923,28.1466799 71.0481939,13.8751239 49.5546227,13.8751239 Z M163.987988,58.2755203 C153.639232,58.2755203 148.464853,74.7274529 148.464853,92.765114 L176.724919,92.3686819 L176.724919,84.8364718 C176.724919,66.2041625 171.749556,58.2755203 163.987988,58.2755203 Z M207.572174,126.065411 C202.198782,144.697721 187.073676,157.383548 164.386017,157.383548 C134.33482,157.383548 116.025482,135.579782 116.025482,107.829534 C116.025482,76.7096135 137.519053,54.7076313 165.182076,54.7076313 C193.044112,54.7076313 208.169218,76.7096135 207.771189,96.9276511 L148.464853,96.7294351 C149.459926,125.867195 163.390945,134.985134 180.904225,134.985134 C194.636229,134.985134 202.99484,129.435084 206.577102,125.470763 L207.572174,126.065411 Z M263.495263,154.410307 L221.901222,154.410307 L221.901222,154.013875 C225.085455,144.301288 226.677571,136.372646 226.677571,119.524281 L226.677571,97.1258672 C226.677571,82.4578791 223.891367,73.9345887 216.726844,65.6095144 L216.726844,65.2130823 L257.922855,53.716551 L257.922855,77.7006938 C266.281466,69.1774034 276.033179,53.518335 293.14843,54.7076313 L289.566169,88.0079286 L288.571096,88.0079286 C283.595732,81.2685828 272.848946,76.3131814 267.873583,76.3131814 C264.888364,76.3131814 261.505117,78.691774 258.718913,82.061447 L258.718913,119.524281 C258.718913,135.976214 260.31103,144.301288 263.495263,154.013875 L263.495263,154.410307 Z M303.497187,154.410307 L303.497187,154.013875 C306.283391,146.085233 308.273536,139.147671 308.273536,123.290387 L308.273536,43.4093162 C308.273536,28.543112 305.487332,20.2180377 298.322809,11.8929633 L298.322809,11.4965312 L340.314878,0 L340.314878,123.290387 C340.314878,138.751239 342.305024,146.085233 345.091228,154.013875 L345.091228,154.410307 L303.497187,154.410307 Z M403.203476,58.2755203 C392.854719,58.2755203 387.680341,74.7274529 387.680341,92.765114 L415.940407,92.3686819 L415.940407,84.8364718 C415.940407,66.2041625 410.965043,58.2755203 403.203476,58.2755203 Z M446.787662,126.065411 C441.414269,144.697721 426.289164,157.383548 403.601505,157.383548 C373.550308,157.383548 355.24097,135.579782 355.24097,107.829534 C355.24097,76.7096135 376.734541,54.7076313 404.397563,54.7076313 C432.2596,54.7076313 447.384706,76.7096135 446.986677,96.9276511 L387.680341,96.7294351 C388.675414,125.867195 402.606432,134.985134 420.119713,134.985134 C433.851716,134.985134 442.210327,129.435084 445.792589,125.470763 L446.787662,126.065411 Z M501.516663,120.11893 C510.273303,120.11893 513.855565,108.622398 513.855565,89.395441 C513.855565,69.7720515 510.472318,58.2755203 501.317648,58.2755203 C491.963965,58.2755203 489.177761,69.7720515 489.177761,89.395441 C489.177761,108.622398 492.561008,120.11893 501.516663,120.11893 Z M557.638766,166.501487 C557.439751,186.91774 535.94618,200 498.730459,200 C470.072364,200 452.360069,192.46779 452.360069,180.178394 C452.360069,171.456888 461.315724,165.708622 471.266452,163.528246 C461.315724,159.960357 456.34036,153.419227 456.34036,143.904856 C456.34036,129.038652 468.281233,121.308226 477.833932,118.334985 C465.893059,112.388503 458.330506,101.684836 458.330506,89.395441 C458.330506,69.7720515 476.241815,54.7076313 501.317648,54.7076313 C512.661478,54.7076313 522.612205,57.8790882 530.174758,63.2309217 L557.638766,46.1843409 L558.036795,46.580773 L558.036795,68.9791873 L557.240737,68.9791873 L533.956034,66.2041625 C540.523515,72.1506442 544.503806,80.2775025 544.503806,89.395441 C544.503806,108.622398 526.592496,123.686819 501.516663,123.686819 C493.755096,123.686819 486.590572,122.10109 480.421121,119.524281 C477.833932,121.506442 476.639844,124.083251 476.639844,127.254708 C476.639844,133.795837 481.416194,136.570862 494.750168,137.16551 L512.462463,137.958375 C540.921544,139.544103 557.83778,148.860258 557.638766,166.501487 Z M505.695969,194.846383 C526.592496,194.846383 537.737311,188.899901 537.737311,179.781962 C537.737311,171.85332 529.179685,168.880079 508.482172,167.690783 L488.779732,166.699703 C483.207325,166.303271 478.430975,165.708622 474.25167,164.519326 C472.659553,166.897919 471.067437,170.267592 471.067437,175.024777 C471.067437,189.296333 485.993528,194.846383 505.695969,194.846383 Z M612.566781,157.383548 C583.311643,157.383548 559.031868,133.795837 559.031868,106.243806 C559.031868,78.691774 583.311643,54.7076313 612.566781,54.7076313 C641.82192,54.7076313 666.101695,78.691774 666.101695,106.243806 C666.101695,133.795837 641.82192,157.383548 612.566781,157.383548 Z M612.566781,153.617443 C626.696814,153.617443 633.06528,134.390486 633.06528,106.243806 C633.06528,78.0971259 626.696814,58.4737364 612.566781,58.4737364 C598.237734,58.4737364 592.068283,78.0971259 592.068283,106.243806 C592.068283,134.390486 598.436748,153.617443 612.566781,153.617443 Z"/>
        </g>
    </g>
</svg>
