<?xml version="1.0" encoding="UTF-8"?>
<svg width="146px" height="186px" viewBox="0 0 146 186" version="1.1" xmlns="http://www.w3.org/2000/svg" xmlns:xlink="http://www.w3.org/1999/xlink">
    <!-- Generator: Sketch 50.2 (55047) - http://www.bohemiancoding.com/sketch -->
    <title>logo-small-slice</title>
    <desc>Created with Sketch.</desc>
    <defs></defs>
    <g id="Onboarding" stroke="none" strokeWidth="1" fill="none" fillRule="evenodd">
        <g id="logo-small-slice">
            <rect id="Rectangle-2-Copy" fill="#FFF174" x="20.3389831" y="46" width="125" height="140"></rect>
            <path d="M0,145.410307 L0,145.013875 C5.77142192,130.940535 7.96058195,122.813677 7.96058195,103.58672 L7.96058195,42.1397423 C7.96058195,22.7145689 5.77142192,14.7859267 0,0.71258672 L0,0.316154609 L58.3112628,0.316154609 C103.288551,0.316154609 117.020555,17.3627354 117.020555,40.1575818 C117.020555,65.3310208 99.5072744,85.9454906 54.3309718,85.9454906 L43.5841862,85.9454906 L43.5841862,103.58672 C43.5841862,122.615461 45.5743317,130.940535 51.7437827,145.013875 L51.7437827,145.410307 L0,145.410307 Z M49.5546227,4.87512389 C47.9625063,4.87512389 45.9723608,4.87512389 43.5841862,5.07333994 L43.5841862,81.3865213 L49.3556081,81.3865213 C73.0383394,81.3865213 80.6008923,58.5916749 80.6008923,40.1575818 C80.6008923,19.1466799 71.0481939,4.87512389 49.5546227,4.87512389 Z" id="Perlego" fill="#373838"></path>
        </g>
    </g>
</svg>  