<?xml version="1.0" encoding="UTF-8"?>
<svg width="36px" height="36px" viewBox="0 0 36 36" version="1.1" xmlns="http://www.w3.org/2000/svg" xmlns:xlink="http://www.w3.org/1999/xlink">
    <!-- Generator: Sketch 52.5 (67469) - http://www.bohemiancoding.com/sketch -->
    <title>dashboard-outline-blue</title>
    <desc>Created with Sketch.</desc>
    <g id="dashboard-outline-blue" stroke="none" stroke-width="1" fill="none" fill-rule="evenodd">
        <g id="Group-44">
            <rect id="Rectangle" x="0" y="0" width="36" height="36"></rect>
            <g id="noun_Pie-Chart_823810_000000-Copy" transform="translate(5.000000, 5.000000)" fill="#4D8FFF" fill-rule="nonzero">
                <path d="M13,0 C13,0 13,0 13,0 C5.85,0 0,5.85 0,13 C0,20.15 5.85,26 13,26 C15.2208333,26 17.4416667,25.4041667 19.3916667,24.3208333 C23.4541667,21.9916667 26,17.6583333 26,13 C26,5.85 20.15,0 13,0 Z M13.5416667,1.08333333 C19.6625,1.35416667 24.6458333,6.28333333 24.9166667,12.4583333 L13.5416667,12.4583333 L13.5416667,1.08333333 Z M13,24.9166667 C6.44583333,24.9166667 1.08333333,19.5541667 1.08333333,13 C1.08333333,6.60833333 6.12083333,1.35416667 12.4583333,1.08333333 L12.4583333,13 C12.4583333,13 12.4583333,13.0541667 12.4583333,13.0541667 C12.4583333,13.0541667 12.4583333,13.1083333 12.4583333,13.1083333 C12.4583333,13.1083333 12.4583333,13.1625 12.4583333,13.1625 C12.4583333,13.1625 12.4583333,13.2166667 12.4583333,13.2166667 C12.4583333,13.2166667 12.4583333,13.2166667 12.4583333,13.2708333 L18.4166667,23.6166667 C16.7375,24.4833333 14.8958333,24.9166667 13,24.9166667 Z M19.3375,23.075 L14.1916667,14.0291667 L13.9208333,13.5416667 L24.9166667,13.5416667 C24.7,17.4416667 22.6416667,21.0166667 19.3375,23.075 Z" id="Shape"></path>
            </g>
        </g>
    </g>
</svg>