<?xml version="1.0" encoding="UTF-8"?>
<svg width="36px" height="36px" viewBox="0 0 36 36" version="1.1" xmlns="http://www.w3.org/2000/svg" xmlns:xlink="http://www.w3.org/1999/xlink">
    <!-- Generator: Sketch 52.5 (67469) - http://www.bohemiancoding.com/sketch -->
    <title>inventory-outline-blue</title>
    <desc>Created with Sketch.</desc>
    <g id="inventory-outline-blue" stroke="none" stroke-width="1" fill="none" fill-rule="evenodd">
        <g id="Group-43">
            <rect id="Rectangle-Copy-7" x="0" y="0" width="36" height="36"></rect>
            <g id="noun_memo_1003823_000000-copy" transform="translate(5.000000, 5.000000)" fill="#4D8FFF">
                <path d="M23.8333333,0 L2.16666667,0 C0.975,0 0,0.975 0,2.16666667 L0,23.8333333 C0,25.025 0.975,26 2.16666667,26 L23.8333333,26 C25.025,26 26,25.025 26,23.8333333 L26,2.16666667 C26,0.975 25.025,0 23.8333333,0 Z M24.9166667,23.8333333 C24.9166667,24.4291667 24.4291667,24.9166667 23.8333333,24.9166667 L2.16666667,24.9166667 C1.57083333,24.9166667 1.08333333,24.4291667 1.08333333,23.8333333 L1.08333333,2.16666667 C1.08333333,1.57083333 1.57083333,1.08333333 2.16666667,1.08333333 L23.8333333,1.08333333 C24.4291667,1.08333333 24.9166667,1.57083333 24.9166667,2.16666667 L24.9166667,23.8333333 Z" id="Shape" fill-rule="nonzero"></path>
                <path d="M5.2,4.60416667 L4.11666667,4.60416667 C3.79166667,4.60416667 3.575,4.82083333 3.575,5.14583333 C3.575,5.47083333 3.79166667,5.6875 4.11666667,5.6875 L5.25416667,5.6875 C5.57916667,5.6875 5.79583333,5.47083333 5.79583333,5.14583333 C5.74166667,4.875 5.525,4.60416667 5.2,4.60416667 Z" id="Path"></path>
                <path d="M21.8833333,4.60416667 L8.07083333,4.60416667 C7.74583333,4.60416667 7.52916667,4.82083333 7.52916667,5.14583333 C7.52916667,5.47083333 7.74583333,5.6875 8.07083333,5.6875 L21.8833333,5.6875 C22.2083333,5.6875 22.425,5.47083333 22.425,5.14583333 C22.425,4.875 22.2083333,4.60416667 21.8833333,4.60416667 Z" id="Path"></path>
                <path d="M5.2,9.85833333 L4.11666667,9.85833333 C3.79166667,9.85833333 3.575,10.075 3.575,10.4 C3.575,10.725 3.79166667,10.9416667 4.11666667,10.9416667 L5.25416667,10.9416667 C5.57916667,10.9416667 5.79583333,10.725 5.79583333,10.4 C5.74166667,10.075 5.525,9.85833333 5.2,9.85833333 Z" id="Path"></path>
                <path d="M21.8833333,9.85833333 L8.07083333,9.85833333 C7.74583333,9.85833333 7.52916667,10.075 7.52916667,10.4 C7.52916667,10.725 7.74583333,10.9416667 8.07083333,10.9416667 L21.8833333,10.9416667 C22.2083333,10.9416667 22.425,10.725 22.425,10.4 C22.425,10.075 22.2083333,9.85833333 21.8833333,9.85833333 Z" id="Path"></path>
                <path d="M5.2,15.0583333 L4.11666667,15.0583333 C3.79166667,15.0583333 3.575,15.275 3.575,15.6 C3.575,15.925 3.79166667,16.1416667 4.11666667,16.1416667 L5.25416667,16.1416667 C5.57916667,16.1416667 5.79583333,15.925 5.79583333,15.6 C5.74166667,15.3291667 5.525,15.0583333 5.2,15.0583333 Z" id="Path"></path>
                <path d="M21.8833333,15.0583333 L8.07083333,15.0583333 C7.74583333,15.0583333 7.52916667,15.275 7.52916667,15.6 C7.52916667,15.925 7.74583333,16.1416667 8.07083333,16.1416667 L21.8833333,16.1416667 C22.2083333,16.1416667 22.425,15.925 22.425,15.6 C22.425,15.3291667 22.2083333,15.0583333 21.8833333,15.0583333 Z" id="Path"></path>
                <path d="M5.2,20.3125 L4.11666667,20.3125 C3.79166667,20.3125 3.575,20.5291667 3.575,20.8541667 C3.575,21.1791667 3.79166667,21.3958333 4.11666667,21.3958333 L5.25416667,21.3958333 C5.57916667,21.3958333 5.79583333,21.1791667 5.79583333,20.8541667 C5.74166667,20.5291667 5.525,20.3125 5.2,20.3125 Z" id="Path"></path>
                <path d="M21.8833333,20.3125 L8.07083333,20.3125 C7.74583333,20.3125 7.52916667,20.5291667 7.52916667,20.8541667 C7.52916667,21.1791667 7.74583333,21.3958333 8.07083333,21.3958333 L21.8833333,21.3958333 C22.2083333,21.3958333 22.425,21.1791667 22.425,20.8541667 C22.425,20.5291667 22.2083333,20.3125 21.8833333,20.3125 Z" id="Path"></path>
            </g>
        </g>
    </g>
</svg>