<?xml version="1.0" encoding="UTF-8"?>
<svg width="36px" height="36px" viewBox="0 0 36 36" version="1.1" xmlns="http://www.w3.org/2000/svg" xmlns:xlink="http://www.w3.org/1999/xlink">
    <!-- Generator: Sketch 52.5 (67469) - http://www.bohemiancoding.com/sketch -->
    <title>salesreport-outline-blue</title>
    <desc>Created with Sketch.</desc>
    <g id="salesreport-outline-blue" stroke="none" stroke-width="1" fill="none" fill-rule="evenodd">
        <g id="Group-42">
            <rect id="Rectangle-Copy-8" x="0" y="0" width="36" height="36"></rect>
            <g id="noun_Currency-Tag_823793_000000-Copy" transform="translate(10.000000, 5.000000)" fill="#4D8FFF">
                <path d="M9.4137931,9.9875 C9.30344828,10.0958333 9.13793103,10.15 8.97241379,10.2041667 C8.75172414,10.2583333 8.53103448,10.3125 8.31034483,10.2583333 C7.59310345,10.2041667 6.87586207,9.9875 6.26896552,9.60833333 C6.10344828,9.5 5.99310345,9.39166667 5.82758621,9.28333333 L5,10.2583333 C5.82758621,10.9625 6.76551724,11.3416667 7.8137931,11.45 L7.8137931,12.2625 L8.53103448,12.2625 L8.53103448,11.45 C9.30344828,11.3958333 9.91034483,11.1791667 10.4068966,10.8 C10.8482759,10.3666667 11.1241379,9.87916667 11.1241379,9.22916667 C11.1241379,8.57916667 10.9034483,8.09166667 10.5172414,7.76666667 C10.1310345,7.44166667 9.46896552,7.17083333 8.5862069,6.95416667 L7.8137931,6.7375 C7.37241379,6.62916667 7.09655172,6.46666667 6.93103448,6.30416667 C6.76551724,6.14166667 6.71034483,5.97916667 6.71034483,5.70833333 C6.71034483,5.4375 6.82068966,5.275 6.9862069,5.05833333 C7.09655172,4.95 7.31724138,4.84166667 7.53793103,4.7875 C7.70344828,4.73333333 7.86896552,4.73333333 7.97931034,4.73333333 L8.2,4.73333333 C8.53103448,4.73333333 8.86206897,4.7875 9.19310345,4.89583333 C9.52413793,5.00416667 9.85517241,5.16666667 10.1862069,5.38333333 L10.9034483,4.35416667 C10.1862069,3.86666667 9.35862069,3.59583333 8.53103448,3.54166667 L8.53103448,3 L7.8137931,3 L7.8137931,3.54166667 C7.09655172,3.59583333 6.48965517,3.8125 6.04827586,4.19166667 C5.60689655,4.625 5.3862069,5.1125 5.3862069,5.7625 C5.3862069,6.4125 5.60689655,6.9 5.99310345,7.225 C6.37931034,7.55 7.04137931,7.82083333 7.86896552,8.0375 L8.5862069,8.2 C9.02758621,8.30833333 9.35862069,8.47083333 9.52413793,8.63333333 C9.68965517,8.79583333 9.8,9.0125 9.8,9.22916667 C9.74482759,9.60833333 9.63448276,9.825 9.4137931,9.9875 Z" id="Path"></path>
                <path d="M15.3736655,0 L0.569395018,0 C0.227758007,0 0,0.216666667 0,0.541666667 L0,25.4583333 C0,25.6208333 0.113879004,25.8375 0.284697509,25.8916667 C0.398576512,25.9458333 0.512455516,26 0.569395018,26 C0.62633452,26 0.740213523,26 0.797153025,25.9458333 L8.25622776,22.8041667 L15.1459075,25.9458333 C15.316726,26 15.544484,26 15.7153025,25.8916667 C15.886121,25.7833333 16,25.6208333 16,25.4583333 L16,0.541666667 C15.9430605,0.216666667 15.7153025,0 15.3736655,0 Z M14.8042705,24.5916667 L8.48398577,21.7208333 C8.31316726,21.6666667 8.14234875,21.6666667 8.02846975,21.7208333 L1.13879004,24.6458333 L1.13879004,1.08333333 L14.8042705,1.08333333 L14.8042705,24.5916667 Z" id="Shape" fill-rule="nonzero"></path>
                <path d="M3.55172414,16.0833333 L13.0965517,16.0833333 C13.4275862,16.0833333 13.6482759,15.8666667 13.6482759,15.5416667 C13.6482759,15.2166667 13.4275862,15 13.0965517,15 L3.55172414,15 C3.22068966,15 3,15.2166667 3,15.5416667 C3,15.8666667 3.22068966,16.0833333 3.55172414,16.0833333 Z" id="Path"></path>
                <path d="M3.55172414,19.0833333 L13.0965517,19.0833333 C13.4275862,19.0833333 13.6482759,18.8666667 13.6482759,18.5416667 C13.6482759,18.2166667 13.4275862,18 13.0965517,18 L3.55172414,18 C3.22068966,18 3,18.2166667 3,18.5416667 C3,18.8125 3.22068966,19.0833333 3.55172414,19.0833333 Z" id="Path"></path>
            </g>
        </g>
    </g>
</svg>