<?xml version="1.0" encoding="UTF-8"?>
<svg width="40px" height="32px" viewBox="0 0 40 32" version="1.1" xmlns="http://www.w3.org/2000/svg" xmlns:xlink="http://www.w3.org/1999/xlink">
    <!-- Generator: Sketch 51.2 (57519) - http://www.bohemiancoding.com/sketch -->
    <title>card-icon-jcb</title>
    <desc>Created with Sketch.</desc>
    <defs>
        <path d="M0.0423529412,4.5488117 L0.0423529412,27.6280835 L0.0423529412,18.1873694 C0.0308650317,18.1844115 0.0195693087,18.1814787 0.00847058824,18.1785705 C0.00705882353,23.1636686 0.00635294118,27.6280835 0.00635294118,27.6280835 C0.00635294118,27.6280835 5.08658824,27.6280835 6.77858824,27.6280835 C8.62658824,27.6280835 11.0315294,25.8953068 11.0315294,23.2600127 C11.0315294,18.8373941 11.0315294,0.692118912 11.0315294,0.692118912 C11.0315294,0.692118912 6.07411765,0.692118912 4.34611765,0.692118912 C2.24473045,0.692118912 0.31101098,2.45711116 0.0423529412,4.5488117 L0.0423529412,16.3214866 C0.522209525,16.594332 2.4411658,17.2073482 3.22447059,17.2633017 C4.98352941,17.3879823 6.07411765,16.8042505 6.24282353,15.3328779 L6.23435294,9.86889311 L10.1258824,9.86889311 L10.1258824,15.2081973 C9.92117647,18.2664137 7.24729412,18.8898166 3.17788235,18.6836686 C2.14179493,18.6313997 0.738850257,18.3665921 0.0423529412,18.1873676 L0.0423529412,4.5488117 Z" id="path-1"></path>
    </defs>
    <g id="card-icon-jcb" stroke="none" stroke-width="1" fill="none" fill-rule="evenodd">
        <path d="M36,0 L4,0 C1.78,0 0.02,1.78 0.02,4 L0,28 C0,30.22 1.78,32 4,32 L36,32 C38.22,32 40,30.22 40,28 L40,4 C40,1.78 38.22,0 36,0 Z" id="Shape" fill="#F5F5F5" fill-rule="nonzero"></path>
        <g id="Group" transform="translate(2.000000, 2.000000)">
            <g id="Clip-2">
                <use fill="#D8D8D8" xlink:href="#path-1"></use>
                <use fill="#083091" xlink:href="#path-1"></use>
            </g>
            <path d="M16.7710588,0.692118912 C14.5058824,0.692118912 12.4355294,2.7429728 12.4355294,5.04318786 C12.4355294,5.8458191 12.4348235,8.15099304 12.4348235,10.9988109 C13.7936471,9.93335863 15.9847059,9.4112587 18.7729412,9.62661607 C20.3597647,9.74917141 21.5329412,9.9716129 22.1731765,10.1614674 L22.1731765,12.0515117 C21.468,11.6987223 20.076,11.1730803 18.9155294,11.0887793 C16.2854118,10.8989247 14.9054118,12.1351044 14.9054118,14.1342441 C14.9054118,15.9336116 15.9712941,17.4729918 18.9035294,17.2682606 C19.8705882,17.200253 21.48,16.6349399 22.1647059,16.3076534 L22.1731765,18.1417331 C21.5837647,18.3280455 19.7498824,18.729007 18.024,18.7431752 C15.4256471,18.7644276 13.5924706,18.2104491 12.4334118,17.3121822 C12.432,22.6344845 12.4312941,27.6280835 12.4312941,27.6280835 C12.4312941,27.6280835 17.5115294,27.6280835 19.2035294,27.6280835 C21.0515294,27.6280835 23.4564706,25.8953068 23.4564706,23.2600127 C23.4564706,18.8373941 23.4564706,0.692118912 23.4564706,0.692118912 C23.4564706,0.692118912 18.4990588,0.692118912 16.7710588,0.692118912" id="Fill-4" fill="#E60012"></path>
            <path d="M29.6223529,14.7073498 C28.8804706,14.7144339 27.2632941,14.7002657 26.9703529,14.7073498 L26.9661176,17.086907 L29.6181176,17.0961164 C30.1334118,17.0961164 30.7821176,16.6526502 30.7821176,15.8804807 C30.7821176,15.1975712 30.2223529,14.7016825 29.6223529,14.7073498" id="Fill-7" fill="#009946"></path>
            <path d="M30.4602353,12.3192916 C30.4602353,11.636382 29.9484706,11.1752056 29.4049412,11.187957 C28.6411765,11.2056673 27.2632941,11.1688299 26.9618824,11.1957495 L26.9527059,13.362783 L29.4578824,13.3804934 C29.8750588,13.3719924 30.4602353,12.9887413 30.4602353,12.3192916" id="Fill-10" fill="#009946"></path>
            <path d="M29.1381176,0.692118912 C26.8729412,0.692118912 24.8025882,2.7429728 24.8025882,5.04318786 C24.8025882,5.73247312 24.8025882,7.53254902 24.8018824,9.83134725 L31.2395294,9.83134725 C32.5207059,9.83134725 34.0291765,10.3817837 34.0291765,11.9445414 C34.0291765,12.7833017 33.5844706,13.7325743 31.9814118,14.0400253 L31.9814118,14.0754459 C32.9174118,14.0754459 34.5402353,14.6258824 34.5402353,16.2842758 C34.5402353,17.9958001 32.7868235,18.4718533 31.848,18.4718533 L24.8004706,18.4789374 C24.7990588,23.3414801 24.7983529,27.6280835 24.7983529,27.6280835 C24.7983529,27.6280835 29.8785882,27.6280835 31.5705882,27.6280835 C33.4185882,27.6280835 35.8242353,25.8953068 35.8242353,23.2600127 C35.8242353,18.8373941 35.8242353,0.692118912 35.8242353,0.692118912 C35.8242353,0.692118912 30.8661176,0.692118912 29.1381176,0.692118912" id="Fill-13" fill="#009946"></path>
        </g>
    </g>
</svg>