<?xml version="1.0" encoding="UTF-8"?>
<svg width="40px" height="32px" viewBox="0 0 40 32" version="1.1" xmlns="http://www.w3.org/2000/svg" xmlns:xlink="http://www.w3.org/1999/xlink">
    <!-- Generator: Sketch 51.2 (57519) - http://www.bohemiancoding.com/sketch -->
    <title>card-icon-visa</title>
    <desc>Created with Sketch.</desc>
    <defs></defs>
    <g id="card-icon-visa" stroke="none" stroke-width="1" fill="none" fill-rule="evenodd">
        <g id="Group-Copy" fill="#1565C0" fill-rule="nonzero">
            <path d="M36,0 L4,0 C1.78,0 0.02,1.78 0.02,4 L0,28 C0,30.22 1.78,32 4,32 L36,32 C38.22,32 40,30.22 40,28 L40,4 C40,1.78 38.22,0 36,0 Z" id="Shape"></path>
        </g>
        <g id="icons8-visa" transform="translate(2.000000, 11.000000)" fill-rule="nonzero">
            <path d="M10.1875,0 L7.558594,7.832031 C7.558594,7.832031 6.894531,4.519531 6.828125,4.101563 C5.332031,0.691406 3.125,0.882813 3.125,0.882813 L5.726563,11 L5.726563,10.996094 L8.886719,10.996094 L13.257813,0 L10.1875,0 Z" id="Shape" fill="#FFFFFF"></path>
            <polygon id="Shape" fill="#FFFFFF" points="12.6875 11 15.558594 11 17.296875 0 14.390625 0"></polygon>
            <path d="M33.007813,0 L29.988281,0 L25.277344,11 L28.128906,11 L28.71875,9.429688 L32.3125,9.429688 L32.617188,11 L35.230469,11 L33.007813,0 Z M29.511719,7.328125 L31.074219,3.171875 L31.894531,7.328125 L29.511719,7.328125 Z" id="Shape" fill="#FFFFFF"></path>
            <path d="M21.367188,3.207031 C21.367188,2.601563 21.867188,2.148438 23.296875,2.148438 C24.222656,2.148438 25.285156,2.824219 25.285156,2.824219 L25.753906,0.515625 C25.753906,0.515625 24.394531,0 23.0625,0 C20.042969,0 18.484375,1.441406 18.484375,3.269531 C18.484375,6.578125 22.464844,6.125 22.464844,7.820313 C22.464844,8.113281 22.234375,8.785156 20.574219,8.785156 C18.914063,8.785156 17.816406,8.175781 17.816406,8.175781 L17.320313,10.394531 C17.320313,10.394531 18.386719,11 20.4375,11 C22.496094,11 25.355469,9.460938 25.355469,7.246094 C25.355469,4.585938 21.367188,4.394531 21.367188,3.207031 Z" id="Shape" fill="#FFFFFF"></path>
            <path d="M7.210938,5.945313 L6.246094,1.195313 C6.246094,1.195313 5.808594,0.167969 4.671875,0.167969 C3.535156,0.167969 0.234375,0.167969 0.234375,0.167969 C0.234375,0.167969 5.894531,1.839844 7.210938,5.945313 Z" id="Shape" fill="#FFC107"></path>
        </g>
    </g>
</svg>