<?xml version="1.0" encoding="UTF-8"?>
<svg width="40px" height="32px" viewBox="0 0 40 32" version="1.1" xmlns="http://www.w3.org/2000/svg" xmlns:xlink="http://www.w3.org/1999/xlink">
    <!-- Generator: Sketch 51.2 (57519) - http://www.bohemiancoding.com/sketch -->
    <title>card-icon-amex</title>
    <desc>Created with Sketch.</desc>
    <defs></defs>
    <g id="card-icon-amex" stroke="none" stroke-width="1" fill="none" fill-rule="evenodd">
        <path d="M36,0 L4,0 C1.78,0 0.02,1.78 0.02,4 L0,28 C0,30.22 1.78,32 4,32 L36,32 C38.22,32 40,30.22 40,28 L40,4 C40,1.78 38.22,0 36,0 Z" id="Shape" fill="#1976D2" fill-rule="nonzero"></path>
        <g id="Group" transform="translate(4.000000, 13.000000)" fill="#FFFFFF" fill-rule="nonzero">
            <path d="M14.3566174,0 L12.3676471,4.01450914 L10.3897064,0 L7.85294118,0 L7.85294118,5.76562543 L5.02573553,0 L2.88602918,0 L0,5.98325914 L1.70955859,5.98325914 L2.33823529,4.64732143 L5.56985318,4.64732143 L6.21323576,5.98325914 L9.47426447,5.98325914 L9.47426447,1.54017857 L11.6360292,5.98325914 L13.1066174,5.98325914 L15.3198532,1.61718771 L15.3198532,5.98325914 L16.9411765,5.98325914 L16.9411765,0 L14.3566174,0 Z M2.95220612,3.35491114 L3.91544094,1.26562543 L4.91911812,3.35491114 L2.95220612,3.35491114 Z" id="Shape"></path>
            <path d="M29.0661769,2.92633971 L32,0.0167408571 L29.9117647,0.0167408571 L28.0367652,1.871652 L26.2205882,0 L19.7647059,0 L19.7647059,5.98325914 L26.0110296,5.98325914 L27.9779416,4.00446429 L29.8970588,6 L31.9779416,6 L29.0661769,2.92633971 Z M25.1544122,4.72767857 L21.3823529,4.72767857 L21.3823529,3.54575914 L24.9926475,3.54575914 L24.9926475,2.41071429 L21.3823529,2.41071429 L21.3823529,1.28906229 L25.3639708,1.29910714 L26.9595586,2.92633971 L25.1544122,4.72767857 Z" id="Shape"></path>
        </g>
    </g>
</svg>