<?xml version="1.0" encoding="UTF-8"?>
<svg width="40px" height="32px" viewBox="0 0 40 32" version="1.1" xmlns="http://www.w3.org/2000/svg" xmlns:xlink="http://www.w3.org/1999/xlink">
    <!-- Generator: Sketch 51.2 (57519) - http://www.bohemiancoding.com/sketch -->
    <title>card-icon-discover</title>
    <desc>Created with Sketch.</desc>
    <defs></defs>
    <g id="card-icon-discover" stroke="none" stroke-width="1" fill="none" fill-rule="evenodd">
        <path d="M36,0 L4,0 C1.78,0 0.02,1.78 0.02,4 L0,28 C0,30.22 1.78,32 4,32 L36,32 C38.22,32 40,30.22 40,28 L40,4 C40,1.78 38.22,0 36,0 Z" id="Shape" fill="#E1E7EA" fill-rule="nonzero"></path>
        <path d="M40,28 C40,30.199219 38.199219,32 36,32 L11,32 C11,32 34.601563,28.199219 40,17 L40,28 Z" id="Shape" fill="#FF6D00" fill-rule="nonzero"></path>
        <g id="Group" transform="translate(2.000000, 13.000000)" fill-rule="nonzero">
            <path d="M5.199219,0.101562 L6.300781,0.101562 L6.300781,6.101562 L5.199219,6.101562 L5.199219,0.101562 Z M11.199219,3.101562 C11.199219,4.800781 12.5,6.101562 14.199219,6.101562 C14.699219,6.101562 15.101563,6 15.601563,5.800781 L15.601563,4.5 C15.199219,4.902343 14.800781,5.101562 14.199219,5.101562 C13.101563,5.101562 12.300781,4.300781 12.300781,3.101562 C12.300781,2 13.101563,1.101562 14.199219,1.101562 C14.699219,1.101562 15.101563,1.300781 15.601563,1.703125 L15.601563,0.402343 C15.101563,0.203125 14.699219,0 14.199219,0 C12.5,0.101562 11.199219,1.5 11.199219,3.101562 Z M24.601563,4 L23,0.101562 L21.800781,0.101562 L24.300781,6.101562 L24.898438,6.101562 L27.398438,0.101562 L26.199219,0.101562 L24.601563,4 Z M27.898438,6.101562 L31.101563,6.101562 L31.101563,5.101562 L29,5.101562 L29,3.5 L31,3.5 L31,2.5 L29,2.5 L29,1.101562 L31.101563,1.101562 L31.101563,0.101562 L27.898438,0.101562 L27.898438,6.101562 Z M35.5,1.902343 C35.5,0.800781 34.800781,0.101562 33.5,0.101562 L31.800781,0.101562 L31.800781,6.101562 L32.898438,6.101562 L32.898438,3.703125 L33,3.703125 L34.601563,6.101562 L36,6.101562 L34.199219,3.601562 C35,3.402343 35.5,2.800781 35.5,1.902343 Z M33.199219,2.902343 L32.898438,2.902343 L32.898438,1.101562 L33.199219,1.101562 C33.898438,1.101562 34.300781,1.402343 34.300781,2 C34.300781,2.5 34,2.902343 33.199219,2.902343 Z M1.699219,0.101562 L0,0.101562 L0,6.101562 L1.601563,6.101562 C4.101563,6.101562 4.699219,4 4.699219,3.101562 C4.800781,1.300781 3.5,0.101562 1.699219,0.101562 Z M1.398438,5.101562 L1.101563,5.101562 L1.101563,1.101562 L1.5,1.101562 C3,1.101562 3.601563,2.101562 3.601563,3.101562 C3.601563,3.5 3.5,5.101562 1.398438,5.101562 Z M9.300781,2.402343 C8.601563,2.101562 8.398438,2 8.398438,1.703125 C8.398438,1.300781 8.800781,1.101562 9.199219,1.101562 C9.5,1.101562 9.800781,1.203125 10.101563,1.601562 L10.699219,0.800781 C10.199219,0.300781 9.699219,0.101562 9,0.101562 C8,0.101562 7.199219,0.800781 7.199219,1.800781 C7.199219,2.601562 7.601563,3 8.601563,3.402343 C9.199219,3.601562 9.699219,3.800781 9.699219,4.300781 C9.699219,4.800781 9.300781,5.101562 8.800781,5.101562 C8.300781,5.101562 7.800781,4.800781 7.601563,4.300781 L6.898438,5 C7.398438,5.800781 8,6.101562 8.898438,6.101562 C10.101563,6.101562 10.898438,5.300781 10.898438,4.203125 C10.898438,3.300781 10.5,2.902343 9.300781,2.402343 Z" id="Shape" fill="#000000"></path>
            <path d="M16,3 C16,4.699219 17.300781,6 19,6 C20.699219,6 22,4.699219 22,3 C22,1.300781 20.699219,0 19,0 C17.300781,0 16,1.300781 16,3 Z" id="Path" fill="#FF6D00"></path>
        </g>
    </g>
</svg>