<?xml version="1.0" encoding="UTF-8"?>
<svg width="40px" height="32px" viewBox="0 0 40 32" version="1.1" xmlns="http://www.w3.org/2000/svg" xmlns:xlink="http://www.w3.org/1999/xlink">
    <!-- Generator: Sketch 51.2 (57519) - http://www.bohemiancoding.com/sketch -->
    <title>card-icon-mastercard</title>
    <desc>Created with Sketch.</desc>
    <defs></defs>
    <g id="card-icon-mastercard" stroke="none" stroke-width="1" fill="none" fill-rule="evenodd">
        <path d="M36,0 L4,0 C1.78,0 0.02,1.78 0.02,4 L0,28 C0,30.22 1.78,32 4,32 L36,32 C38.22,32 40,30.22 40,28 L40,4 C40,1.78 38.22,0 36,0 Z" id="Shape" fill="#3F51B5" fill-rule="nonzero"></path>
        <g id="Group" transform="translate(5.000000, 7.000000)" fill-rule="nonzero">
            <path d="M30,9 C30,13.9710942 25.9303982,18 20.9090909,18 C15.8877845,18 11.8181818,13.9710942 11.8181818,9 C11.8181818,4.0289067 15.8877845,0 20.9090909,0 C25.9303982,0 30,4.0289067 30,9 Z" id="Shape" fill="#FFC107"></path>
            <path d="M13.6505682,14.4 C13.2279827,13.8445317 12.8657673,13.2433596 12.5816764,12.6 L17.4218755,12.6 C17.6740055,12.0269529 17.8728691,11.4257817 18.00071,10.8 L12.0028409,10.8 C11.8821027,10.2199221 11.8181818,9.61875 11.8181818,9 L18.1818182,9 C18.1818182,8.38125 18.1178982,7.7800779 18.00071,7.2 L11.99929,7.2 C12.1306818,6.5742192 12.3259945,5.9730471 12.5816764,5.4 L17.4218755,5.4 C17.1377845,4.7566404 16.7755682,4.1554692 16.3529827,3.6 L13.6505682,3.6 C14.0447445,3.0796875 14.4957391,2.5910154 14.9964491,2.165625 C13.40554,0.8191404 11.3458809,0 9.09090909,0 C4.06960273,0 0,4.0289067 0,9 C0,13.9710942 4.06960273,18 9.09090909,18 C12.06321,18 14.6910509,16.5832029 16.3494318,14.4 L13.6505682,14.4 Z" id="Shape" fill="#FF3D00"></path>
        </g>
    </g>
</svg>