<?xml version="1.0" encoding="UTF-8"?>
<svg width="27px" height="26px" viewBox="0 0 27 26" version="1.1" xmlns="http://www.w3.org/2000/svg" xmlns:xlink="http://www.w3.org/1999/xlink">
    <!-- Generator: Sketch 52.4 (67378) - http://www.bohemiancoding.com/sketch -->
    <title>Combined Shape</title>
    <desc>Created with Sketch.</desc>
    <g id="Design" stroke="none" stroke-width="1" fill="none" fill-rule="evenodd">
        <g id="component-nav-bar" transform="translate(-1051.000000, -137.000000)" fill="#4D8FFF" fill-rule="nonzero">
            <g id="Group-3" transform="translate(1050.000000, 137.000000)">
                <path d="M14.9725,3.8191672e-14 C21.83725,0.293402778 27.42625,5.63333333 27.73,12.3229167 L14.9725,12.3229167 L14.9725,3.8191672e-14 Z M14.365,25.8194444 C7.01425,25.8194444 1,20.0100694 1,12.9097222 C1,5.98541667 6.64975,0.293402778 13.7575,3.73034936e-14 L13.7575,12.9097222 C13.7575,12.9097222 13.7575,12.9684028 13.7575,12.9684028 C13.7575,12.9684028 13.7575,13.0270833 13.7575,13.0270833 C13.7575,13.0270833 13.7575,13.0857639 13.7575,13.0857639 C13.7575,13.0857639 13.7575,13.1444444 13.7575,13.1444444 C13.7575,13.1444444 13.7575,13.1444444 13.7575,13.203125 L20.44,24.4111111 C18.55675,25.35 16.49125,25.8194444 14.365,25.8194444 Z M21.47275,23.8243056 L15.7015,14.0246528 L15.39775,13.4965278 L27.73,13.4965278 C27.487,17.7215278 25.1785,21.5944444 21.47275,23.8243056 Z" id="Combined-Shape"></path>
            </g>
        </g>
    </g>
</svg>