<?xml version="1.0" encoding="UTF-8"?>
<svg width="27px" height="26px" viewBox="0 0 27 26" version="1.1" xmlns="http://www.w3.org/2000/svg" xmlns:xlink="http://www.w3.org/1999/xlink">
    <!-- Generator: Sketch 52.4 (67378) - http://www.bohemiancoding.com/sketch -->
    <title>Group 35</title>
    <desc>Created with Sketch.</desc>
    <g id="Design" stroke="none" stroke-width="1" fill="none" fill-rule="evenodd">
        <g id="component-nav-bar" transform="translate(-1051.000000, -519.000000)">
            <g id="Group-3" transform="translate(1050.000000, 137.000000)">
                <g id="Group-35" transform="translate(1.000000, 382.000000)">
                    <g id="noun_memo_1003823_000000-copy-4">
                        <path d="M24.75,-1.42108547e-14 C25.9875,-1.42108547e-14 27,0.975 27,2.16666667 L27,23.8333333 C27,25.025 25.9875,26 24.75,26 L2.25,26 C1.0125,26 0,25.025 0,23.8333333 L0,2.16666667 C0,0.975 1.0125,-1.42108547e-14 2.25,-1.42108547e-14 L24.75,-1.42108547e-14 Z M7.63636364,20.2222222 L20.3636364,20.2222222 C20.7454545,20.2222222 21,20.0296296 21,19.7407407 C21,19.4518519 20.7454545,19.2592593 20.3636364,19.2592593 L7.63636364,19.2592593 C7.25454545,19.2592593 7,19.4518519 7,19.7407407 C7,20.0296296 7.25454545,20.2222222 7.63636364,20.2222222 Z M13.09375,16.3296196 C13.1919643,16.429009 13.3392857,16.4787037 13.4375,16.4787037 C13.5848214,16.4787037 13.6830357,16.429009 13.78125,16.3296196 L16.7276786,13.3479374 C16.9241071,13.1491586 16.9241071,12.8509904 16.7276786,12.6522116 C16.53125,12.4534328 16.2366071,12.4534328 16.0401786,12.6522116 L13.9285714,14.7890838 L13.9285714,6.2747248 C13.9285714,5.97655659 13.7321429,5.77777778 13.4375,5.77777778 C13.1428571,5.77777778 12.9464286,5.97655659 12.9464286,6.2747248 L12.9464286,14.7890838 L10.8348214,12.6522116 C10.6383929,12.4534328 10.34375,12.4534328 10.1473214,12.6522116 C9.95089286,12.8509904 9.95089286,13.1491586 10.1473214,13.3479374 L13.09375,16.3296196 Z" id="Combined-Shape" fill="#4D8FFF" fill-rule="nonzero"></path>
                        <path d="M7.63636364,20.2222222 L20.3636364,20.2222222 C20.7454545,20.2222222 21,20.0296296 21,19.7407407 C21,19.4518519 20.7454545,19.2592593 20.3636364,19.2592593 L7.63636364,19.2592593 C7.25454545,19.2592593 7,19.4518519 7,19.7407407 C7,20.0296296 7.25454545,20.2222222 7.63636364,20.2222222 Z" id="Path" fill="#FFFFFF"></path>
                        <path d="M13.09375,16.3296196 C13.1919643,16.429009 13.3392857,16.4787037 13.4375,16.4787037 C13.5848214,16.4787037 13.6830357,16.429009 13.78125,16.3296196 L16.7276786,13.3479374 C16.9241071,13.1491586 16.9241071,12.8509904 16.7276786,12.6522116 C16.53125,12.4534328 16.2366071,12.4534328 16.0401786,12.6522116 L13.9285714,14.7890838 L13.9285714,6.2747248 C13.9285714,5.97655659 13.7321429,5.77777778 13.4375,5.77777778 C13.1428571,5.77777778 12.9464286,5.97655659 12.9464286,6.2747248 L12.9464286,14.7890838 L10.8348214,12.6522116 C10.6383929,12.4534328 10.34375,12.4534328 10.1473214,12.6522116 C9.95089286,12.8509904 9.95089286,13.1491586 10.1473214,13.3479374 L13.09375,16.3296196 Z" id="Path" fill="#FFFFFF"></path>
                    </g>
                </g>
            </g>
        </g>
    </g>
</svg>