<?xml version="1.0" encoding="UTF-8"?>
<svg width="27px" height="22px" viewBox="0 0 27 22" version="1.1" xmlns="http://www.w3.org/2000/svg" xmlns:xlink="http://www.w3.org/1999/xlink">
    <!-- Generator: Sketch 52.4 (67378) - http://www.bohemiancoding.com/sketch -->
    <title>noun_Book_1003901_000000 Copy 3</title>
    <desc>Created with Sketch.</desc>
    <g id="Design" stroke="none" stroke-width="1" fill="none" fill-rule="evenodd">
        <g id="component-nav-bar" transform="translate(-1050.000000, -373.000000)">
            <g id="noun_Book_1003901_000000-Copy-3" transform="translate(1050.000000, 373.000000)">
                <path d="M26.60625,1.1326148 C26.83125,1.1926148 27,1.4326148 27,1.6726148 L27,20.5726148 C27,20.7526148 26.94375,20.9326148 26.775,21.0526148 C26.6625,21.1126148 26.55,21.1726148 26.4375,21.1726148 C26.38125,21.1726148 26.325,21.1726148 26.26875,21.1726148 C22.1625,19.7326148 17.71875,19.7326148 13.66875,21.1726148 C13.6125,21.1726148 13.55625,21.1726148 13.5,21.1726148 C13.5,21.1726148 13.44375,21.1726148 13.44375,21.1726148 C13.44375,21.1726148 13.3875,21.1726148 13.3875,21.1726148 C13.3875,21.1726148 13.33125,21.1726148 13.33125,21.1726148 C9.225,19.7326148 4.78125,19.7326148 0.73125,21.1726148 C0.5625,21.2326148 0.39375,21.2326148 0.225,21.1126148 C0.1125,20.9926148 -2.91433544e-14,20.8126148 -2.91433544e-14,20.6326148 L-2.91433544e-14,1.6726148 C-2.91433544e-14,1.4326148 0.16875,1.1926148 0.39375,1.1326148 C4.6125,-0.367385196 9.225,-0.367385196 13.5,1.0726148 C17.775,-0.367385196 22.3875,-0.367385196 26.60625,1.1326148 Z M11.1232776,4.54 C8.2545276,3.82 5.2732776,3.82 2.4045276,4.54 C2.1232776,4.6 1.9545276,4.96 2.0107776,5.26 C2.0670276,5.56 2.4045276,5.8 2.6857776,5.68 C5.3857776,5.02 8.1982776,5.02 10.8420276,5.68 C10.8982776,5.68 10.9545276,5.68 10.9545276,5.68 C11.2357776,5.68 11.4607776,5.5 11.5170276,5.2 C11.6295276,4.96 11.4607776,4.6 11.1232776,4.54 Z M11.1232776,7.78 C8.2545276,7.06 5.2732776,7.06 2.4045276,7.78 C2.1232776,7.84 1.9545276,8.2 2.0107776,8.5 C2.0670276,8.8 2.4045276,9.04 2.6857776,8.92 C5.3857776,8.26 8.1982776,8.26 10.8420276,8.92 C10.8982776,8.92 10.9545276,8.92 10.9545276,8.92 C11.2357776,8.92 11.4607776,8.74 11.5170276,8.44 C11.6295276,8.2 11.4607776,7.84 11.1232776,7.78 Z M11.1232776,11.02 C8.2545276,10.3 5.2732776,10.3 2.4045276,11.02 C2.1232776,11.08 1.9545276,11.44 2.0107776,11.74 C2.0670276,12.04 2.4045276,12.28 2.6857776,12.16 C5.3857776,11.5 8.1982776,11.5 10.8420276,12.16 C10.8982776,12.16 10.9545276,12.16 10.9545276,12.16 C11.2357776,12.16 11.4607776,11.98 11.5170276,11.68 C11.6295276,11.44 11.4607776,11.08 11.1232776,11.02 Z M11.1232776,14.26 C8.2545276,13.54 5.2732776,13.54 2.4045276,14.26 C2.1232776,14.32 1.9545276,14.68 2.0107776,14.98 C2.0670276,15.28 2.4045276,15.52 2.6857776,15.4 C5.3857776,14.74 8.1982776,14.74 10.8420276,15.4 C10.8982776,15.4 10.9545276,15.4 10.9545276,15.4 C11.2357776,15.4 11.4607776,15.22 11.5170276,14.92 C11.6295276,14.68 11.4607776,14.32 11.1232776,14.26 Z M24.1232776,4.54 C21.2545276,3.82 18.2732776,3.82 15.4045276,4.54 C15.1232776,4.6 14.9545276,4.96 15.0107776,5.26 C15.0670276,5.56 15.4045276,5.8 15.6857776,5.68 C18.3857776,5.02 21.1982776,5.02 23.8420276,5.68 C23.8982776,5.68 23.9545276,5.68 23.9545276,5.68 C24.2357776,5.68 24.4607776,5.5 24.5170276,5.2 C24.6295276,4.96 24.4607776,4.6 24.1232776,4.54 Z M24.1232776,7.78 C21.2545276,7.06 18.2732776,7.06 15.4045276,7.78 C15.1232776,7.84 14.9545276,8.2 15.0107776,8.5 C15.0670276,8.8 15.4045276,9.04 15.6857776,8.92 C18.3857776,8.26 21.1982776,8.26 23.8420276,8.92 C23.8982776,8.92 23.9545276,8.92 23.9545276,8.92 C24.2357776,8.92 24.4607776,8.74 24.5170276,8.44 C24.6295276,8.2 24.4607776,7.84 24.1232776,7.78 Z M24.1232776,11.02 C21.2545276,10.3 18.2732776,10.3 15.4045276,11.02 C15.1232776,11.08 14.9545276,11.44 15.0107776,11.74 C15.0670276,12.04 15.4045276,12.28 15.6857776,12.16 C18.3857776,11.5 21.1982776,11.5 23.8420276,12.16 C23.8982776,12.16 23.9545276,12.16 23.9545276,12.16 C24.2357776,12.16 24.4607776,11.98 24.5170276,11.68 C24.6295276,11.44 24.4607776,11.08 24.1232776,11.02 Z M24.1232776,14.26 C21.2545276,13.54 18.2732776,13.54 15.4045276,14.26 C15.1232776,14.32 14.9545276,14.68 15.0107776,14.98 C15.0670276,15.28 15.4045276,15.52 15.6857776,15.4 C18.3857776,14.74 21.1982776,14.74 23.8420276,15.4 C23.8982776,15.4 23.9545276,15.4 23.9545276,15.4 C24.2357776,15.4 24.4607776,15.22 24.5170276,14.92 C24.6295276,14.68 24.4607776,14.32 24.1232776,14.26 Z" id="Combined-Shape" fill="#4D8FFF" fill-rule="nonzero"></path>
                <g id="Group-6" transform="translate(2.000000, 4.000000)"></g>
                <g id="Group-6-Copy" transform="translate(15.000000, 4.000000)"></g>
            </g>
        </g>
    </g>
</svg>