<?xml version="1.0" encoding="UTF-8"?>
<svg width="27px" height="20px" viewBox="0 0 27 20" version="1.1" xmlns="http://www.w3.org/2000/svg" xmlns:xlink="http://www.w3.org/1999/xlink">
    <!-- Generator: Sketch 52.4 (67378) - http://www.bohemiancoding.com/sketch -->
    <title>Group 36</title>
    <desc>Created with Sketch.</desc>
    <g id="Design" stroke="none" stroke-width="1" fill="none" fill-rule="evenodd">
        <g id="component-nav-bar" transform="translate(-1051.000000, -446.000000)" fill="#4D8FFF" fill-rule="nonzero">
            <g id="Group-3" transform="translate(1050.000000, 137.000000)">
                <g id="Group-36" transform="translate(1.000000, 309.000000)">
                    <path d="M13.3875,8.06842105 C11.1375,8.06842105 9.3375,6.3 9.3375,4.08947368 C9.3375,1.87894737 11.1375,0.110526316 13.3875,0.110526316 C15.6375,0.110526316 17.4375,1.87894737 17.4375,4.08947368 C17.4375,6.3 15.6375,8.06842105 13.3875,8.06842105 Z" id="Shape"></path>
                    <path d="M5.4,9.61578947 C3.825,9.61578947 2.53125,8.34473684 2.53125,6.79736842 C2.53125,5.25 3.825,3.97894737 5.4,3.97894737 C6.975,3.97894737 8.26875,5.25 8.26875,6.79736842 C8.26875,8.34473684 6.975,9.61578947 5.4,9.61578947 Z" id="Shape"></path>
                    <path d="M21.6,9.61578947 C20.025,9.61578947 18.73125,8.34473684 18.73125,6.79736842 C18.73125,5.25 20.025,3.97894737 21.6,3.97894737 C23.175,3.97894737 24.46875,5.25 24.46875,6.79736842 C24.46875,8.34473684 23.23125,9.61578947 21.6,9.61578947 Z" id="Shape"></path>
                    <path d="M7.20212402,19.8394737 L19.802124,19.8394737 L19.802124,13.5394737 C19.802124,11.55 18.170874,9.94736842 16.145874,9.94736842 L10.802124,9.94736842 C8.77712402,9.94736842 7.14587402,11.55 7.14587402,13.5394737 L7.14587402,19.8394737 L7.20212402,19.8394737 Z" id="Shape"></path>
                    <path d="M5.68125,18.2894737 L0.5625,18.2894737 C0.225,18.2894737 -1.70530257e-13,18.0684211 -1.70530257e-13,17.7368421 L-1.70530257e-13,13.2605263 C-1.70530257e-13,11.4368421 1.51875,10 3.31875,10 L6.94799805,10 L6.93958944,10.0567037 L6.24375,11.1052632 C5.85,11.7684211 5.68125,12.4868421 5.68125,13.2605263 L5.68125,17.1842105 L5.68125,18.2894737 Z" id="Combined-Shape"></path>
                    <path d="M25.68125,18.2894737 L20.5625,18.2894737 C20.225,18.2894737 20,18.0684211 20,17.7368421 L20,13.2605263 C20,11.4368421 21.51875,10 23.31875,10 L26.947998,10 L26.9395894,10.0567037 L26.24375,11.1052632 C25.85,11.7684211 25.68125,12.4868421 25.68125,13.2605263 L25.68125,17.1842105 L25.68125,18.2894737 Z" id="Combined-Shape-Copy" transform="translate(23.473999, 14.144737) scale(-1, 1) translate(-23.473999, -14.144737) "></path>
                </g>
            </g>
        </g>
    </g>
</svg>